G04 #@! TF.FileFunction,Soldermask,Bot*
%FSLAX46Y46*%
G04 Gerber Fmt 4.6, Leading zero omitted, Abs format (unit mm)*
G04 Created by KiCad (PCBNEW 4.0.2-stable) date 26.04.2018 20:03:19*
%MOMM*%
G01*
G04 APERTURE LIST*
%ADD10C,0.100000*%
%ADD11C,2.700000*%
%ADD12R,2.100000X2.100000*%
%ADD13O,2.100000X2.100000*%
%ADD14R,2.600000X2.600000*%
%ADD15O,2.600000X2.600000*%
%ADD16R,1.400000X1.400000*%
%ADD17O,1.400000X1.400000*%
%ADD18C,2.150000*%
%ADD19C,2.400000*%
G04 APERTURE END LIST*
D10*
D11*
X64420000Y-111500000D03*
X66960000Y-111500000D03*
X61880000Y-81500000D03*
X64420000Y-81500000D03*
X66960000Y-81500000D03*
X69500000Y-81500000D03*
D12*
X61750000Y-90250000D03*
D13*
X61750000Y-92790000D03*
X61750000Y-95330000D03*
X61750000Y-97870000D03*
X61750000Y-100410000D03*
X61750000Y-102950000D03*
D14*
X122500000Y-79750000D03*
D15*
X122500000Y-72130000D03*
D16*
X64750000Y-69250000D03*
D17*
X64750000Y-70520000D03*
D16*
X67750000Y-69250000D03*
D17*
X67750000Y-70520000D03*
D16*
X71750000Y-129250000D03*
D17*
X70480000Y-129250000D03*
D16*
X59250000Y-129250000D03*
D17*
X60520000Y-129250000D03*
D16*
X70500000Y-118500000D03*
D17*
X71770000Y-118500000D03*
D16*
X60500000Y-118500000D03*
D17*
X59230000Y-118500000D03*
D16*
X101000000Y-95250000D03*
D17*
X99730000Y-95250000D03*
X98460000Y-95250000D03*
D12*
X60500000Y-76250000D03*
D13*
X60500000Y-73710000D03*
X60500000Y-71170000D03*
X60500000Y-68630000D03*
X60500000Y-66090000D03*
X60500000Y-63550000D03*
D12*
X70000000Y-74250000D03*
D13*
X70000000Y-76790000D03*
X67460000Y-74250000D03*
X67460000Y-76790000D03*
X64920000Y-74250000D03*
X64920000Y-76790000D03*
D16*
X64250000Y-129250000D03*
D17*
X65520000Y-129250000D03*
X66790000Y-129250000D03*
D16*
X64250000Y-132750000D03*
D17*
X65520000Y-132750000D03*
X66790000Y-132750000D03*
D18*
X81460000Y-145360000D03*
D19*
X107520000Y-145360000D03*
X107520000Y-147900000D03*
X107520000Y-150440000D03*
X107520000Y-152980000D03*
X111020000Y-145360000D03*
X111020000Y-147900000D03*
X111020000Y-150440000D03*
X111020000Y-152980000D03*
D18*
X84000000Y-145360000D03*
X86540000Y-145360000D03*
X89080000Y-145360000D03*
X91620000Y-145360000D03*
X94160000Y-145360000D03*
X96700000Y-145360000D03*
X99240000Y-145360000D03*
X101780000Y-145360000D03*
X104320000Y-145360000D03*
X81460000Y-147900000D03*
X84000000Y-147900000D03*
X86540000Y-147900000D03*
X89080000Y-147900000D03*
X91620000Y-147900000D03*
X94160000Y-147900000D03*
X96700000Y-147900000D03*
X99240000Y-147900000D03*
X101780000Y-147900000D03*
X104320000Y-147900000D03*
X81460000Y-150440000D03*
X84000000Y-150440000D03*
X86540000Y-150440000D03*
X89080000Y-150440000D03*
X91620000Y-150440000D03*
X94160000Y-150440000D03*
X96700000Y-150440000D03*
X99240000Y-150440000D03*
X101780000Y-150440000D03*
X104320000Y-150440000D03*
X81460000Y-152980000D03*
X84000000Y-152980000D03*
X86540000Y-152980000D03*
X89080000Y-152980000D03*
X91620000Y-152980000D03*
X94160000Y-152980000D03*
X96700000Y-152980000D03*
X99240000Y-152980000D03*
X101780000Y-152980000D03*
X104320000Y-152980000D03*
M02*
