M48
;DRILL file {KiCad 4.0.2-stable} date 26.04.2018 20:03:34
;FORMAT={-:-/ absolute / metric / decimal}
FMAT,2
METRIC,TZ
T1C0.400
T2C0.500
T3C0.650
T4C0.700
T5C1.000
T6C1.100
%
G90
G05
M71
T1
X53.75Y-82.675
X55.4Y-100.1
X55.425Y-96.65
X56.6Y-82.5
X57.925Y-137.15
X58.075Y-100.175
X61.1Y-112.275
X63.475Y-91.175
X65.15Y-123.975
X65.375Y-139.475
X65.5Y-121.6
X66.453Y-123.972
X66.95Y-140.125
X67.05Y-66.
X67.75Y-58.875
X69.25Y-58.9
X69.3Y-140.775
X69.3Y-141.675
X69.9Y-112.4
X72.Y-141.
X72.1Y-58.9
X72.3Y-79.375
X72.6Y-121.9
X72.95Y-137.125
X73.Y-57.5
X73.325Y-55.7
X73.9Y-60.7
X74.3Y-87.5
X74.375Y-88.325
X74.6Y-137.3
X75.1Y-60.7
X75.7Y-137.2
X76.2Y-132.425
X76.85Y-132.975
X76.85Y-133.875
X76.9Y-137.5
X77.4Y-60.7
X77.5Y-132.5
X77.65Y-65.45
X77.675Y-55.7
X78.Y-57.5
X78.35Y-134.55
X78.7Y-66.2
X79.5Y-137.3
X79.575Y-66.25
X79.625Y-67.1
X79.675Y-67.95
X80.1Y-149.15
X80.5Y-68.025
X80.775Y-134.075
X81.325Y-68.1
X81.75Y-58.875
X82.175Y-68.175
X82.2Y-128.475
X82.2Y-129.5
X82.2Y-141.025
X82.575Y-130.225
X82.725Y-63.45
X83.Y-68.25
X83.075Y-69.075
X83.35Y-58.875
X83.6Y-71.95
X83.6Y-87.4
X83.9Y-69.15
X84.075Y-140.2
X84.5Y-141.525
X84.725Y-69.225
X84.85Y-58.9
X85.3Y-137.625
X85.75Y-69.5
X87.15Y-70.875
X87.45Y-79.625
X87.7Y-70.225
X87.8Y-102.5
X88.Y-73.75
X88.Y-75.75
X88.Y-78.975
X88.2Y-58.9
X88.575Y-79.85
X88.6Y-57.6
X88.75Y-101.2
X88.75Y-105.8
X88.75Y-110.6
X88.75Y-115.4
X88.75Y-120.1
X88.95Y-55.675
X89.4Y-60.7
X89.6Y-98.8
X90.35Y-143.275
X90.5Y-124.1
X90.6Y-60.7
X90.8Y-68.3
X91.075Y-140.925
X91.3Y-106.4
X91.4Y-67.6
X91.5Y-60.7
X91.5Y-104.475
X91.6Y-113.975
X91.775Y-140.475
X91.8Y-88.
X91.9Y-87.2
X91.9Y-89.
X92.45Y-140.
X92.6Y-142.225
X92.8Y-71.4
X92.8Y-72.4
X93.Y-60.7
X93.1Y-98.7
X93.1Y-108.2
X93.1Y-117.7
X93.2Y-73.2
X93.25Y-55.7
X93.25Y-139.8
X93.5Y-57.4
X93.7Y-71.1
X94.Y-75.
X94.Y-86.6
X94.Y-89.4
X94.Y-101.2
X94.Y-110.6
X94.Y-120.1
X94.2Y-105.6
X94.4Y-88.7
X94.5Y-75.7
X94.55Y-80.75
X94.6Y-78.5
X94.8Y-142.9
X94.9Y-124.
X95.1Y-88.2
X96.2Y-79.2
X96.2Y-88.4
X96.6Y-77.7
X96.75Y-110.6
X96.75Y-120.1
X96.8Y-70.2
X97.05Y-101.2
X97.35Y-58.9
X97.5Y-81.975
X97.5Y-103.6
X97.6Y-113.
X97.6Y-122.5
X97.85Y-79.85
X98.25Y-82.325
X98.85Y-58.9
X99.25Y-97.775
X99.3Y-116.775
X99.325Y-63.85
X99.4Y-107.275
X99.639Y-142.736
X99.875Y-139.075
X100.Y-63.2
X101.Y-122.5
X101.2Y-80.55
X101.35Y-62.65
X101.575Y-70.4
X102.Y-101.2
X102.Y-105.6
X102.Y-110.6
X102.Y-115.5
X102.Y-120.1
X102.1Y-87.8
X102.175Y-85.25
X102.225Y-66.075
X102.25Y-58.875
X102.3Y-80.55
X102.5Y-70.4
X102.55Y-66.925
X102.7Y-57.4
X102.7Y-85.9
X102.925Y-65.625
X103.075Y-142.15
X103.1Y-55.675
X103.2Y-69.9
X103.3Y-60.7
X103.475Y-64.975
X104.2Y-77.1
X104.3Y-106.3
X104.7Y-60.7
X105.Y-76.7
X105.5Y-60.7
X105.65Y-65.425
X106.5Y-60.9
X107.375Y-55.675
X107.4Y-57.4
X107.6Y-62.5
X107.825Y-139.3
X108.875Y-138.475
X109.3Y-63.3
X110.1Y-84.5
X110.8Y-58.875
X111.3Y-71.8
X111.6Y-75.
X111.8Y-73.2
X112.1Y-71.5
X113.1Y-77.8
X113.3Y-72.9
X114.5Y-76.4
X114.8Y-80.3
X115.1Y-78.5
X115.2Y-79.6
X115.675Y-64.625
X116.4Y-89.8
X116.4Y-123.6
X117.8Y-82.8
X117.8Y-86.9
X117.8Y-87.8
X123.25Y-59.925
X123.875Y-84.425
X125.3Y-90.4
X125.4Y-123.6
X125.65Y-55.8
X126.775Y-83.75
X131.5Y-91.3
X134.9Y-123.9
T2
X119.9Y-70.2
X119.9Y-71.5
X123.1Y-82.1
X123.2Y-66.8
X125.6Y-81.
X128.4Y-65.7
X130.2Y-63.8
X131.3Y-72.8
X133.1Y-81.6
X133.5Y-63.8
X136.3Y-81.
X138.075Y-149.525
X138.3Y-63.7
X138.9Y-75.6
X139.075Y-150.975
X140.45Y-86.65
X141.4Y-84.95
T3
X59.23Y-118.5
X59.25Y-129.25
X60.5Y-118.5
X60.52Y-129.25
X64.25Y-129.25
X64.25Y-132.75
X64.75Y-69.25
X64.75Y-70.52
X65.52Y-129.25
X65.52Y-132.75
X66.79Y-129.25
X66.79Y-132.75
X67.75Y-69.25
X67.75Y-70.52
X70.48Y-129.25
X70.5Y-118.5
X71.75Y-129.25
X71.77Y-118.5
X98.46Y-95.25
X99.73Y-95.25
X101.Y-95.25
T4
X56.675Y-90.8
X56.7Y-87.275
X85.Y-157.
X87.2Y-158.5
X90.5Y-158.5
X109.75Y-96.25
X109.75Y-113.
X113.3Y-136.1
X113.4Y-146.4
X113.65Y-141.675
X115.2Y-131.8
X115.3Y-141.675
X115.3Y-146.3
X118.7Y-113.05
X118.7Y-129.8
X118.75Y-96.25
X122.75Y-138.75
X123.925Y-137.375
X126.9Y-85.925
X127.7Y-129.8
X127.75Y-96.25
X127.75Y-113.
X136.4Y-86.6
X136.7Y-113.
X136.75Y-96.25
X136.75Y-129.75
T5
X60.5Y-63.55
X60.5Y-66.09
X60.5Y-68.63
X60.5Y-71.17
X60.5Y-73.71
X60.5Y-76.25
X61.75Y-90.25
X61.75Y-92.79
X61.75Y-95.33
X61.75Y-97.87
X61.75Y-100.41
X61.75Y-102.95
X64.92Y-74.25
X64.92Y-76.79
X67.46Y-74.25
X67.46Y-76.79
X70.Y-74.25
X70.Y-76.79
X81.46Y-145.36
X81.46Y-147.9
X81.46Y-150.44
X81.46Y-152.98
X84.Y-145.36
X84.Y-147.9
X84.Y-150.44
X84.Y-152.98
X86.54Y-145.36
X86.54Y-147.9
X86.54Y-150.44
X86.54Y-152.98
X89.08Y-145.36
X89.08Y-147.9
X89.08Y-150.44
X89.08Y-152.98
X91.62Y-145.36
X91.62Y-147.9
X91.62Y-150.44
X91.62Y-152.98
X94.16Y-145.36
X94.16Y-147.9
X94.16Y-150.44
X94.16Y-152.98
X96.7Y-145.36
X96.7Y-147.9
X96.7Y-150.44
X96.7Y-152.98
X99.24Y-145.36
X99.24Y-147.9
X99.24Y-150.44
X99.24Y-152.98
X101.78Y-145.36
X101.78Y-147.9
X101.78Y-150.44
X101.78Y-152.98
X104.32Y-145.36
X104.32Y-147.9
X104.32Y-150.44
X104.32Y-152.98
T6
X61.88Y-81.5
X64.42Y-81.5
X64.42Y-111.5
X66.96Y-81.5
X66.96Y-111.5
X69.5Y-81.5
X107.52Y-145.36
X107.52Y-147.9
X107.52Y-150.44
X107.52Y-152.98
X111.02Y-145.36
X111.02Y-147.9
X111.02Y-150.44
X111.02Y-152.98
X122.5Y-72.13
X122.5Y-79.75
T0
M30
