G04 #@! TF.FileFunction,Other,User*
%FSLAX46Y46*%
G04 Gerber Fmt 4.6, Leading zero omitted, Abs format (unit mm)*
G04 Created by KiCad (PCBNEW 4.0.2-stable) date 07.03.2018 18:51:45*
%MOMM*%
G01*
G04 APERTURE LIST*
%ADD10C,0.100000*%
%ADD11C,0.050000*%
G04 APERTURE END LIST*
D10*
D11*
X59950000Y-88450000D02*
X59950000Y-104750000D01*
X59950000Y-104750000D02*
X63550000Y-104750000D01*
X63550000Y-104750000D02*
X63550000Y-88450000D01*
X63550000Y-88450000D02*
X59950000Y-88450000D01*
X96100000Y-114800000D02*
X96100000Y-111200000D01*
X96100000Y-114800000D02*
X97400000Y-114800000D01*
X97400000Y-111200000D02*
X96100000Y-111200000D01*
X97400000Y-111200000D02*
X97400000Y-114800000D01*
X94650000Y-115950000D02*
X94650000Y-119550000D01*
X94650000Y-115950000D02*
X93350000Y-115950000D01*
X93350000Y-119550000D02*
X94650000Y-119550000D01*
X93350000Y-119550000D02*
X93350000Y-115950000D01*
X101350000Y-114800000D02*
X101350000Y-111200000D01*
X101350000Y-114800000D02*
X102650000Y-114800000D01*
X102650000Y-111200000D02*
X101350000Y-111200000D01*
X102650000Y-111200000D02*
X102650000Y-114800000D01*
X89400000Y-115950000D02*
X89400000Y-119550000D01*
X89400000Y-115950000D02*
X88100000Y-115950000D01*
X88100000Y-119550000D02*
X89400000Y-119550000D01*
X88100000Y-119550000D02*
X88100000Y-115950000D01*
X94650000Y-96950000D02*
X94650000Y-100550000D01*
X94650000Y-96950000D02*
X93350000Y-96950000D01*
X93350000Y-100550000D02*
X94650000Y-100550000D01*
X93350000Y-100550000D02*
X93350000Y-96950000D01*
X96100000Y-105300000D02*
X96100000Y-101700000D01*
X96100000Y-105300000D02*
X97400000Y-105300000D01*
X97400000Y-101700000D02*
X96100000Y-101700000D01*
X97400000Y-101700000D02*
X97400000Y-105300000D01*
X89400000Y-96950000D02*
X89400000Y-100550000D01*
X89400000Y-96950000D02*
X88100000Y-96950000D01*
X88100000Y-100550000D02*
X89400000Y-100550000D01*
X88100000Y-100550000D02*
X88100000Y-96950000D01*
X101350000Y-105300000D02*
X101350000Y-101700000D01*
X101350000Y-105300000D02*
X102650000Y-105300000D01*
X102650000Y-101700000D02*
X101350000Y-101700000D01*
X102650000Y-101700000D02*
X102650000Y-105300000D01*
X96100000Y-124300000D02*
X96100000Y-120700000D01*
X96100000Y-124300000D02*
X97400000Y-124300000D01*
X97400000Y-120700000D02*
X96100000Y-120700000D01*
X97400000Y-120700000D02*
X97400000Y-124300000D01*
X94650000Y-106450000D02*
X94650000Y-110050000D01*
X94650000Y-106450000D02*
X93350000Y-106450000D01*
X93350000Y-110050000D02*
X94650000Y-110050000D01*
X93350000Y-110050000D02*
X93350000Y-106450000D01*
X101350000Y-124300000D02*
X101350000Y-120700000D01*
X101350000Y-124300000D02*
X102650000Y-124300000D01*
X102650000Y-120700000D02*
X101350000Y-120700000D01*
X102650000Y-120700000D02*
X102650000Y-124300000D01*
X89400000Y-106450000D02*
X89400000Y-110050000D01*
X89400000Y-106450000D02*
X88100000Y-106450000D01*
X88100000Y-110050000D02*
X89400000Y-110050000D01*
X88100000Y-110050000D02*
X88100000Y-106450000D01*
X132000000Y-80000000D02*
X132000000Y-73500000D01*
X132000000Y-80000000D02*
X135000000Y-80000000D01*
X135000000Y-73500000D02*
X132000000Y-73500000D01*
X135000000Y-73500000D02*
X135000000Y-80000000D01*
X136350000Y-79300000D02*
X136350000Y-75700000D01*
X136350000Y-79300000D02*
X137650000Y-79300000D01*
X137650000Y-75700000D02*
X136350000Y-75700000D01*
X137650000Y-75700000D02*
X137650000Y-79300000D01*
X130650000Y-66700000D02*
X130650000Y-70300000D01*
X130650000Y-66700000D02*
X129350000Y-66700000D01*
X129350000Y-70300000D02*
X130650000Y-70300000D01*
X129350000Y-70300000D02*
X129350000Y-66700000D01*
X135000000Y-66000000D02*
X135000000Y-72500000D01*
X135000000Y-66000000D02*
X132000000Y-66000000D01*
X132000000Y-72500000D02*
X135000000Y-72500000D01*
X132000000Y-72500000D02*
X132000000Y-66000000D01*
X69450000Y-135600000D02*
X73050000Y-135600000D01*
X69450000Y-135600000D02*
X69450000Y-136900000D01*
X73050000Y-136900000D02*
X73050000Y-135600000D01*
X73050000Y-136900000D02*
X69450000Y-136900000D01*
X61550000Y-136900000D02*
X57950000Y-136900000D01*
X61550000Y-136900000D02*
X61550000Y-135600000D01*
X57950000Y-135600000D02*
X57950000Y-136900000D01*
X57950000Y-135600000D02*
X61550000Y-135600000D01*
X69450000Y-137350000D02*
X73050000Y-137350000D01*
X69450000Y-137350000D02*
X69450000Y-138650000D01*
X73050000Y-138650000D02*
X73050000Y-137350000D01*
X73050000Y-138650000D02*
X69450000Y-138650000D01*
X61550000Y-138650000D02*
X57950000Y-138650000D01*
X61550000Y-138650000D02*
X61550000Y-137350000D01*
X57950000Y-137350000D02*
X57950000Y-138650000D01*
X57950000Y-137350000D02*
X61550000Y-137350000D01*
X69450000Y-122100000D02*
X73050000Y-122100000D01*
X69450000Y-122100000D02*
X69450000Y-123400000D01*
X73050000Y-123400000D02*
X73050000Y-122100000D01*
X73050000Y-123400000D02*
X69450000Y-123400000D01*
X73050000Y-125150000D02*
X69450000Y-125150000D01*
X73050000Y-125150000D02*
X73050000Y-123850000D01*
X69450000Y-123850000D02*
X69450000Y-125150000D01*
X69450000Y-123850000D02*
X73050000Y-123850000D01*
X57950000Y-123850000D02*
X61550000Y-123850000D01*
X57950000Y-123850000D02*
X57950000Y-125150000D01*
X61550000Y-125150000D02*
X61550000Y-123850000D01*
X61550000Y-125150000D02*
X57950000Y-125150000D01*
X69450000Y-120350000D02*
X73050000Y-120350000D01*
X69450000Y-120350000D02*
X69450000Y-121650000D01*
X73050000Y-121650000D02*
X73050000Y-120350000D01*
X73050000Y-121650000D02*
X69450000Y-121650000D01*
X58550000Y-96400000D02*
X54950000Y-96400000D01*
X58550000Y-96400000D02*
X58550000Y-95100000D01*
X54950000Y-95100000D02*
X54950000Y-96400000D01*
X54950000Y-95100000D02*
X58550000Y-95100000D01*
X58550000Y-98150000D02*
X54950000Y-98150000D01*
X58550000Y-98150000D02*
X58550000Y-96850000D01*
X54950000Y-96850000D02*
X54950000Y-98150000D01*
X54950000Y-96850000D02*
X58550000Y-96850000D01*
X54950000Y-98600000D02*
X58550000Y-98600000D01*
X54950000Y-98600000D02*
X54950000Y-99900000D01*
X58550000Y-99900000D02*
X58550000Y-98600000D01*
X58550000Y-99900000D02*
X54950000Y-99900000D01*
X54950000Y-100350000D02*
X58550000Y-100350000D01*
X54950000Y-100350000D02*
X54950000Y-101650000D01*
X58550000Y-101650000D02*
X58550000Y-100350000D01*
X58550000Y-101650000D02*
X54950000Y-101650000D01*
X72350000Y-81300000D02*
X72350000Y-77700000D01*
X72350000Y-81300000D02*
X73650000Y-81300000D01*
X73650000Y-77700000D02*
X72350000Y-77700000D01*
X73650000Y-77700000D02*
X73650000Y-81300000D01*
X117350000Y-76300000D02*
X117350000Y-72700000D01*
X117350000Y-76300000D02*
X118650000Y-76300000D01*
X118650000Y-72700000D02*
X117350000Y-72700000D01*
X118650000Y-72700000D02*
X118650000Y-76300000D01*
X118400000Y-68700000D02*
X118400000Y-72300000D01*
X118400000Y-68700000D02*
X117100000Y-68700000D01*
X117100000Y-72300000D02*
X118400000Y-72300000D01*
X117100000Y-72300000D02*
X117100000Y-68700000D01*
X54400000Y-78950000D02*
X54400000Y-82550000D01*
X54400000Y-78950000D02*
X53100000Y-78950000D01*
X53100000Y-82550000D02*
X54400000Y-82550000D01*
X53100000Y-82550000D02*
X53100000Y-78950000D01*
X81100000Y-62950000D02*
X81100000Y-59350000D01*
X81100000Y-62950000D02*
X82400000Y-62950000D01*
X82400000Y-59350000D02*
X81100000Y-59350000D01*
X82400000Y-59350000D02*
X82400000Y-62950000D01*
X82400000Y-54850000D02*
X82400000Y-58450000D01*
X82400000Y-54850000D02*
X81100000Y-54850000D01*
X81100000Y-58450000D02*
X82400000Y-58450000D01*
X81100000Y-58450000D02*
X81100000Y-54850000D01*
X110725000Y-62925000D02*
X110725000Y-59325000D01*
X110725000Y-62925000D02*
X112025000Y-62925000D01*
X112025000Y-59325000D02*
X110725000Y-59325000D01*
X112025000Y-59325000D02*
X112025000Y-62925000D01*
X112025000Y-54825000D02*
X112025000Y-58425000D01*
X112025000Y-54825000D02*
X110725000Y-54825000D01*
X110725000Y-58425000D02*
X112025000Y-58425000D01*
X110725000Y-58425000D02*
X110725000Y-54825000D01*
X79400000Y-59350000D02*
X79400000Y-62950000D01*
X79400000Y-59350000D02*
X78100000Y-59350000D01*
X78100000Y-62950000D02*
X79400000Y-62950000D01*
X78100000Y-62950000D02*
X78100000Y-59350000D01*
X78100000Y-58450000D02*
X78100000Y-54850000D01*
X78100000Y-58450000D02*
X79400000Y-58450000D01*
X79400000Y-54850000D02*
X78100000Y-54850000D01*
X79400000Y-54850000D02*
X79400000Y-58450000D01*
X109025000Y-59325000D02*
X109025000Y-62925000D01*
X109025000Y-59325000D02*
X107725000Y-59325000D01*
X107725000Y-62925000D02*
X109025000Y-62925000D01*
X107725000Y-62925000D02*
X107725000Y-59325000D01*
X107725000Y-58425000D02*
X107725000Y-54825000D01*
X107725000Y-58425000D02*
X109025000Y-58425000D01*
X109025000Y-54825000D02*
X107725000Y-54825000D01*
X109025000Y-54825000D02*
X109025000Y-58425000D01*
X68400000Y-54850000D02*
X68400000Y-58450000D01*
X68400000Y-54850000D02*
X67100000Y-54850000D01*
X67100000Y-58450000D02*
X68400000Y-58450000D01*
X67100000Y-58450000D02*
X67100000Y-54850000D01*
X67100000Y-62950000D02*
X67100000Y-59350000D01*
X67100000Y-62950000D02*
X68400000Y-62950000D01*
X68400000Y-59350000D02*
X67100000Y-59350000D01*
X68400000Y-59350000D02*
X68400000Y-62950000D01*
X99525000Y-54825000D02*
X99525000Y-58425000D01*
X99525000Y-54825000D02*
X98225000Y-54825000D01*
X98225000Y-58425000D02*
X99525000Y-58425000D01*
X98225000Y-58425000D02*
X98225000Y-54825000D01*
X98225000Y-62925000D02*
X98225000Y-59325000D01*
X98225000Y-62925000D02*
X99525000Y-62925000D01*
X99525000Y-59325000D02*
X98225000Y-59325000D01*
X99525000Y-59325000D02*
X99525000Y-62925000D01*
X71600000Y-58450000D02*
X71600000Y-54850000D01*
X71600000Y-58450000D02*
X72900000Y-58450000D01*
X72900000Y-54850000D02*
X71600000Y-54850000D01*
X72900000Y-54850000D02*
X72900000Y-58450000D01*
X72900000Y-59350000D02*
X72900000Y-62950000D01*
X72900000Y-59350000D02*
X71600000Y-59350000D01*
X71600000Y-62950000D02*
X72900000Y-62950000D01*
X71600000Y-62950000D02*
X71600000Y-59350000D01*
X101225000Y-58425000D02*
X101225000Y-54825000D01*
X101225000Y-58425000D02*
X102525000Y-58425000D01*
X102525000Y-54825000D02*
X101225000Y-54825000D01*
X102525000Y-54825000D02*
X102525000Y-58425000D01*
X102525000Y-59325000D02*
X102525000Y-62925000D01*
X102525000Y-59325000D02*
X101225000Y-59325000D01*
X101225000Y-62925000D02*
X102525000Y-62925000D01*
X101225000Y-62925000D02*
X101225000Y-59325000D01*
X96700000Y-62950000D02*
X96700000Y-59350000D01*
X96700000Y-62950000D02*
X98000000Y-62950000D01*
X98000000Y-59350000D02*
X96700000Y-59350000D01*
X98000000Y-59350000D02*
X98000000Y-62950000D01*
X98000000Y-54850000D02*
X98000000Y-58450000D01*
X98000000Y-54850000D02*
X96700000Y-54850000D01*
X96700000Y-58450000D02*
X98000000Y-58450000D01*
X96700000Y-58450000D02*
X96700000Y-54850000D01*
X95000000Y-59350000D02*
X95000000Y-62950000D01*
X95000000Y-59350000D02*
X93700000Y-59350000D01*
X93700000Y-62950000D02*
X95000000Y-62950000D01*
X93700000Y-62950000D02*
X93700000Y-59350000D01*
X93700000Y-58450000D02*
X93700000Y-54850000D01*
X93700000Y-58450000D02*
X95000000Y-58450000D01*
X95000000Y-54850000D02*
X93700000Y-54850000D01*
X95000000Y-54850000D02*
X95000000Y-58450000D01*
X84000000Y-54850000D02*
X84000000Y-58450000D01*
X84000000Y-54850000D02*
X82700000Y-54850000D01*
X82700000Y-58450000D02*
X84000000Y-58450000D01*
X82700000Y-58450000D02*
X82700000Y-54850000D01*
X82700000Y-62950000D02*
X82700000Y-59350000D01*
X82700000Y-62950000D02*
X84000000Y-62950000D01*
X84000000Y-59350000D02*
X82700000Y-59350000D01*
X84000000Y-59350000D02*
X84000000Y-62950000D01*
X87200000Y-58450000D02*
X87200000Y-54850000D01*
X87200000Y-58450000D02*
X88500000Y-58450000D01*
X88500000Y-54850000D02*
X87200000Y-54850000D01*
X88500000Y-54850000D02*
X88500000Y-58450000D01*
X88500000Y-59350000D02*
X88500000Y-62950000D01*
X88500000Y-59350000D02*
X87200000Y-59350000D01*
X87200000Y-62950000D02*
X88500000Y-62950000D01*
X87200000Y-62950000D02*
X87200000Y-59350000D01*
X89550000Y-69650000D02*
X85950000Y-69650000D01*
X89550000Y-69650000D02*
X89550000Y-68350000D01*
X85950000Y-68350000D02*
X85950000Y-69650000D01*
X85950000Y-68350000D02*
X89550000Y-68350000D01*
X87900000Y-72950000D02*
X87900000Y-76550000D01*
X87900000Y-72950000D02*
X86600000Y-72950000D01*
X86600000Y-76550000D02*
X87900000Y-76550000D01*
X86600000Y-76550000D02*
X86600000Y-72950000D01*
X92700000Y-86600000D02*
X96300000Y-86600000D01*
X92700000Y-86600000D02*
X92700000Y-87900000D01*
X96300000Y-87900000D02*
X96300000Y-86600000D01*
X96300000Y-87900000D02*
X92700000Y-87900000D01*
X110100000Y-78550000D02*
X110100000Y-74950000D01*
X110100000Y-78550000D02*
X111400000Y-78550000D01*
X111400000Y-74950000D02*
X110100000Y-74950000D01*
X111400000Y-74950000D02*
X111400000Y-78550000D01*
X111400000Y-65950000D02*
X111400000Y-69550000D01*
X111400000Y-65950000D02*
X110100000Y-65950000D01*
X110100000Y-69550000D02*
X111400000Y-69550000D01*
X110100000Y-69550000D02*
X110100000Y-65950000D01*
X89550000Y-68150000D02*
X85950000Y-68150000D01*
X89550000Y-68150000D02*
X89550000Y-66850000D01*
X85950000Y-66850000D02*
X85950000Y-68150000D01*
X85950000Y-66850000D02*
X89550000Y-66850000D01*
X120800000Y-81100000D02*
X124200000Y-81100000D01*
X124200000Y-81100000D02*
X124200000Y-70750000D01*
X124200000Y-70750000D02*
X120800000Y-70750000D01*
X120800000Y-70750000D02*
X120800000Y-81100000D01*
X130500000Y-71500000D02*
X130500000Y-80500000D01*
X130500000Y-80500000D02*
X127000000Y-80500000D01*
X127000000Y-80500000D02*
X127000000Y-71500000D01*
X127000000Y-71500000D02*
X130500000Y-71500000D01*
X140000000Y-65500000D02*
X140000000Y-74500000D01*
X140000000Y-74500000D02*
X136500000Y-74500000D01*
X136500000Y-74500000D02*
X136500000Y-65500000D01*
X136500000Y-65500000D02*
X140000000Y-65500000D01*
X130650000Y-55650000D02*
X130650000Y-60350000D01*
X130650000Y-55650000D02*
X128850000Y-55650000D01*
X128850000Y-60350000D02*
X130650000Y-60350000D01*
X128850000Y-60350000D02*
X128850000Y-55650000D01*
X125400000Y-55650000D02*
X125400000Y-60350000D01*
X125400000Y-55650000D02*
X123600000Y-55650000D01*
X123600000Y-60350000D02*
X125400000Y-60350000D01*
X123600000Y-60350000D02*
X123600000Y-55650000D01*
X120150000Y-55650000D02*
X120150000Y-60350000D01*
X120150000Y-55650000D02*
X118350000Y-55650000D01*
X118350000Y-60350000D02*
X120150000Y-60350000D01*
X118350000Y-60350000D02*
X118350000Y-55650000D01*
X56800000Y-82750000D02*
X56800000Y-78750000D01*
X56800000Y-78750000D02*
X58700000Y-78750000D01*
X58700000Y-82750000D02*
X58700000Y-78750000D01*
X56800000Y-82750000D02*
X58700000Y-82750000D01*
X90300000Y-67300000D02*
X90300000Y-84700000D01*
X107700000Y-67300000D02*
X107700000Y-84700000D01*
X90300000Y-67300000D02*
X107700000Y-67300000D01*
X90300000Y-84700000D02*
X107700000Y-84700000D01*
X63200000Y-68100000D02*
X63200000Y-71700000D01*
X63200000Y-71700000D02*
X66300000Y-71700000D01*
X66300000Y-71700000D02*
X66300000Y-68100000D01*
X66300000Y-68100000D02*
X63200000Y-68100000D01*
X66200000Y-68100000D02*
X66200000Y-71700000D01*
X66200000Y-71700000D02*
X69300000Y-71700000D01*
X69300000Y-71700000D02*
X69300000Y-68100000D01*
X69300000Y-68100000D02*
X66200000Y-68100000D01*
X72900000Y-127700000D02*
X69300000Y-127700000D01*
X69300000Y-127700000D02*
X69300000Y-130800000D01*
X69300000Y-130800000D02*
X72900000Y-130800000D01*
X72900000Y-130800000D02*
X72900000Y-127700000D01*
X58100000Y-130800000D02*
X61700000Y-130800000D01*
X61700000Y-130800000D02*
X61700000Y-127700000D01*
X61700000Y-127700000D02*
X58100000Y-127700000D01*
X58100000Y-127700000D02*
X58100000Y-130800000D01*
X69350000Y-120050000D02*
X72950000Y-120050000D01*
X72950000Y-120050000D02*
X72950000Y-116950000D01*
X72950000Y-116950000D02*
X69350000Y-116950000D01*
X69350000Y-116950000D02*
X69350000Y-120050000D01*
X61650000Y-116950000D02*
X58050000Y-116950000D01*
X58050000Y-116950000D02*
X58050000Y-120050000D01*
X58050000Y-120050000D02*
X61650000Y-120050000D01*
X61650000Y-120050000D02*
X61650000Y-116950000D01*
X102150000Y-93700000D02*
X97300000Y-93700000D01*
X97300000Y-93700000D02*
X97300000Y-96800000D01*
X97300000Y-96800000D02*
X102150000Y-96800000D01*
X102150000Y-96800000D02*
X102150000Y-93700000D01*
X122250000Y-128450000D02*
X115250000Y-128450000D01*
X115250000Y-128450000D02*
X115250000Y-139550000D01*
X115250000Y-139550000D02*
X122250000Y-139550000D01*
X122250000Y-139550000D02*
X122250000Y-128450000D01*
X131250000Y-128450000D02*
X124250000Y-128450000D01*
X124250000Y-128450000D02*
X124250000Y-139550000D01*
X124250000Y-139550000D02*
X131250000Y-139550000D01*
X131250000Y-139550000D02*
X131250000Y-128450000D01*
X122250000Y-111700000D02*
X115250000Y-111700000D01*
X115250000Y-111700000D02*
X115250000Y-122800000D01*
X115250000Y-122800000D02*
X122250000Y-122800000D01*
X122250000Y-122800000D02*
X122250000Y-111700000D01*
X140250000Y-128450000D02*
X133250000Y-128450000D01*
X133250000Y-128450000D02*
X133250000Y-139550000D01*
X133250000Y-139550000D02*
X140250000Y-139550000D01*
X140250000Y-139550000D02*
X140250000Y-128450000D01*
X132020000Y-83300000D02*
X132020000Y-88700000D01*
X139480000Y-83300000D02*
X139480000Y-88700000D01*
X132020000Y-83300000D02*
X139480000Y-83300000D01*
X132020000Y-88700000D02*
X139480000Y-88700000D01*
X140250000Y-111700000D02*
X133250000Y-111700000D01*
X133250000Y-111700000D02*
X133250000Y-122800000D01*
X133250000Y-122800000D02*
X140250000Y-122800000D01*
X140250000Y-122800000D02*
X140250000Y-111700000D01*
X131250000Y-111700000D02*
X124250000Y-111700000D01*
X124250000Y-111700000D02*
X124250000Y-122800000D01*
X124250000Y-122800000D02*
X131250000Y-122800000D01*
X131250000Y-122800000D02*
X131250000Y-111700000D01*
X113250000Y-94950000D02*
X106250000Y-94950000D01*
X106250000Y-94950000D02*
X106250000Y-106050000D01*
X106250000Y-106050000D02*
X113250000Y-106050000D01*
X113250000Y-106050000D02*
X113250000Y-94950000D01*
X131250000Y-94950000D02*
X124250000Y-94950000D01*
X124250000Y-94950000D02*
X124250000Y-106050000D01*
X124250000Y-106050000D02*
X131250000Y-106050000D01*
X131250000Y-106050000D02*
X131250000Y-94950000D01*
X140250000Y-94950000D02*
X133250000Y-94950000D01*
X133250000Y-94950000D02*
X133250000Y-106050000D01*
X133250000Y-106050000D02*
X140250000Y-106050000D01*
X140250000Y-106050000D02*
X140250000Y-94950000D01*
X113250000Y-111700000D02*
X106250000Y-111700000D01*
X106250000Y-111700000D02*
X106250000Y-122800000D01*
X106250000Y-122800000D02*
X113250000Y-122800000D01*
X113250000Y-122800000D02*
X113250000Y-111700000D01*
X122250000Y-94950000D02*
X115250000Y-94950000D01*
X115250000Y-94950000D02*
X115250000Y-106050000D01*
X115250000Y-106050000D02*
X122250000Y-106050000D01*
X122250000Y-106050000D02*
X122250000Y-94950000D01*
X96050000Y-106400000D02*
X96050000Y-110100000D01*
X102450000Y-106400000D02*
X102450000Y-110100000D01*
X96050000Y-106400000D02*
X102450000Y-106400000D01*
X96050000Y-110100000D02*
X102450000Y-110100000D01*
X94700000Y-124350000D02*
X94700000Y-120650000D01*
X88300000Y-124350000D02*
X88300000Y-120650000D01*
X94700000Y-124350000D02*
X88300000Y-124350000D01*
X94700000Y-120650000D02*
X88300000Y-120650000D01*
X94700000Y-105350000D02*
X94700000Y-101650000D01*
X88300000Y-105350000D02*
X88300000Y-101650000D01*
X94700000Y-105350000D02*
X88300000Y-105350000D01*
X94700000Y-101650000D02*
X88300000Y-101650000D01*
X96050000Y-96900000D02*
X96050000Y-100600000D01*
X102450000Y-96900000D02*
X102450000Y-100600000D01*
X96050000Y-96900000D02*
X102450000Y-96900000D01*
X96050000Y-100600000D02*
X102450000Y-100600000D01*
X96050000Y-115900000D02*
X96050000Y-119600000D01*
X102450000Y-115900000D02*
X102450000Y-119600000D01*
X96050000Y-115900000D02*
X102450000Y-115900000D01*
X96050000Y-119600000D02*
X102450000Y-119600000D01*
X94700000Y-114850000D02*
X94700000Y-111150000D01*
X88300000Y-114850000D02*
X88300000Y-111150000D01*
X94700000Y-114850000D02*
X88300000Y-114850000D01*
X94700000Y-111150000D02*
X88300000Y-111150000D01*
X120100000Y-126150000D02*
X115400000Y-126150000D01*
X120100000Y-126150000D02*
X120100000Y-124350000D01*
X115400000Y-124350000D02*
X115400000Y-126150000D01*
X115400000Y-124350000D02*
X120100000Y-124350000D01*
X119460000Y-127700000D02*
X115550000Y-127700000D01*
X119460000Y-127700000D02*
X119460000Y-126300000D01*
X115550000Y-126300000D02*
X115550000Y-127700000D01*
X115550000Y-126300000D02*
X119460000Y-126300000D01*
X129100000Y-126150000D02*
X124400000Y-126150000D01*
X129100000Y-126150000D02*
X129100000Y-124350000D01*
X124400000Y-124350000D02*
X124400000Y-126150000D01*
X124400000Y-124350000D02*
X129100000Y-124350000D01*
X128460000Y-127700000D02*
X124550000Y-127700000D01*
X128460000Y-127700000D02*
X128460000Y-126300000D01*
X124550000Y-126300000D02*
X124550000Y-127700000D01*
X124550000Y-126300000D02*
X128460000Y-126300000D01*
X120100000Y-109400000D02*
X115400000Y-109400000D01*
X120100000Y-109400000D02*
X120100000Y-107600000D01*
X115400000Y-107600000D02*
X115400000Y-109400000D01*
X115400000Y-107600000D02*
X120100000Y-107600000D01*
X119460000Y-110950000D02*
X115550000Y-110950000D01*
X119460000Y-110950000D02*
X119460000Y-109550000D01*
X115550000Y-109550000D02*
X115550000Y-110950000D01*
X115550000Y-109550000D02*
X119460000Y-109550000D01*
X138100000Y-126150000D02*
X133400000Y-126150000D01*
X138100000Y-126150000D02*
X138100000Y-124350000D01*
X133400000Y-124350000D02*
X133400000Y-126150000D01*
X133400000Y-124350000D02*
X138100000Y-124350000D01*
X137460000Y-127700000D02*
X133550000Y-127700000D01*
X137460000Y-127700000D02*
X137460000Y-126300000D01*
X133550000Y-126300000D02*
X133550000Y-127700000D01*
X133550000Y-126300000D02*
X137460000Y-126300000D01*
X131210000Y-85950000D02*
X127300000Y-85950000D01*
X131210000Y-85950000D02*
X131210000Y-84550000D01*
X127300000Y-84550000D02*
X127300000Y-85950000D01*
X127300000Y-84550000D02*
X131210000Y-84550000D01*
X131210000Y-84450000D02*
X127300000Y-84450000D01*
X131210000Y-84450000D02*
X131210000Y-83050000D01*
X127300000Y-83050000D02*
X127300000Y-84450000D01*
X127300000Y-83050000D02*
X131210000Y-83050000D01*
X131210000Y-88950000D02*
X127300000Y-88950000D01*
X131210000Y-88950000D02*
X131210000Y-87550000D01*
X127300000Y-87550000D02*
X127300000Y-88950000D01*
X127300000Y-87550000D02*
X131210000Y-87550000D01*
X131210000Y-87450000D02*
X127300000Y-87450000D01*
X131210000Y-87450000D02*
X131210000Y-86050000D01*
X127300000Y-86050000D02*
X127300000Y-87450000D01*
X127300000Y-86050000D02*
X131210000Y-86050000D01*
X138100000Y-109400000D02*
X133400000Y-109400000D01*
X138100000Y-109400000D02*
X138100000Y-107600000D01*
X133400000Y-107600000D02*
X133400000Y-109400000D01*
X133400000Y-107600000D02*
X138100000Y-107600000D01*
X137460000Y-110950000D02*
X133550000Y-110950000D01*
X137460000Y-110950000D02*
X137460000Y-109550000D01*
X133550000Y-109550000D02*
X133550000Y-110950000D01*
X133550000Y-109550000D02*
X137460000Y-109550000D01*
X129100000Y-109400000D02*
X124400000Y-109400000D01*
X129100000Y-109400000D02*
X129100000Y-107600000D01*
X124400000Y-107600000D02*
X124400000Y-109400000D01*
X124400000Y-107600000D02*
X129100000Y-107600000D01*
X128460000Y-110950000D02*
X124550000Y-110950000D01*
X128460000Y-110950000D02*
X128460000Y-109550000D01*
X124550000Y-109550000D02*
X124550000Y-110950000D01*
X124550000Y-109550000D02*
X128460000Y-109550000D01*
X111100000Y-92650000D02*
X106400000Y-92650000D01*
X111100000Y-92650000D02*
X111100000Y-90850000D01*
X106400000Y-90850000D02*
X106400000Y-92650000D01*
X106400000Y-90850000D02*
X111100000Y-90850000D01*
X110460000Y-94200000D02*
X106550000Y-94200000D01*
X110460000Y-94200000D02*
X110460000Y-92800000D01*
X106550000Y-92800000D02*
X106550000Y-94200000D01*
X106550000Y-92800000D02*
X110460000Y-92800000D01*
X129100000Y-92650000D02*
X124400000Y-92650000D01*
X129100000Y-92650000D02*
X129100000Y-90850000D01*
X124400000Y-90850000D02*
X124400000Y-92650000D01*
X124400000Y-90850000D02*
X129100000Y-90850000D01*
X128460000Y-94200000D02*
X124550000Y-94200000D01*
X128460000Y-94200000D02*
X128460000Y-92800000D01*
X124550000Y-92800000D02*
X124550000Y-94200000D01*
X124550000Y-92800000D02*
X128460000Y-92800000D01*
X138100000Y-92650000D02*
X133400000Y-92650000D01*
X138100000Y-92650000D02*
X138100000Y-90850000D01*
X133400000Y-90850000D02*
X133400000Y-92650000D01*
X133400000Y-90850000D02*
X138100000Y-90850000D01*
X137460000Y-94200000D02*
X133550000Y-94200000D01*
X137460000Y-94200000D02*
X137460000Y-92800000D01*
X133550000Y-92800000D02*
X133550000Y-94200000D01*
X133550000Y-92800000D02*
X137460000Y-92800000D01*
X111100000Y-109400000D02*
X106400000Y-109400000D01*
X111100000Y-109400000D02*
X111100000Y-107600000D01*
X106400000Y-107600000D02*
X106400000Y-109400000D01*
X106400000Y-107600000D02*
X111100000Y-107600000D01*
X110460000Y-110950000D02*
X106550000Y-110950000D01*
X110460000Y-110950000D02*
X110460000Y-109550000D01*
X106550000Y-109550000D02*
X106550000Y-110950000D01*
X106550000Y-109550000D02*
X110460000Y-109550000D01*
X120100000Y-92650000D02*
X115400000Y-92650000D01*
X120100000Y-92650000D02*
X120100000Y-90850000D01*
X115400000Y-90850000D02*
X115400000Y-92650000D01*
X115400000Y-90850000D02*
X120100000Y-90850000D01*
X119460000Y-94200000D02*
X115550000Y-94200000D01*
X119460000Y-94200000D02*
X119460000Y-92800000D01*
X115550000Y-92800000D02*
X115550000Y-94200000D01*
X115550000Y-92800000D02*
X119460000Y-92800000D01*
X100950000Y-111040000D02*
X100950000Y-114950000D01*
X100950000Y-111040000D02*
X99550000Y-111040000D01*
X99550000Y-114950000D02*
X100950000Y-114950000D01*
X99550000Y-114950000D02*
X99550000Y-111040000D01*
X97800000Y-114960000D02*
X97800000Y-111050000D01*
X97800000Y-114960000D02*
X99200000Y-114960000D01*
X99200000Y-111050000D02*
X97800000Y-111050000D01*
X99200000Y-111050000D02*
X99200000Y-114960000D01*
X89800000Y-119710000D02*
X89800000Y-115800000D01*
X89800000Y-119710000D02*
X91200000Y-119710000D01*
X91200000Y-115800000D02*
X89800000Y-115800000D01*
X91200000Y-115800000D02*
X91200000Y-119710000D01*
X92950000Y-115790000D02*
X92950000Y-119700000D01*
X92950000Y-115790000D02*
X91550000Y-115790000D01*
X91550000Y-119700000D02*
X92950000Y-119700000D01*
X91550000Y-119700000D02*
X91550000Y-115790000D01*
X89800000Y-100710000D02*
X89800000Y-96800000D01*
X89800000Y-100710000D02*
X91200000Y-100710000D01*
X91200000Y-96800000D02*
X89800000Y-96800000D01*
X91200000Y-96800000D02*
X91200000Y-100710000D01*
X92950000Y-96790000D02*
X92950000Y-100700000D01*
X92950000Y-96790000D02*
X91550000Y-96790000D01*
X91550000Y-100700000D02*
X92950000Y-100700000D01*
X91550000Y-100700000D02*
X91550000Y-96790000D01*
X100950000Y-101540000D02*
X100950000Y-105450000D01*
X100950000Y-101540000D02*
X99550000Y-101540000D01*
X99550000Y-105450000D02*
X100950000Y-105450000D01*
X99550000Y-105450000D02*
X99550000Y-101540000D01*
X97800000Y-105460000D02*
X97800000Y-101550000D01*
X97800000Y-105460000D02*
X99200000Y-105460000D01*
X99200000Y-101550000D02*
X97800000Y-101550000D01*
X99200000Y-101550000D02*
X99200000Y-105460000D01*
X100950000Y-120540000D02*
X100950000Y-124450000D01*
X100950000Y-120540000D02*
X99550000Y-120540000D01*
X99550000Y-124450000D02*
X100950000Y-124450000D01*
X99550000Y-124450000D02*
X99550000Y-120540000D01*
X97800000Y-124460000D02*
X97800000Y-120550000D01*
X97800000Y-124460000D02*
X99200000Y-124460000D01*
X99200000Y-120550000D02*
X97800000Y-120550000D01*
X99200000Y-120550000D02*
X99200000Y-124460000D01*
X89800000Y-110210000D02*
X89800000Y-106300000D01*
X89800000Y-110210000D02*
X91200000Y-110210000D01*
X91200000Y-106300000D02*
X89800000Y-106300000D01*
X91200000Y-106300000D02*
X91200000Y-110210000D01*
X92950000Y-106290000D02*
X92950000Y-110200000D01*
X92950000Y-106290000D02*
X91550000Y-106290000D01*
X91550000Y-110200000D02*
X92950000Y-110200000D01*
X91550000Y-110200000D02*
X91550000Y-106290000D01*
X127050000Y-59960000D02*
X127050000Y-56050000D01*
X127050000Y-59960000D02*
X128450000Y-59960000D01*
X128450000Y-56050000D02*
X127050000Y-56050000D01*
X128450000Y-56050000D02*
X128450000Y-59960000D01*
X121800000Y-59960000D02*
X121800000Y-56050000D01*
X121800000Y-59960000D02*
X123200000Y-59960000D01*
X123200000Y-56050000D02*
X121800000Y-56050000D01*
X123200000Y-56050000D02*
X123200000Y-59960000D01*
X116550000Y-59960000D02*
X116550000Y-56050000D01*
X116550000Y-59960000D02*
X117950000Y-59960000D01*
X117950000Y-56050000D02*
X116550000Y-56050000D01*
X117950000Y-56050000D02*
X117950000Y-59960000D01*
X73600000Y-132900000D02*
X68900000Y-132900000D01*
X73600000Y-132900000D02*
X73600000Y-131100000D01*
X68900000Y-131100000D02*
X68900000Y-132900000D01*
X68900000Y-131100000D02*
X73600000Y-131100000D01*
X57400000Y-131100000D02*
X62100000Y-131100000D01*
X57400000Y-131100000D02*
X57400000Y-132900000D01*
X62100000Y-132900000D02*
X62100000Y-131100000D01*
X62100000Y-132900000D02*
X57400000Y-132900000D01*
X73600000Y-135150000D02*
X68900000Y-135150000D01*
X73600000Y-135150000D02*
X73600000Y-133350000D01*
X68900000Y-133350000D02*
X68900000Y-135150000D01*
X68900000Y-133350000D02*
X73600000Y-133350000D01*
X73600000Y-127400000D02*
X68900000Y-127400000D01*
X73600000Y-127400000D02*
X73600000Y-125600000D01*
X68900000Y-125600000D02*
X68900000Y-127400000D01*
X68900000Y-125600000D02*
X73600000Y-125600000D01*
X57400000Y-133350000D02*
X62100000Y-133350000D01*
X57400000Y-133350000D02*
X57400000Y-135150000D01*
X62100000Y-135150000D02*
X62100000Y-133350000D01*
X62100000Y-135150000D02*
X57400000Y-135150000D01*
X57400000Y-125600000D02*
X62100000Y-125600000D01*
X57400000Y-125600000D02*
X57400000Y-127400000D01*
X62100000Y-127400000D02*
X62100000Y-125600000D01*
X62100000Y-127400000D02*
X57400000Y-127400000D01*
X73600000Y-114400000D02*
X68900000Y-114400000D01*
X73600000Y-114400000D02*
X73600000Y-112600000D01*
X68900000Y-112600000D02*
X68900000Y-114400000D01*
X68900000Y-112600000D02*
X73600000Y-112600000D01*
X57400000Y-112600000D02*
X62100000Y-112600000D01*
X57400000Y-112600000D02*
X57400000Y-114400000D01*
X62100000Y-114400000D02*
X62100000Y-112600000D01*
X62100000Y-114400000D02*
X57400000Y-114400000D01*
X68900000Y-114850000D02*
X73600000Y-114850000D01*
X68900000Y-114850000D02*
X68900000Y-116650000D01*
X73600000Y-116650000D02*
X73600000Y-114850000D01*
X73600000Y-116650000D02*
X68900000Y-116650000D01*
X62100000Y-116650000D02*
X57400000Y-116650000D01*
X62100000Y-116650000D02*
X62100000Y-114850000D01*
X57400000Y-114850000D02*
X57400000Y-116650000D01*
X57400000Y-114850000D02*
X62100000Y-114850000D01*
X54790000Y-93300000D02*
X58700000Y-93300000D01*
X54790000Y-93300000D02*
X54790000Y-94700000D01*
X58700000Y-94700000D02*
X58700000Y-93300000D01*
X58700000Y-94700000D02*
X54790000Y-94700000D01*
X75550000Y-81460000D02*
X75550000Y-77550000D01*
X75550000Y-81460000D02*
X76950000Y-81460000D01*
X76950000Y-77550000D02*
X75550000Y-77550000D01*
X76950000Y-77550000D02*
X76950000Y-81460000D01*
X73800000Y-81460000D02*
X73800000Y-77550000D01*
X73800000Y-81460000D02*
X75200000Y-81460000D01*
X75200000Y-77550000D02*
X73800000Y-77550000D01*
X75200000Y-77550000D02*
X75200000Y-81460000D01*
X63290000Y-64550000D02*
X67200000Y-64550000D01*
X63290000Y-64550000D02*
X63290000Y-65950000D01*
X67200000Y-65950000D02*
X67200000Y-64550000D01*
X67200000Y-65950000D02*
X63290000Y-65950000D01*
X63290000Y-66300000D02*
X67200000Y-66300000D01*
X63290000Y-66300000D02*
X63290000Y-67700000D01*
X67200000Y-67700000D02*
X67200000Y-66300000D01*
X67200000Y-67700000D02*
X63290000Y-67700000D01*
X118800000Y-80710000D02*
X118800000Y-76800000D01*
X118800000Y-80710000D02*
X120200000Y-80710000D01*
X120200000Y-76800000D02*
X118800000Y-76800000D01*
X120200000Y-76800000D02*
X120200000Y-80710000D01*
X118800000Y-76460000D02*
X118800000Y-72550000D01*
X118800000Y-76460000D02*
X120200000Y-76460000D01*
X120200000Y-72550000D02*
X118800000Y-72550000D01*
X120200000Y-72550000D02*
X120200000Y-76460000D01*
X116950000Y-68540000D02*
X116950000Y-72450000D01*
X116950000Y-68540000D02*
X115550000Y-68540000D01*
X115550000Y-72450000D02*
X116950000Y-72450000D01*
X115550000Y-72450000D02*
X115550000Y-68540000D01*
X54800000Y-82710000D02*
X54800000Y-78800000D01*
X54800000Y-82710000D02*
X56200000Y-82710000D01*
X56200000Y-78800000D02*
X54800000Y-78800000D01*
X56200000Y-78800000D02*
X56200000Y-82710000D01*
X80950000Y-59190000D02*
X80950000Y-63100000D01*
X80950000Y-59190000D02*
X79550000Y-59190000D01*
X79550000Y-63100000D02*
X80950000Y-63100000D01*
X79550000Y-63100000D02*
X79550000Y-59190000D01*
X79550000Y-58610000D02*
X79550000Y-54700000D01*
X79550000Y-58610000D02*
X80950000Y-58610000D01*
X80950000Y-54700000D02*
X79550000Y-54700000D01*
X80950000Y-54700000D02*
X80950000Y-58610000D01*
X110575000Y-59165000D02*
X110575000Y-63075000D01*
X110575000Y-59165000D02*
X109175000Y-59165000D01*
X109175000Y-63075000D02*
X110575000Y-63075000D01*
X109175000Y-63075000D02*
X109175000Y-59165000D01*
X109175000Y-58585000D02*
X109175000Y-54675000D01*
X109175000Y-58585000D02*
X110575000Y-58585000D01*
X110575000Y-54675000D02*
X109175000Y-54675000D01*
X110575000Y-54675000D02*
X110575000Y-58585000D01*
X69950000Y-54690000D02*
X69950000Y-58600000D01*
X69950000Y-54690000D02*
X68550000Y-54690000D01*
X68550000Y-58600000D02*
X69950000Y-58600000D01*
X68550000Y-58600000D02*
X68550000Y-54690000D01*
X68550000Y-63110000D02*
X68550000Y-59200000D01*
X68550000Y-63110000D02*
X69950000Y-63110000D01*
X69950000Y-59200000D02*
X68550000Y-59200000D01*
X69950000Y-59200000D02*
X69950000Y-63110000D01*
X70050000Y-58610000D02*
X70050000Y-54700000D01*
X70050000Y-58610000D02*
X71450000Y-58610000D01*
X71450000Y-54700000D02*
X70050000Y-54700000D01*
X71450000Y-54700000D02*
X71450000Y-58610000D01*
X71450000Y-59190000D02*
X71450000Y-63100000D01*
X71450000Y-59190000D02*
X70050000Y-59190000D01*
X70050000Y-63100000D02*
X71450000Y-63100000D01*
X70050000Y-63100000D02*
X70050000Y-59190000D01*
X99675000Y-58585000D02*
X99675000Y-54675000D01*
X99675000Y-58585000D02*
X101075000Y-58585000D01*
X101075000Y-54675000D02*
X99675000Y-54675000D01*
X101075000Y-54675000D02*
X101075000Y-58585000D01*
X101075000Y-59165000D02*
X101075000Y-63075000D01*
X101075000Y-59165000D02*
X99675000Y-59165000D01*
X99675000Y-63075000D02*
X101075000Y-63075000D01*
X99675000Y-63075000D02*
X99675000Y-59165000D01*
X96550000Y-59190000D02*
X96550000Y-63100000D01*
X96550000Y-59190000D02*
X95150000Y-59190000D01*
X95150000Y-63100000D02*
X96550000Y-63100000D01*
X95150000Y-63100000D02*
X95150000Y-59190000D01*
X95150000Y-58610000D02*
X95150000Y-54700000D01*
X95150000Y-58610000D02*
X96550000Y-58610000D01*
X96550000Y-54700000D02*
X95150000Y-54700000D01*
X96550000Y-54700000D02*
X96550000Y-58610000D01*
X85550000Y-54690000D02*
X85550000Y-58600000D01*
X85550000Y-54690000D02*
X84150000Y-54690000D01*
X84150000Y-58600000D02*
X85550000Y-58600000D01*
X84150000Y-58600000D02*
X84150000Y-54690000D01*
X84150000Y-63110000D02*
X84150000Y-59200000D01*
X84150000Y-63110000D02*
X85550000Y-63110000D01*
X85550000Y-59200000D02*
X84150000Y-59200000D01*
X85550000Y-59200000D02*
X85550000Y-63110000D01*
X85650000Y-58610000D02*
X85650000Y-54700000D01*
X85650000Y-58610000D02*
X87050000Y-58610000D01*
X87050000Y-54700000D02*
X85650000Y-54700000D01*
X87050000Y-54700000D02*
X87050000Y-58610000D01*
X87050000Y-59190000D02*
X87050000Y-63100000D01*
X87050000Y-59190000D02*
X85650000Y-59190000D01*
X85650000Y-63100000D02*
X87050000Y-63100000D01*
X85650000Y-63100000D02*
X85650000Y-59190000D01*
X96540000Y-86550000D02*
X100450000Y-86550000D01*
X96540000Y-86550000D02*
X96540000Y-87950000D01*
X100450000Y-87950000D02*
X100450000Y-86550000D01*
X100450000Y-87950000D02*
X96540000Y-87950000D01*
X110100000Y-86260000D02*
X110100000Y-82350000D01*
X110100000Y-86260000D02*
X111500000Y-86260000D01*
X111500000Y-82350000D02*
X110100000Y-82350000D01*
X111500000Y-82350000D02*
X111500000Y-86260000D01*
X118600000Y-70350000D02*
X127400000Y-70350000D01*
X118600000Y-63150000D02*
X118600000Y-70350000D01*
X127400000Y-63150000D02*
X118600000Y-63150000D01*
X127400000Y-70350000D02*
X127400000Y-63150000D01*
X68350000Y-119050000D02*
X62700000Y-119050000D01*
X68350000Y-126450000D02*
X62700000Y-126450000D01*
X68350000Y-119050000D02*
X68350000Y-126450000D01*
X62700000Y-119050000D02*
X62700000Y-126450000D01*
X62300000Y-78050000D02*
X62300000Y-61750000D01*
X62300000Y-61750000D02*
X58700000Y-61750000D01*
X58700000Y-61750000D02*
X58700000Y-78050000D01*
X58700000Y-78050000D02*
X62300000Y-78050000D01*
X71800000Y-72450000D02*
X63150000Y-72450000D01*
X63150000Y-72450000D02*
X63150000Y-78600000D01*
X63150000Y-78600000D02*
X71800000Y-78600000D01*
X71800000Y-78600000D02*
X71800000Y-72450000D01*
X77900000Y-57100000D02*
X77900000Y-60700000D01*
X73100000Y-57100000D02*
X77900000Y-57100000D01*
X73100000Y-60700000D02*
X73100000Y-57100000D01*
X77900000Y-60700000D02*
X73100000Y-60700000D01*
X107525000Y-57075000D02*
X107525000Y-60675000D01*
X102725000Y-57075000D02*
X107525000Y-57075000D01*
X102725000Y-60675000D02*
X102725000Y-57075000D01*
X107525000Y-60675000D02*
X102725000Y-60675000D01*
X93500000Y-57100000D02*
X93500000Y-60700000D01*
X88700000Y-57100000D02*
X93500000Y-57100000D01*
X88700000Y-60700000D02*
X88700000Y-57100000D01*
X93500000Y-60700000D02*
X88700000Y-60700000D01*
X51100000Y-92100000D02*
X59900000Y-92100000D01*
X51100000Y-84900000D02*
X51100000Y-92100000D01*
X59900000Y-84900000D02*
X51100000Y-84900000D01*
X59900000Y-92100000D02*
X59900000Y-84900000D01*
X63100000Y-130800000D02*
X67950000Y-130800000D01*
X67950000Y-130800000D02*
X67950000Y-127700000D01*
X67950000Y-127700000D02*
X63100000Y-127700000D01*
X63100000Y-127700000D02*
X63100000Y-130800000D01*
X63100000Y-134300000D02*
X67950000Y-134300000D01*
X67950000Y-134300000D02*
X67950000Y-131200000D01*
X67950000Y-131200000D02*
X63100000Y-131200000D01*
X63100000Y-131200000D02*
X63100000Y-134300000D01*
X87400000Y-137810000D02*
X87400000Y-126700000D01*
X87400000Y-137810000D02*
X91100000Y-137810000D01*
X91100000Y-126700000D02*
X87400000Y-126700000D01*
X91100000Y-126700000D02*
X91100000Y-137810000D01*
X103400000Y-137810000D02*
X103400000Y-126700000D01*
X103400000Y-137810000D02*
X107100000Y-137810000D01*
X107100000Y-126700000D02*
X103400000Y-126700000D01*
X107100000Y-126700000D02*
X107100000Y-137810000D01*
X95400000Y-137810000D02*
X95400000Y-126700000D01*
X95400000Y-137810000D02*
X99100000Y-137810000D01*
X99100000Y-126700000D02*
X95400000Y-126700000D01*
X99100000Y-126700000D02*
X99100000Y-137810000D01*
X107400000Y-137810000D02*
X107400000Y-126700000D01*
X107400000Y-137810000D02*
X111100000Y-137810000D01*
X111100000Y-126700000D02*
X107400000Y-126700000D01*
X111100000Y-126700000D02*
X111100000Y-137810000D01*
X99400000Y-137810000D02*
X99400000Y-126700000D01*
X99400000Y-137810000D02*
X103100000Y-137810000D01*
X103100000Y-126700000D02*
X99400000Y-126700000D01*
X103100000Y-126700000D02*
X103100000Y-137810000D01*
X91400000Y-137810000D02*
X91400000Y-126700000D01*
X91400000Y-137810000D02*
X95100000Y-137810000D01*
X95100000Y-126700000D02*
X91400000Y-126700000D01*
X95100000Y-126700000D02*
X95100000Y-137810000D01*
X74200000Y-142570000D02*
X74200000Y-141230000D01*
X71400000Y-142570000D02*
X74200000Y-142570000D01*
X71400000Y-141230000D02*
X71400000Y-142570000D01*
X74200000Y-141230000D02*
X71400000Y-141230000D01*
X74200000Y-140770000D02*
X74200000Y-139430000D01*
X71400000Y-140770000D02*
X74200000Y-140770000D01*
X71400000Y-139430000D02*
X71400000Y-140770000D01*
X74200000Y-139430000D02*
X71400000Y-139430000D01*
X77200000Y-135830000D02*
X77200000Y-137170000D01*
X80000000Y-135830000D02*
X77200000Y-135830000D01*
X80000000Y-137170000D02*
X80000000Y-135830000D01*
X77200000Y-137170000D02*
X80000000Y-137170000D01*
X72600000Y-112170000D02*
X72600000Y-110830000D01*
X69800000Y-112170000D02*
X72600000Y-112170000D01*
X69800000Y-110830000D02*
X69800000Y-112170000D01*
X72600000Y-110830000D02*
X69800000Y-110830000D01*
X58300000Y-110830000D02*
X58300000Y-112170000D01*
X61100000Y-110830000D02*
X58300000Y-110830000D01*
X61100000Y-112170000D02*
X61100000Y-110830000D01*
X58300000Y-112170000D02*
X61100000Y-112170000D01*
X74840000Y-141200000D02*
X78750000Y-141200000D01*
X74840000Y-141200000D02*
X74840000Y-142600000D01*
X78750000Y-142600000D02*
X78750000Y-141200000D01*
X78750000Y-142600000D02*
X74840000Y-142600000D01*
X74840000Y-139400000D02*
X78750000Y-139400000D01*
X74840000Y-139400000D02*
X74840000Y-140800000D01*
X78750000Y-140800000D02*
X78750000Y-139400000D01*
X78750000Y-140800000D02*
X74840000Y-140800000D01*
X76640000Y-137600000D02*
X80550000Y-137600000D01*
X76640000Y-137600000D02*
X76640000Y-139000000D01*
X80550000Y-139000000D02*
X80550000Y-137600000D01*
X80550000Y-139000000D02*
X76640000Y-139000000D01*
M02*
