G04 #@! TF.FileFunction,Copper,L1,Top,Signal*
%FSLAX46Y46*%
G04 Gerber Fmt 4.6, Leading zero omitted, Abs format (unit mm)*
G04 Created by KiCad (PCBNEW 4.0.2-stable) date 07.03.2018 18:51:45*
%MOMM*%
G01*
G04 APERTURE LIST*
%ADD10C,0.100000*%
%ADD11C,0.500000*%
%ADD12C,2.300000*%
%ADD13R,1.700000X1.700000*%
%ADD14O,1.700000X1.700000*%
%ADD15R,0.750000X1.200000*%
%ADD16R,2.500000X2.000000*%
%ADD17R,1.200000X0.750000*%
%ADD18R,2.200000X2.200000*%
%ADD19O,2.200000X2.200000*%
%ADD20R,1.800000X3.500000*%
%ADD21R,1.300000X1.500000*%
%ADD22R,1.000000X1.000000*%
%ADD23R,1.500000X0.300000*%
%ADD24R,0.300000X1.500000*%
%ADD25O,1.000000X1.000000*%
%ADD26R,1.200000X2.200000*%
%ADD27R,5.800000X6.400000*%
%ADD28R,2.750000X3.050000*%
%ADD29R,1.550000X0.600000*%
%ADD30R,1.450000X0.450000*%
%ADD31R,0.600000X2.200000*%
%ADD32R,1.500000X1.300000*%
%ADD33R,1.200000X0.900000*%
%ADD34R,0.900000X1.200000*%
%ADD35R,2.000000X3.800000*%
%ADD36R,2.000000X1.500000*%
%ADD37R,0.410000X1.600000*%
%ADD38R,1.560000X0.650000*%
%ADD39R,3.200000X2.700000*%
%ADD40R,0.600000X0.800000*%
%ADD41C,1.750000*%
%ADD42C,2.000000*%
%ADD43C,1.000000*%
%ADD44C,0.600000*%
%ADD45C,1.400000*%
%ADD46C,0.400000*%
%ADD47C,0.250000*%
%ADD48C,1.000000*%
%ADD49C,0.600000*%
%ADD50C,1.500000*%
%ADD51C,2.000000*%
%ADD52C,0.350000*%
%ADD53C,0.254000*%
G04 APERTURE END LIST*
D10*
D11*
X55242857Y-102585712D02*
X55242857Y-103728569D01*
X52242857Y-103157141D02*
X55242857Y-103157141D01*
X52242857Y-104395236D02*
X55242857Y-104395236D01*
X52242857Y-105252379D02*
X53814286Y-105252379D01*
X54100000Y-105157141D01*
X54242857Y-104966665D01*
X54242857Y-104680951D01*
X54100000Y-104490475D01*
X53957143Y-104395236D01*
X54242857Y-107061903D02*
X52242857Y-107061903D01*
X54242857Y-106204760D02*
X52671429Y-106204760D01*
X52385714Y-106299999D01*
X52242857Y-106490475D01*
X52242857Y-106776189D01*
X52385714Y-106966665D01*
X52528571Y-107061903D01*
X54242857Y-108014284D02*
X52242857Y-108014284D01*
X53957143Y-108014284D02*
X54100000Y-108109523D01*
X54242857Y-108299999D01*
X54242857Y-108585713D01*
X54100000Y-108776189D01*
X53814286Y-108871427D01*
X52242857Y-108871427D01*
X52242857Y-110680951D02*
X55242857Y-110680951D01*
X52385714Y-110680951D02*
X52242857Y-110490475D01*
X52242857Y-110109523D01*
X52385714Y-109919047D01*
X52528571Y-109823808D01*
X52814286Y-109728570D01*
X53671429Y-109728570D01*
X53957143Y-109823808D01*
X54100000Y-109919047D01*
X54242857Y-110109523D01*
X54242857Y-110490475D01*
X54100000Y-110680951D01*
X52385714Y-112395237D02*
X52242857Y-112204761D01*
X52242857Y-111823809D01*
X52385714Y-111633332D01*
X52671429Y-111538094D01*
X53814286Y-111538094D01*
X54100000Y-111633332D01*
X54242857Y-111823809D01*
X54242857Y-112204761D01*
X54100000Y-112395237D01*
X53814286Y-112490475D01*
X53528571Y-112490475D01*
X53242857Y-111538094D01*
X52242857Y-113347618D02*
X54242857Y-113347618D01*
X53671429Y-113347618D02*
X53957143Y-113442857D01*
X54100000Y-113538095D01*
X54242857Y-113728571D01*
X54242857Y-113919047D01*
X52385714Y-114490475D02*
X52242857Y-114776190D01*
X52242857Y-115252380D01*
X52385714Y-115442856D01*
X52528571Y-115538094D01*
X52814286Y-115633333D01*
X53100000Y-115633333D01*
X53385714Y-115538094D01*
X53528571Y-115442856D01*
X53671429Y-115252380D01*
X53814286Y-114871428D01*
X53957143Y-114680952D01*
X54100000Y-114585713D01*
X54385714Y-114490475D01*
X54671429Y-114490475D01*
X54957143Y-114585713D01*
X55100000Y-114680952D01*
X55242857Y-114871428D01*
X55242857Y-115347618D01*
X55100000Y-115633333D01*
X54242857Y-116204761D02*
X54242857Y-116966666D01*
X55242857Y-116490475D02*
X52671429Y-116490475D01*
X52385714Y-116585714D01*
X52242857Y-116776190D01*
X52242857Y-116966666D01*
X52242857Y-117919047D02*
X52385714Y-117728571D01*
X52528571Y-117633332D01*
X52814286Y-117538094D01*
X53671429Y-117538094D01*
X53957143Y-117633332D01*
X54100000Y-117728571D01*
X54242857Y-117919047D01*
X54242857Y-118204761D01*
X54100000Y-118395237D01*
X53957143Y-118490475D01*
X53671429Y-118585713D01*
X52814286Y-118585713D01*
X52528571Y-118490475D01*
X52385714Y-118395237D01*
X52242857Y-118204761D01*
X52242857Y-117919047D01*
X52242857Y-119442856D02*
X54242857Y-119442856D01*
X53671429Y-119442856D02*
X53957143Y-119538095D01*
X54100000Y-119633333D01*
X54242857Y-119823809D01*
X54242857Y-120014285D01*
X52242857Y-120680951D02*
X54242857Y-120680951D01*
X53957143Y-120680951D02*
X54100000Y-120776190D01*
X54242857Y-120966666D01*
X54242857Y-121252380D01*
X54100000Y-121442856D01*
X53814286Y-121538094D01*
X52242857Y-121538094D01*
X53814286Y-121538094D02*
X54100000Y-121633332D01*
X54242857Y-121823809D01*
X54242857Y-122109523D01*
X54100000Y-122299999D01*
X53814286Y-122395237D01*
X52242857Y-122395237D01*
X53814286Y-124871428D02*
X53814286Y-125538095D01*
X52242857Y-125823809D02*
X52242857Y-124871428D01*
X55242857Y-124871428D01*
X55242857Y-125823809D01*
X54242857Y-126680952D02*
X52242857Y-126680952D01*
X53957143Y-126680952D02*
X54100000Y-126776191D01*
X54242857Y-126966667D01*
X54242857Y-127252381D01*
X54100000Y-127442857D01*
X53814286Y-127538095D01*
X52242857Y-127538095D01*
X54242857Y-129347619D02*
X51814286Y-129347619D01*
X51528571Y-129252381D01*
X51385714Y-129157143D01*
X51242857Y-128966667D01*
X51242857Y-128680953D01*
X51385714Y-128490476D01*
X52385714Y-129347619D02*
X52242857Y-129157143D01*
X52242857Y-128776191D01*
X52385714Y-128585715D01*
X52528571Y-128490476D01*
X52814286Y-128395238D01*
X53671429Y-128395238D01*
X53957143Y-128490476D01*
X54100000Y-128585715D01*
X54242857Y-128776191D01*
X54242857Y-129157143D01*
X54100000Y-129347619D01*
X52242857Y-130300000D02*
X54242857Y-130300000D01*
X55242857Y-130300000D02*
X55100000Y-130204762D01*
X54957143Y-130300000D01*
X55100000Y-130395239D01*
X55242857Y-130300000D01*
X54957143Y-130300000D01*
X54242857Y-131252381D02*
X52242857Y-131252381D01*
X53957143Y-131252381D02*
X54100000Y-131347620D01*
X54242857Y-131538096D01*
X54242857Y-131823810D01*
X54100000Y-132014286D01*
X53814286Y-132109524D01*
X52242857Y-132109524D01*
X52385714Y-133823810D02*
X52242857Y-133633334D01*
X52242857Y-133252382D01*
X52385714Y-133061905D01*
X52671429Y-132966667D01*
X53814286Y-132966667D01*
X54100000Y-133061905D01*
X54242857Y-133252382D01*
X54242857Y-133633334D01*
X54100000Y-133823810D01*
X53814286Y-133919048D01*
X53528571Y-133919048D01*
X53242857Y-132966667D01*
X52528571Y-137442859D02*
X52385714Y-137347621D01*
X52242857Y-137061906D01*
X52242857Y-136871430D01*
X52385714Y-136585716D01*
X52671429Y-136395240D01*
X52957143Y-136300001D01*
X53528571Y-136204763D01*
X53957143Y-136204763D01*
X54528571Y-136300001D01*
X54814286Y-136395240D01*
X55100000Y-136585716D01*
X55242857Y-136871430D01*
X55242857Y-137061906D01*
X55100000Y-137347621D01*
X54957143Y-137442859D01*
X52242857Y-138585716D02*
X52385714Y-138395240D01*
X52528571Y-138300001D01*
X52814286Y-138204763D01*
X53671429Y-138204763D01*
X53957143Y-138300001D01*
X54100000Y-138395240D01*
X54242857Y-138585716D01*
X54242857Y-138871430D01*
X54100000Y-139061906D01*
X53957143Y-139157144D01*
X53671429Y-139252382D01*
X52814286Y-139252382D01*
X52528571Y-139157144D01*
X52385714Y-139061906D01*
X52242857Y-138871430D01*
X52242857Y-138585716D01*
X54242857Y-140109525D02*
X52242857Y-140109525D01*
X53957143Y-140109525D02*
X54100000Y-140204764D01*
X54242857Y-140395240D01*
X54242857Y-140680954D01*
X54100000Y-140871430D01*
X53814286Y-140966668D01*
X52242857Y-140966668D01*
X54242857Y-141633335D02*
X54242857Y-142395240D01*
X55242857Y-141919049D02*
X52671429Y-141919049D01*
X52385714Y-142014288D01*
X52242857Y-142204764D01*
X52242857Y-142395240D01*
X52242857Y-143061906D02*
X54242857Y-143061906D01*
X53671429Y-143061906D02*
X53957143Y-143157145D01*
X54100000Y-143252383D01*
X54242857Y-143442859D01*
X54242857Y-143633335D01*
X52242857Y-144585716D02*
X52385714Y-144395240D01*
X52528571Y-144300001D01*
X52814286Y-144204763D01*
X53671429Y-144204763D01*
X53957143Y-144300001D01*
X54100000Y-144395240D01*
X54242857Y-144585716D01*
X54242857Y-144871430D01*
X54100000Y-145061906D01*
X53957143Y-145157144D01*
X53671429Y-145252382D01*
X52814286Y-145252382D01*
X52528571Y-145157144D01*
X52385714Y-145061906D01*
X52242857Y-144871430D01*
X52242857Y-144585716D01*
X52242857Y-146395240D02*
X52385714Y-146204764D01*
X52671429Y-146109525D01*
X55242857Y-146109525D01*
X55242857Y-148680954D02*
X52814286Y-148680954D01*
X52528571Y-148776193D01*
X52385714Y-148871431D01*
X52242857Y-149061907D01*
X52242857Y-149442859D01*
X52385714Y-149633335D01*
X52528571Y-149728574D01*
X52814286Y-149823812D01*
X55242857Y-149823812D01*
X54242857Y-150776192D02*
X52242857Y-150776192D01*
X53957143Y-150776192D02*
X54100000Y-150871431D01*
X54242857Y-151061907D01*
X54242857Y-151347621D01*
X54100000Y-151538097D01*
X53814286Y-151633335D01*
X52242857Y-151633335D01*
X52242857Y-152585716D02*
X54242857Y-152585716D01*
X55242857Y-152585716D02*
X55100000Y-152490478D01*
X54957143Y-152585716D01*
X55100000Y-152680955D01*
X55242857Y-152585716D01*
X54957143Y-152585716D01*
X54242857Y-153252383D02*
X54242857Y-154014288D01*
X55242857Y-153538097D02*
X52671429Y-153538097D01*
X52385714Y-153633336D01*
X52242857Y-153823812D01*
X52242857Y-154014288D01*
D12*
X64420000Y-111500000D03*
X66960000Y-111500000D03*
X61880000Y-81500000D03*
X64420000Y-81500000D03*
X66960000Y-81500000D03*
X69500000Y-81500000D03*
D13*
X61750000Y-90250000D03*
D14*
X61750000Y-92790000D03*
X61750000Y-95330000D03*
X61750000Y-97870000D03*
X61750000Y-100410000D03*
X61750000Y-102950000D03*
D15*
X96750000Y-113950000D03*
X96750000Y-112050000D03*
X94000000Y-116800000D03*
X94000000Y-118700000D03*
X102000000Y-113950000D03*
X102000000Y-112050000D03*
X88750000Y-116800000D03*
X88750000Y-118700000D03*
X94000000Y-97800000D03*
X94000000Y-99700000D03*
X96750000Y-104450000D03*
X96750000Y-102550000D03*
X88750000Y-97800000D03*
X88750000Y-99700000D03*
X102000000Y-104450000D03*
X102000000Y-102550000D03*
X96750000Y-123450000D03*
X96750000Y-121550000D03*
X94000000Y-107300000D03*
X94000000Y-109200000D03*
X102000000Y-123450000D03*
X102000000Y-121550000D03*
X88750000Y-107300000D03*
X88750000Y-109200000D03*
D16*
X133500000Y-78750000D03*
X133500000Y-74750000D03*
D15*
X137000000Y-78450000D03*
X137000000Y-76550000D03*
X130000000Y-67550000D03*
X130000000Y-69450000D03*
D16*
X133500000Y-67250000D03*
X133500000Y-71250000D03*
D17*
X70300000Y-136250000D03*
X72200000Y-136250000D03*
X60700000Y-136250000D03*
X58800000Y-136250000D03*
X70300000Y-138000000D03*
X72200000Y-138000000D03*
X60700000Y-138000000D03*
X58800000Y-138000000D03*
X70300000Y-122750000D03*
X72200000Y-122750000D03*
X72200000Y-124500000D03*
X70300000Y-124500000D03*
X58800000Y-124500000D03*
X60700000Y-124500000D03*
X70300000Y-121000000D03*
X72200000Y-121000000D03*
X57700000Y-95750000D03*
X55800000Y-95750000D03*
X57700000Y-97500000D03*
X55800000Y-97500000D03*
X55800000Y-99250000D03*
X57700000Y-99250000D03*
X55800000Y-101000000D03*
X57700000Y-101000000D03*
D15*
X73000000Y-80450000D03*
X73000000Y-78550000D03*
X118000000Y-75450000D03*
X118000000Y-73550000D03*
X117750000Y-69550000D03*
X117750000Y-71450000D03*
X53750000Y-79800000D03*
X53750000Y-81700000D03*
X81750000Y-62100000D03*
X81750000Y-60200000D03*
X81750000Y-55700000D03*
X81750000Y-57600000D03*
X111375000Y-62075000D03*
X111375000Y-60175000D03*
X111375000Y-55675000D03*
X111375000Y-57575000D03*
X78750000Y-60200000D03*
X78750000Y-62100000D03*
X78750000Y-57600000D03*
X78750000Y-55700000D03*
X108375000Y-60175000D03*
X108375000Y-62075000D03*
X108375000Y-57575000D03*
X108375000Y-55675000D03*
X67750000Y-55700000D03*
X67750000Y-57600000D03*
X67750000Y-62100000D03*
X67750000Y-60200000D03*
X98875000Y-55675000D03*
X98875000Y-57575000D03*
X98875000Y-62075000D03*
X98875000Y-60175000D03*
X72250000Y-57600000D03*
X72250000Y-55700000D03*
X72250000Y-60200000D03*
X72250000Y-62100000D03*
X101875000Y-57575000D03*
X101875000Y-55675000D03*
X101875000Y-60175000D03*
X101875000Y-62075000D03*
X97350000Y-62100000D03*
X97350000Y-60200000D03*
X97350000Y-55700000D03*
X97350000Y-57600000D03*
X94350000Y-60200000D03*
X94350000Y-62100000D03*
X94350000Y-57600000D03*
X94350000Y-55700000D03*
X83350000Y-55700000D03*
X83350000Y-57600000D03*
X83350000Y-62100000D03*
X83350000Y-60200000D03*
X87850000Y-57600000D03*
X87850000Y-55700000D03*
X87850000Y-60200000D03*
X87850000Y-62100000D03*
D17*
X88700000Y-69000000D03*
X86800000Y-69000000D03*
D15*
X87250000Y-73800000D03*
X87250000Y-75700000D03*
D17*
X93550000Y-87250000D03*
X95450000Y-87250000D03*
D15*
X110750000Y-77700000D03*
X110750000Y-75800000D03*
X110750000Y-66800000D03*
X110750000Y-68700000D03*
D17*
X88700000Y-67500000D03*
X86800000Y-67500000D03*
D18*
X122500000Y-79750000D03*
D19*
X122500000Y-72130000D03*
D20*
X128750000Y-73500000D03*
X128750000Y-78500000D03*
X138250000Y-67500000D03*
X138250000Y-72500000D03*
D21*
X129750000Y-56650000D03*
X129750000Y-59350000D03*
X124500000Y-56650000D03*
X124500000Y-59350000D03*
X119250000Y-56650000D03*
X119250000Y-59350000D03*
D22*
X57750000Y-82000000D03*
X57750000Y-79500000D03*
D23*
X91300000Y-70000000D03*
X91300000Y-70500000D03*
X91300000Y-71000000D03*
X91300000Y-71500000D03*
X91300000Y-72000000D03*
X91300000Y-72500000D03*
X91300000Y-73000000D03*
X91300000Y-73500000D03*
X91300000Y-74000000D03*
X91300000Y-74500000D03*
X91300000Y-75000000D03*
X91300000Y-75500000D03*
X91300000Y-76000000D03*
X91300000Y-76500000D03*
X91300000Y-77000000D03*
X91300000Y-77500000D03*
X91300000Y-78000000D03*
X91300000Y-78500000D03*
X91300000Y-79000000D03*
X91300000Y-79500000D03*
X91300000Y-80000000D03*
X91300000Y-80500000D03*
X91300000Y-81000000D03*
X91300000Y-81500000D03*
X91300000Y-82000000D03*
D24*
X93000000Y-83700000D03*
X93500000Y-83700000D03*
X94000000Y-83700000D03*
X94500000Y-83700000D03*
X95000000Y-83700000D03*
X95500000Y-83700000D03*
X96000000Y-83700000D03*
X96500000Y-83700000D03*
X97000000Y-83700000D03*
X97500000Y-83700000D03*
X98000000Y-83700000D03*
X98500000Y-83700000D03*
X99000000Y-83700000D03*
X99500000Y-83700000D03*
X100000000Y-83700000D03*
X100500000Y-83700000D03*
X101000000Y-83700000D03*
X101500000Y-83700000D03*
X102000000Y-83700000D03*
X102500000Y-83700000D03*
X103000000Y-83700000D03*
X103500000Y-83700000D03*
X104000000Y-83700000D03*
X104500000Y-83700000D03*
X105000000Y-83700000D03*
D23*
X106700000Y-82000000D03*
X106700000Y-81500000D03*
X106700000Y-81000000D03*
X106700000Y-80500000D03*
X106700000Y-80000000D03*
X106700000Y-79500000D03*
X106700000Y-79000000D03*
X106700000Y-78500000D03*
X106700000Y-78000000D03*
X106700000Y-77500000D03*
X106700000Y-77000000D03*
X106700000Y-76500000D03*
X106700000Y-76000000D03*
X106700000Y-75500000D03*
X106700000Y-75000000D03*
X106700000Y-74500000D03*
X106700000Y-74000000D03*
X106700000Y-73500000D03*
X106700000Y-73000000D03*
X106700000Y-72500000D03*
X106700000Y-72000000D03*
X106700000Y-71500000D03*
X106700000Y-71000000D03*
X106700000Y-70500000D03*
X106700000Y-70000000D03*
D24*
X105000000Y-68300000D03*
X104500000Y-68300000D03*
X104000000Y-68300000D03*
X103500000Y-68300000D03*
X103000000Y-68300000D03*
X102500000Y-68300000D03*
X102000000Y-68300000D03*
X101500000Y-68300000D03*
X101000000Y-68300000D03*
X100500000Y-68300000D03*
X100000000Y-68300000D03*
X99500000Y-68300000D03*
X99000000Y-68300000D03*
X98500000Y-68300000D03*
X98000000Y-68300000D03*
X97500000Y-68300000D03*
X97000000Y-68300000D03*
X96500000Y-68300000D03*
X96000000Y-68300000D03*
X95500000Y-68300000D03*
X95000000Y-68300000D03*
X94500000Y-68300000D03*
X94000000Y-68300000D03*
X93500000Y-68300000D03*
X93000000Y-68300000D03*
D22*
X64750000Y-69250000D03*
D25*
X64750000Y-70520000D03*
D22*
X67750000Y-69250000D03*
D25*
X67750000Y-70520000D03*
D22*
X71750000Y-129250000D03*
D25*
X70480000Y-129250000D03*
D22*
X59250000Y-129250000D03*
D25*
X60520000Y-129250000D03*
D22*
X70500000Y-118500000D03*
D25*
X71770000Y-118500000D03*
D22*
X60500000Y-118500000D03*
D25*
X59230000Y-118500000D03*
D22*
X101000000Y-95250000D03*
D25*
X99730000Y-95250000D03*
X98460000Y-95250000D03*
D26*
X121030000Y-129800000D03*
X116470000Y-129800000D03*
D27*
X118750000Y-136100000D03*
D28*
X117225000Y-137775000D03*
X120275000Y-134425000D03*
X120275000Y-137775000D03*
X117225000Y-134425000D03*
D26*
X130030000Y-129800000D03*
X125470000Y-129800000D03*
D27*
X127750000Y-136100000D03*
D28*
X126225000Y-137775000D03*
X129275000Y-134425000D03*
X129275000Y-137775000D03*
X126225000Y-134425000D03*
D26*
X121030000Y-113050000D03*
X116470000Y-113050000D03*
D27*
X118750000Y-119350000D03*
D28*
X117225000Y-121025000D03*
X120275000Y-117675000D03*
X120275000Y-121025000D03*
X117225000Y-117675000D03*
D26*
X139030000Y-129800000D03*
X134470000Y-129800000D03*
D27*
X136750000Y-136100000D03*
D28*
X135225000Y-137775000D03*
X138275000Y-134425000D03*
X138275000Y-137775000D03*
X135225000Y-134425000D03*
D29*
X133050000Y-84095000D03*
X133050000Y-85365000D03*
X133050000Y-86635000D03*
X133050000Y-87905000D03*
X138450000Y-87905000D03*
X138450000Y-86635000D03*
X138450000Y-85365000D03*
X138450000Y-84095000D03*
D26*
X139030000Y-113050000D03*
X134470000Y-113050000D03*
D27*
X136750000Y-119350000D03*
D28*
X135225000Y-121025000D03*
X138275000Y-117675000D03*
X138275000Y-121025000D03*
X135225000Y-117675000D03*
D26*
X130030000Y-113050000D03*
X125470000Y-113050000D03*
D27*
X127750000Y-119350000D03*
D28*
X126225000Y-121025000D03*
X129275000Y-117675000D03*
X129275000Y-121025000D03*
X126225000Y-117675000D03*
D26*
X112030000Y-96300000D03*
X107470000Y-96300000D03*
D27*
X109750000Y-102600000D03*
D28*
X108225000Y-104275000D03*
X111275000Y-100925000D03*
X111275000Y-104275000D03*
X108225000Y-100925000D03*
D26*
X130030000Y-96300000D03*
X125470000Y-96300000D03*
D27*
X127750000Y-102600000D03*
D28*
X126225000Y-104275000D03*
X129275000Y-100925000D03*
X129275000Y-104275000D03*
X126225000Y-100925000D03*
D26*
X139030000Y-96300000D03*
X134470000Y-96300000D03*
D27*
X136750000Y-102600000D03*
D28*
X135225000Y-104275000D03*
X138275000Y-100925000D03*
X138275000Y-104275000D03*
X135225000Y-100925000D03*
D26*
X112030000Y-113050000D03*
X107470000Y-113050000D03*
D27*
X109750000Y-119350000D03*
D28*
X108225000Y-121025000D03*
X111275000Y-117675000D03*
X111275000Y-121025000D03*
X108225000Y-117675000D03*
D26*
X121030000Y-96300000D03*
X116470000Y-96300000D03*
D27*
X118750000Y-102600000D03*
D28*
X117225000Y-104275000D03*
X120275000Y-100925000D03*
X120275000Y-104275000D03*
X117225000Y-100925000D03*
D30*
X97050000Y-107275000D03*
X97050000Y-107925000D03*
X97050000Y-108575000D03*
X97050000Y-109225000D03*
X101450000Y-109225000D03*
X101450000Y-108575000D03*
X101450000Y-107925000D03*
X101450000Y-107275000D03*
X93700000Y-123475000D03*
X93700000Y-122825000D03*
X93700000Y-122175000D03*
X93700000Y-121525000D03*
X89300000Y-121525000D03*
X89300000Y-122175000D03*
X89300000Y-122825000D03*
X89300000Y-123475000D03*
X93700000Y-104475000D03*
X93700000Y-103825000D03*
X93700000Y-103175000D03*
X93700000Y-102525000D03*
X89300000Y-102525000D03*
X89300000Y-103175000D03*
X89300000Y-103825000D03*
X89300000Y-104475000D03*
X97050000Y-97775000D03*
X97050000Y-98425000D03*
X97050000Y-99075000D03*
X97050000Y-99725000D03*
X101450000Y-99725000D03*
X101450000Y-99075000D03*
X101450000Y-98425000D03*
X101450000Y-97775000D03*
X97050000Y-116775000D03*
X97050000Y-117425000D03*
X97050000Y-118075000D03*
X97050000Y-118725000D03*
X101450000Y-118725000D03*
X101450000Y-118075000D03*
X101450000Y-117425000D03*
X101450000Y-116775000D03*
X93700000Y-113975000D03*
X93700000Y-113325000D03*
X93700000Y-112675000D03*
X93700000Y-112025000D03*
X89300000Y-112025000D03*
X89300000Y-112675000D03*
X89300000Y-113325000D03*
X89300000Y-113975000D03*
D31*
X98500000Y-89500000D03*
X99700000Y-89500000D03*
X97300000Y-89500000D03*
D32*
X119100000Y-125250000D03*
X116400000Y-125250000D03*
D33*
X118600000Y-127000000D03*
X116400000Y-127000000D03*
D32*
X128100000Y-125250000D03*
X125400000Y-125250000D03*
D33*
X127600000Y-127000000D03*
X125400000Y-127000000D03*
D32*
X119100000Y-108500000D03*
X116400000Y-108500000D03*
D33*
X118600000Y-110250000D03*
X116400000Y-110250000D03*
D32*
X137100000Y-125250000D03*
X134400000Y-125250000D03*
D33*
X136600000Y-127000000D03*
X134400000Y-127000000D03*
X130350000Y-85250000D03*
X128150000Y-85250000D03*
X130350000Y-83750000D03*
X128150000Y-83750000D03*
X130350000Y-88250000D03*
X128150000Y-88250000D03*
X130350000Y-86750000D03*
X128150000Y-86750000D03*
D32*
X137100000Y-108500000D03*
X134400000Y-108500000D03*
D33*
X136600000Y-110250000D03*
X134400000Y-110250000D03*
D32*
X128100000Y-108500000D03*
X125400000Y-108500000D03*
D33*
X127600000Y-110250000D03*
X125400000Y-110250000D03*
D32*
X110100000Y-91750000D03*
X107400000Y-91750000D03*
D33*
X109600000Y-93500000D03*
X107400000Y-93500000D03*
D32*
X128100000Y-91750000D03*
X125400000Y-91750000D03*
D33*
X127600000Y-93500000D03*
X125400000Y-93500000D03*
D32*
X137100000Y-91750000D03*
X134400000Y-91750000D03*
D33*
X136600000Y-93500000D03*
X134400000Y-93500000D03*
D32*
X110100000Y-108500000D03*
X107400000Y-108500000D03*
D33*
X109600000Y-110250000D03*
X107400000Y-110250000D03*
D32*
X119100000Y-91750000D03*
X116400000Y-91750000D03*
D33*
X118600000Y-93500000D03*
X116400000Y-93500000D03*
D34*
X100250000Y-111900000D03*
X100250000Y-114100000D03*
X98500000Y-114100000D03*
X98500000Y-111900000D03*
X90500000Y-118850000D03*
X90500000Y-116650000D03*
X92250000Y-116650000D03*
X92250000Y-118850000D03*
X90500000Y-99850000D03*
X90500000Y-97650000D03*
X92250000Y-97650000D03*
X92250000Y-99850000D03*
X100250000Y-102400000D03*
X100250000Y-104600000D03*
X98500000Y-104600000D03*
X98500000Y-102400000D03*
X100250000Y-121400000D03*
X100250000Y-123600000D03*
X98500000Y-123600000D03*
X98500000Y-121400000D03*
X90500000Y-109350000D03*
X90500000Y-107150000D03*
X92250000Y-107150000D03*
X92250000Y-109350000D03*
X127750000Y-59100000D03*
X127750000Y-56900000D03*
X122500000Y-59100000D03*
X122500000Y-56900000D03*
X117250000Y-59100000D03*
X117250000Y-56900000D03*
D32*
X72600000Y-132000000D03*
X69900000Y-132000000D03*
X58400000Y-132000000D03*
X61100000Y-132000000D03*
X72600000Y-134250000D03*
X69900000Y-134250000D03*
X72600000Y-126500000D03*
X69900000Y-126500000D03*
X58400000Y-134250000D03*
X61100000Y-134250000D03*
X58400000Y-126500000D03*
X61100000Y-126500000D03*
X72600000Y-113500000D03*
X69900000Y-113500000D03*
X58400000Y-113500000D03*
X61100000Y-113500000D03*
X69900000Y-115750000D03*
X72600000Y-115750000D03*
X61100000Y-115750000D03*
X58400000Y-115750000D03*
D33*
X55650000Y-94000000D03*
X57850000Y-94000000D03*
D34*
X76250000Y-80600000D03*
X76250000Y-78400000D03*
X74500000Y-80600000D03*
X74500000Y-78400000D03*
D33*
X64150000Y-65250000D03*
X66350000Y-65250000D03*
X64150000Y-67000000D03*
X66350000Y-67000000D03*
D34*
X119500000Y-79850000D03*
X119500000Y-77650000D03*
X119500000Y-75600000D03*
X119500000Y-73400000D03*
X116250000Y-69400000D03*
X116250000Y-71600000D03*
X55500000Y-81850000D03*
X55500000Y-79650000D03*
X80250000Y-60050000D03*
X80250000Y-62250000D03*
X80250000Y-57750000D03*
X80250000Y-55550000D03*
X109875000Y-60025000D03*
X109875000Y-62225000D03*
X109875000Y-57725000D03*
X109875000Y-55525000D03*
X69250000Y-55550000D03*
X69250000Y-57750000D03*
X69250000Y-62250000D03*
X69250000Y-60050000D03*
X70750000Y-57750000D03*
X70750000Y-55550000D03*
X70750000Y-60050000D03*
X70750000Y-62250000D03*
X100375000Y-57725000D03*
X100375000Y-55525000D03*
X100375000Y-60025000D03*
X100375000Y-62225000D03*
X95850000Y-60050000D03*
X95850000Y-62250000D03*
X95850000Y-57750000D03*
X95850000Y-55550000D03*
X84850000Y-55550000D03*
X84850000Y-57750000D03*
X84850000Y-62250000D03*
X84850000Y-60050000D03*
X86350000Y-57750000D03*
X86350000Y-55550000D03*
X86350000Y-60050000D03*
X86350000Y-62250000D03*
D33*
X97400000Y-87250000D03*
X99600000Y-87250000D03*
D34*
X110800000Y-85400000D03*
X110800000Y-83200000D03*
D35*
X119850000Y-66750000D03*
D36*
X126150000Y-66750000D03*
X126150000Y-64450000D03*
X126150000Y-69050000D03*
D37*
X67722500Y-120095700D03*
X67087500Y-120095700D03*
X66452500Y-120095700D03*
X65817500Y-120095700D03*
X65182500Y-120095700D03*
X64547500Y-120095700D03*
X63912500Y-120095700D03*
X63277500Y-120095700D03*
X63277500Y-125404300D03*
X63912500Y-125404300D03*
X64547500Y-125404300D03*
X65182500Y-125404300D03*
X65817500Y-125404300D03*
X66452500Y-125404300D03*
X67087500Y-125404300D03*
X67722500Y-125404300D03*
D13*
X60500000Y-76250000D03*
D14*
X60500000Y-73710000D03*
X60500000Y-71170000D03*
X60500000Y-68630000D03*
X60500000Y-66090000D03*
X60500000Y-63550000D03*
D13*
X70000000Y-74250000D03*
D14*
X70000000Y-76790000D03*
X67460000Y-74250000D03*
X67460000Y-76790000D03*
X64920000Y-74250000D03*
X64920000Y-76790000D03*
D38*
X76850000Y-59850000D03*
X76850000Y-58900000D03*
X76850000Y-57950000D03*
X74150000Y-57950000D03*
X74150000Y-59850000D03*
X74150000Y-58900000D03*
X106475000Y-59825000D03*
X106475000Y-58875000D03*
X106475000Y-57925000D03*
X103775000Y-57925000D03*
X103775000Y-59825000D03*
X103775000Y-58875000D03*
X92450000Y-59850000D03*
X92450000Y-58900000D03*
X92450000Y-57950000D03*
X89750000Y-57950000D03*
X89750000Y-59850000D03*
X89750000Y-58900000D03*
D35*
X52350000Y-88500000D03*
D36*
X58650000Y-88500000D03*
X58650000Y-86200000D03*
X58650000Y-90800000D03*
D22*
X64250000Y-129250000D03*
D25*
X65520000Y-129250000D03*
X66790000Y-129250000D03*
D22*
X64250000Y-132750000D03*
D25*
X65520000Y-132750000D03*
X66790000Y-132750000D03*
D39*
X89250000Y-136200000D03*
X89250000Y-128300000D03*
X105250000Y-136200000D03*
X105250000Y-128300000D03*
X97250000Y-136200000D03*
X97250000Y-128300000D03*
X109250000Y-136200000D03*
X109250000Y-128300000D03*
X101250000Y-136200000D03*
X101250000Y-128300000D03*
X93250000Y-136200000D03*
X93250000Y-128300000D03*
D40*
X71950000Y-141900000D03*
X73650000Y-141900000D03*
X71950000Y-140100000D03*
X73650000Y-140100000D03*
X79450000Y-136500000D03*
X77750000Y-136500000D03*
X70350000Y-111500000D03*
X72050000Y-111500000D03*
X60550000Y-111500000D03*
X58850000Y-111500000D03*
D33*
X75700000Y-141900000D03*
X77900000Y-141900000D03*
X75700000Y-140100000D03*
X77900000Y-140100000D03*
X77500000Y-138300000D03*
X79700000Y-138300000D03*
D41*
X81460000Y-145360000D03*
D42*
X107520000Y-145360000D03*
X107520000Y-147900000D03*
X107520000Y-150440000D03*
X107520000Y-152980000D03*
X111020000Y-145360000D03*
X111020000Y-147900000D03*
X111020000Y-150440000D03*
X111020000Y-152980000D03*
D41*
X84000000Y-145360000D03*
X86540000Y-145360000D03*
X89080000Y-145360000D03*
X91620000Y-145360000D03*
X94160000Y-145360000D03*
X96700000Y-145360000D03*
X99240000Y-145360000D03*
X101780000Y-145360000D03*
X104320000Y-145360000D03*
X81460000Y-147900000D03*
X84000000Y-147900000D03*
X86540000Y-147900000D03*
X89080000Y-147900000D03*
X91620000Y-147900000D03*
X94160000Y-147900000D03*
X96700000Y-147900000D03*
X99240000Y-147900000D03*
X101780000Y-147900000D03*
X104320000Y-147900000D03*
X81460000Y-150440000D03*
X84000000Y-150440000D03*
X86540000Y-150440000D03*
X89080000Y-150440000D03*
X91620000Y-150440000D03*
X94160000Y-150440000D03*
X96700000Y-150440000D03*
X99240000Y-150440000D03*
X101780000Y-150440000D03*
X104320000Y-150440000D03*
X81460000Y-152980000D03*
X84000000Y-152980000D03*
X86540000Y-152980000D03*
X89080000Y-152980000D03*
X91620000Y-152980000D03*
X94160000Y-152980000D03*
X96700000Y-152980000D03*
X99240000Y-152980000D03*
X101780000Y-152980000D03*
X104320000Y-152980000D03*
D43*
X130200000Y-63800000D03*
D44*
X101000000Y-122500000D03*
X97600000Y-122500000D03*
X93100000Y-117700000D03*
X88750000Y-115400000D03*
X102000000Y-115500000D03*
X97600000Y-113000000D03*
X88750000Y-105800000D03*
X93100000Y-108200000D03*
X97500000Y-103600000D03*
X102000000Y-105600000D03*
X93100000Y-98700000D03*
X89600000Y-98800000D03*
X94900000Y-124000000D03*
X90500000Y-124100000D03*
X99300000Y-116775000D03*
X91600000Y-113975000D03*
X99400000Y-107275000D03*
X91500000Y-104475000D03*
X99250000Y-97775000D03*
X72600000Y-121900000D03*
X55425000Y-96650000D03*
X58075000Y-100175000D03*
X101350000Y-62650000D03*
X107600000Y-62500000D03*
X105000000Y-76700000D03*
X85750000Y-69500000D03*
X88000000Y-75750000D03*
D45*
X136400000Y-86600000D03*
X56700000Y-87275000D03*
X126900000Y-85925000D03*
D44*
X125650000Y-55800000D03*
X67050000Y-66000000D03*
X53750000Y-82675000D03*
X65150000Y-123975000D03*
X65500000Y-121600000D03*
X57925000Y-137150000D03*
X72950000Y-137125000D03*
X67750000Y-58875000D03*
X73325000Y-55700000D03*
X77675000Y-55700000D03*
X81750000Y-58875000D03*
X83350000Y-58875000D03*
X88950000Y-55675000D03*
X93250000Y-55700000D03*
X98850000Y-58900000D03*
X97350000Y-58900000D03*
X103100000Y-55675000D03*
X107375000Y-55675000D03*
X110800000Y-58875000D03*
X102000000Y-120100000D03*
X96750000Y-120100000D03*
X94000000Y-120100000D03*
X88750000Y-120100000D03*
X102000000Y-110600000D03*
X96750000Y-110600000D03*
X94000000Y-110600000D03*
X88750000Y-110600000D03*
X102000000Y-101200000D03*
X97050000Y-101200000D03*
X94000000Y-101200000D03*
X88750000Y-101200000D03*
D43*
X123200000Y-66800000D03*
X119900000Y-71500000D03*
X119900000Y-70200000D03*
X138900000Y-75600000D03*
X131300000Y-72800000D03*
X128400000Y-65700000D03*
D45*
X109750000Y-96250000D03*
X118750000Y-96250000D03*
X127750000Y-96250000D03*
X136750000Y-96250000D03*
X109750000Y-113000000D03*
X136750000Y-129750000D03*
X127750000Y-113000000D03*
X136700000Y-113000000D03*
X118700000Y-129800000D03*
X127700000Y-129800000D03*
X118700000Y-113050000D03*
D44*
X102500000Y-70400000D03*
X91400000Y-67600000D03*
X96200000Y-88400000D03*
D43*
X123100000Y-82100000D03*
X133100000Y-81600000D03*
X136300000Y-81000000D03*
X125600000Y-81000000D03*
D44*
X55400000Y-100100000D03*
X94000000Y-86600000D03*
X104200000Y-77100000D03*
X88000000Y-73750000D03*
X72000000Y-141000000D03*
X79500000Y-137300000D03*
X69900000Y-112400000D03*
D45*
X56675000Y-90800000D03*
D44*
X110100000Y-84500000D03*
X123250000Y-59925000D03*
X56600000Y-82500000D03*
X61100000Y-112275000D03*
X66452500Y-123972500D03*
X72100000Y-58900000D03*
X69250000Y-58900000D03*
X88200000Y-58900000D03*
X84850000Y-58900000D03*
X102250000Y-58875000D03*
D43*
X133500000Y-63800000D03*
X138300000Y-63700000D03*
D44*
X103200000Y-69900000D03*
X90800000Y-68300000D03*
X69300000Y-140775000D03*
X65375000Y-139475000D03*
X63475000Y-91175000D03*
X83600000Y-87400000D03*
X83600000Y-71950000D03*
X96800000Y-70200000D03*
X94550000Y-80750000D03*
X72300000Y-79375000D03*
X102550000Y-66925000D03*
X105650000Y-65425000D03*
X109300000Y-63300000D03*
X83000000Y-68250000D03*
X84075000Y-140200000D03*
X94800000Y-142900000D03*
X105500000Y-60700000D03*
X80500000Y-68025000D03*
X77400000Y-60700000D03*
X78000000Y-57500000D03*
X107400000Y-57400000D03*
X106500000Y-60900000D03*
X75100000Y-60700000D03*
X77650000Y-65450000D03*
X77500000Y-132500000D03*
X108875000Y-138475000D03*
X76850000Y-132975000D03*
X107825000Y-139300000D03*
X79625000Y-67100000D03*
X104700000Y-60700000D03*
X92600000Y-142225000D03*
X100000000Y-63200000D03*
X81325000Y-68100000D03*
X84500000Y-141525000D03*
X73900000Y-60700000D03*
X73000000Y-57500000D03*
X103300000Y-60700000D03*
X102700000Y-57400000D03*
X99325000Y-63850000D03*
X85300000Y-137625000D03*
X99875000Y-139075000D03*
X82175000Y-68175000D03*
X91500000Y-60700000D03*
X79575000Y-66250000D03*
X93250000Y-139800000D03*
X80775000Y-134075000D03*
X93000000Y-60700000D03*
X93500000Y-57400000D03*
X90600000Y-60700000D03*
X78700000Y-66200000D03*
X82200000Y-141025000D03*
X90350000Y-143275000D03*
X79675000Y-67950000D03*
X82725000Y-63450000D03*
X89400000Y-60700000D03*
X88600000Y-57600000D03*
X117800000Y-86900000D03*
X117800000Y-82800000D03*
X93700000Y-71100000D03*
X112100000Y-71500000D03*
X111300000Y-71800000D03*
X92800000Y-71400000D03*
X113300000Y-72900000D03*
X92800000Y-72400000D03*
X111800000Y-73200000D03*
X93200000Y-73200000D03*
X111600000Y-75000000D03*
X94000000Y-75000000D03*
X94500000Y-75700000D03*
X114500000Y-76400000D03*
X96600000Y-77700000D03*
X113100000Y-77800000D03*
X114800000Y-80300000D03*
X116400000Y-123600000D03*
X116400000Y-89800000D03*
X97850000Y-79850000D03*
X96200000Y-79200000D03*
X115200000Y-79600000D03*
X125400000Y-123600000D03*
X125300000Y-90400000D03*
X115100000Y-78500000D03*
X94600000Y-78500000D03*
X134900000Y-123900000D03*
X131500000Y-91300000D03*
X91900000Y-87200000D03*
X95100000Y-88200000D03*
X88000000Y-78975000D03*
X88575000Y-79850000D03*
X87450000Y-79625000D03*
X87800000Y-102500000D03*
X94200000Y-105600000D03*
X94000000Y-89400000D03*
X91900000Y-89000000D03*
X94400000Y-88700000D03*
X91800000Y-88000000D03*
X97500000Y-81975000D03*
X126775000Y-83750000D03*
X98250000Y-82325000D03*
X123875000Y-84425000D03*
X115675000Y-64625000D03*
X101575000Y-70400000D03*
X102100000Y-87800000D03*
X117800000Y-87800000D03*
X91300000Y-106400000D03*
X104300000Y-106300000D03*
X102175000Y-85250000D03*
X74300000Y-87500000D03*
X102700000Y-85900000D03*
X74375000Y-88325000D03*
X102300000Y-80550000D03*
X101200000Y-80550000D03*
X87700000Y-70225000D03*
X87150000Y-70875000D03*
D45*
X122750000Y-138750000D03*
X90500000Y-158500000D03*
X115200000Y-131800000D03*
X115300000Y-141675000D03*
X115300000Y-146300000D03*
X85000000Y-157000000D03*
X113300000Y-136100000D03*
X113400000Y-146400000D03*
X113650000Y-141675000D03*
X123925000Y-137375000D03*
X87200000Y-158500000D03*
D44*
X92450000Y-140000000D03*
X78350000Y-134550000D03*
X80100000Y-149150000D03*
X69300000Y-141675000D03*
X66950000Y-140125000D03*
D43*
X140450000Y-86650000D03*
X138075000Y-149525000D03*
X141400000Y-84950000D03*
X139075000Y-150975000D03*
D44*
X103075000Y-142150000D03*
X99638970Y-142736030D03*
X76200000Y-132425000D03*
X91075000Y-140925000D03*
X91775000Y-140475000D03*
X76850000Y-133875000D03*
X103475000Y-64975000D03*
X83075000Y-69075000D03*
X82200000Y-128475000D03*
X74600000Y-137300000D03*
X82200000Y-129500000D03*
X83900000Y-69150000D03*
X102925000Y-65625000D03*
X75700000Y-137200000D03*
X76900000Y-137500000D03*
X102225000Y-66075000D03*
X84725000Y-69225000D03*
X82575000Y-130225000D03*
D46*
X102000000Y-123450000D02*
X101950000Y-123450000D01*
X101950000Y-123450000D02*
X101000000Y-122500000D01*
X96750000Y-123450000D02*
X96750000Y-123350000D01*
X96750000Y-123350000D02*
X97600000Y-122500000D01*
X94000000Y-116800000D02*
X93100000Y-117700000D01*
X88750000Y-116800000D02*
X88750000Y-115400000D01*
X88750000Y-115400000D02*
X88750000Y-114525000D01*
X88750000Y-114525000D02*
X89300000Y-113975000D01*
X102000000Y-113950000D02*
X102000000Y-115500000D01*
X102000000Y-115500000D02*
X102000000Y-116299998D01*
X102000000Y-116299998D02*
X101524998Y-116775000D01*
X101524998Y-116775000D02*
X101450000Y-116775000D01*
X96750000Y-113950000D02*
X96750000Y-113850000D01*
X96750000Y-113850000D02*
X97600000Y-113000000D01*
X88750000Y-107300000D02*
X88750000Y-105800000D01*
X88750000Y-105800000D02*
X88750000Y-104850002D01*
X88750000Y-104850002D02*
X89125002Y-104475000D01*
X89125002Y-104475000D02*
X89300000Y-104475000D01*
X94000000Y-107300000D02*
X93100000Y-108200000D01*
X94000000Y-107300000D02*
X94000000Y-106700000D01*
X94000000Y-106700000D02*
X93200000Y-105900000D01*
X93200000Y-105900000D02*
X93200000Y-104975000D01*
X93200000Y-104975000D02*
X93700000Y-104475000D01*
X96750000Y-104450000D02*
X96750000Y-104350000D01*
X96750000Y-104350000D02*
X97500000Y-103600000D01*
X102000000Y-104450000D02*
X102000000Y-105600000D01*
X102000000Y-105600000D02*
X102000000Y-106725000D01*
X102000000Y-106725000D02*
X101450000Y-107275000D01*
X94000000Y-97800000D02*
X93100000Y-98700000D01*
X88750000Y-97800000D02*
X88750000Y-97950000D01*
X88750000Y-97950000D02*
X89600000Y-98800000D01*
X93700000Y-123475000D02*
X94375000Y-123475000D01*
X94375000Y-123475000D02*
X94900000Y-124000000D01*
X89300000Y-123475000D02*
X89875000Y-123475000D01*
X89875000Y-123475000D02*
X90500000Y-124100000D01*
X97050000Y-116775000D02*
X99300000Y-116775000D01*
X99300000Y-116775000D02*
X101450000Y-116775000D01*
X89300000Y-113975000D02*
X91600000Y-113975000D01*
X91600000Y-113975000D02*
X93700000Y-113975000D01*
X97050000Y-107275000D02*
X99400000Y-107275000D01*
X99400000Y-107275000D02*
X101450000Y-107275000D01*
X93700000Y-104475000D02*
X91500000Y-104475000D01*
X91500000Y-104475000D02*
X89300000Y-104475000D01*
X101450000Y-97775000D02*
X99250000Y-97775000D01*
X99250000Y-97775000D02*
X97050000Y-97775000D01*
X97050000Y-97775000D02*
X96875000Y-97775000D01*
D47*
X72200000Y-121000000D02*
X72100000Y-121000000D01*
X72100000Y-121000000D02*
X71300000Y-120200000D01*
X71300000Y-120200000D02*
X67826800Y-120200000D01*
X67826800Y-120200000D02*
X67722500Y-120095700D01*
X72200000Y-121000000D02*
X72200000Y-121500000D01*
X72200000Y-121500000D02*
X72600000Y-121900000D01*
X72200000Y-121000000D02*
X72200000Y-122750000D01*
X57700000Y-99250000D02*
X58150000Y-99250000D01*
X58150000Y-99250000D02*
X58900000Y-98500000D01*
X60500000Y-94040000D02*
X61750000Y-92790000D01*
X60500000Y-95900000D02*
X60500000Y-94040000D01*
X58900000Y-97500000D02*
X60500000Y-95900000D01*
X58900000Y-98500000D02*
X58900000Y-97500000D01*
X55800000Y-97500000D02*
X55800000Y-97025000D01*
X55800000Y-97025000D02*
X55425000Y-96650000D01*
X57700000Y-99250000D02*
X57700000Y-99800000D01*
X57700000Y-99800000D02*
X58075000Y-100175000D01*
X101875000Y-62075000D02*
X101875000Y-62125000D01*
X101875000Y-62125000D02*
X101350000Y-62650000D01*
X108375000Y-62075000D02*
X108025000Y-62075000D01*
X108025000Y-62075000D02*
X107600000Y-62500000D01*
X106700000Y-76500000D02*
X105200000Y-76500000D01*
X105200000Y-76500000D02*
X105000000Y-76700000D01*
X86800000Y-69000000D02*
X86250000Y-69000000D01*
X86250000Y-69000000D02*
X85750000Y-69500000D01*
X87250000Y-75700000D02*
X87950000Y-75700000D01*
X87950000Y-75700000D02*
X88000000Y-75750000D01*
X118000000Y-73550000D02*
X119350000Y-73550000D01*
X119350000Y-73550000D02*
X119500000Y-73400000D01*
D48*
X138450000Y-87905000D02*
X137655000Y-87905000D01*
X137635000Y-85365000D02*
X136400000Y-86600000D01*
X137635000Y-85365000D02*
X138450000Y-85365000D01*
X136400000Y-86650000D02*
X136400000Y-86600000D01*
X137655000Y-87905000D02*
X136400000Y-86650000D01*
X58650000Y-88500000D02*
X57925000Y-88500000D01*
X57925000Y-88500000D02*
X56700000Y-87275000D01*
X52350000Y-88500000D02*
X58650000Y-88500000D01*
D49*
X128150000Y-86750000D02*
X127725000Y-86750000D01*
X127725000Y-86750000D02*
X126900000Y-85925000D01*
X128150000Y-85250000D02*
X127575000Y-85250000D01*
X127575000Y-85250000D02*
X126900000Y-85925000D01*
D47*
X124500000Y-56650000D02*
X124800000Y-56650000D01*
X124800000Y-56650000D02*
X125650000Y-55800000D01*
X124500000Y-56650000D02*
X124500000Y-56425000D01*
X124500000Y-56425000D02*
X123475000Y-55400000D01*
X119250000Y-56650000D02*
X119250000Y-56575000D01*
X119250000Y-56575000D02*
X120425000Y-55400000D01*
X120425000Y-55400000D02*
X123475000Y-55400000D01*
X123475000Y-55400000D02*
X128500000Y-55400000D01*
X128500000Y-55400000D02*
X129750000Y-56650000D01*
X55800000Y-95750000D02*
X55850000Y-95750000D01*
X55800000Y-97500000D02*
X55800000Y-95750000D01*
X57700000Y-99250000D02*
X57550000Y-99250000D01*
X57550000Y-99250000D02*
X55800000Y-97500000D01*
X57700000Y-101000000D02*
X57700000Y-99250000D01*
X66350000Y-65250000D02*
X66350000Y-65300000D01*
X66350000Y-65300000D02*
X67050000Y-66000000D01*
X53750000Y-81700000D02*
X53750000Y-82675000D01*
X64547500Y-125404300D02*
X64547500Y-124277500D01*
X65817500Y-124267500D02*
X65817500Y-125404300D01*
X65525000Y-123975000D02*
X65817500Y-124267500D01*
X64850000Y-123975000D02*
X65150000Y-123975000D01*
X65150000Y-123975000D02*
X65525000Y-123975000D01*
X64547500Y-124277500D02*
X64850000Y-123975000D01*
X66452500Y-120095700D02*
X66452500Y-121297500D01*
X66452500Y-121297500D02*
X66150000Y-121600000D01*
X64547500Y-120095700D02*
X64547500Y-121322500D01*
X64547500Y-121322500D02*
X64825000Y-121600000D01*
X63277500Y-120095700D02*
X63277500Y-121402500D01*
X67722500Y-121352500D02*
X67722500Y-120095700D01*
X67475000Y-121600000D02*
X67722500Y-121352500D01*
X63475000Y-121600000D02*
X64825000Y-121600000D01*
X64825000Y-121600000D02*
X65500000Y-121600000D01*
X65500000Y-121600000D02*
X66150000Y-121600000D01*
X66150000Y-121600000D02*
X67475000Y-121600000D01*
X63277500Y-121402500D02*
X63475000Y-121600000D01*
X58800000Y-138000000D02*
X58775000Y-138000000D01*
X58775000Y-138000000D02*
X57925000Y-137150000D01*
X58800000Y-136250000D02*
X58800000Y-136275000D01*
X58800000Y-136275000D02*
X57925000Y-137150000D01*
X72200000Y-138000000D02*
X72200000Y-137875000D01*
X72200000Y-137875000D02*
X72950000Y-137125000D01*
X72200000Y-136250000D02*
X72200000Y-136375000D01*
X72200000Y-136375000D02*
X72950000Y-137125000D01*
X67750000Y-58875000D02*
X67750000Y-60200000D01*
X67750000Y-57600000D02*
X67750000Y-58875000D01*
X72250000Y-62100000D02*
X72250000Y-61900000D01*
X72250000Y-61900000D02*
X71500000Y-61150000D01*
X71500000Y-61150000D02*
X68250000Y-61150000D01*
X68250000Y-61150000D02*
X67750000Y-60650000D01*
X67750000Y-60650000D02*
X67750000Y-60200000D01*
X72250000Y-55700000D02*
X73325000Y-55700000D01*
X78750000Y-55700000D02*
X77675000Y-55700000D01*
X76850000Y-58900000D02*
X81725000Y-58900000D01*
X81725000Y-58900000D02*
X81750000Y-58875000D01*
X78750000Y-62100000D02*
X78750000Y-61725000D01*
X78750000Y-61725000D02*
X79300000Y-61175000D01*
X79300000Y-61175000D02*
X81325000Y-61175000D01*
X81325000Y-61175000D02*
X81750000Y-60750000D01*
X81750000Y-60750000D02*
X81750000Y-60200000D01*
X81750000Y-58875000D02*
X83350000Y-58875000D01*
X83350000Y-60200000D02*
X81750000Y-60200000D01*
X81750000Y-60200000D02*
X81750000Y-58875000D01*
X81750000Y-58875000D02*
X81750000Y-57600000D01*
X81750000Y-57600000D02*
X83350000Y-57600000D01*
X83350000Y-57600000D02*
X83350000Y-58875000D01*
X83350000Y-58875000D02*
X83350000Y-60200000D01*
X87850000Y-62100000D02*
X87850000Y-62025000D01*
X87850000Y-62025000D02*
X86975000Y-61150000D01*
X86975000Y-61150000D02*
X83900000Y-61150000D01*
X83900000Y-61150000D02*
X83350000Y-60600000D01*
X83350000Y-60600000D02*
X83350000Y-60200000D01*
X87850000Y-55700000D02*
X88925000Y-55700000D01*
X88925000Y-55700000D02*
X88950000Y-55675000D01*
X94350000Y-55700000D02*
X93250000Y-55700000D01*
X94350000Y-62100000D02*
X94350000Y-61775000D01*
X94350000Y-61775000D02*
X94975000Y-61150000D01*
X94975000Y-61150000D02*
X96900000Y-61150000D01*
X96900000Y-61150000D02*
X97350000Y-60700000D01*
X97350000Y-60700000D02*
X97350000Y-60200000D01*
X92450000Y-58900000D02*
X97350000Y-58900000D01*
X97350000Y-58900000D02*
X98850000Y-58900000D01*
X98850000Y-58900000D02*
X98875000Y-58875000D01*
X97350000Y-57600000D02*
X98850000Y-57600000D01*
X98850000Y-57600000D02*
X98875000Y-57575000D01*
X97350000Y-60200000D02*
X98850000Y-60200000D01*
X98850000Y-60200000D02*
X98875000Y-60175000D01*
X98875000Y-60175000D02*
X98875000Y-58875000D01*
X98875000Y-58875000D02*
X98875000Y-57575000D01*
X97350000Y-57600000D02*
X97350000Y-60200000D01*
X101875000Y-55675000D02*
X103100000Y-55675000D01*
X108375000Y-55675000D02*
X107375000Y-55675000D01*
X108375000Y-62075000D02*
X108375000Y-61700000D01*
X108375000Y-61700000D02*
X108900000Y-61175000D01*
X108900000Y-61175000D02*
X110850000Y-61175000D01*
X110850000Y-61175000D02*
X111375000Y-60650000D01*
X111375000Y-60650000D02*
X111375000Y-60175000D01*
X106475000Y-58875000D02*
X110800000Y-58875000D01*
X110800000Y-58875000D02*
X111375000Y-58875000D01*
X111375000Y-57575000D02*
X111375000Y-58875000D01*
X111375000Y-58875000D02*
X111375000Y-60175000D01*
D46*
X102000000Y-112050000D02*
X102000000Y-110600000D01*
X102000000Y-110600000D02*
X102000000Y-109775000D01*
X102000000Y-109775000D02*
X101450000Y-109225000D01*
X98500000Y-111900000D02*
X96900000Y-111900000D01*
X96900000Y-111900000D02*
X96750000Y-112050000D01*
X96750000Y-112050000D02*
X96750000Y-110600000D01*
X96750000Y-110600000D02*
X96750000Y-109525000D01*
X96750000Y-109525000D02*
X97050000Y-109225000D01*
X102000000Y-121550000D02*
X102000000Y-120100000D01*
X102000000Y-120100000D02*
X102000000Y-119275000D01*
X102000000Y-119275000D02*
X101450000Y-118725000D01*
X98500000Y-121400000D02*
X96900000Y-121400000D01*
X96900000Y-121400000D02*
X96750000Y-121550000D01*
X96750000Y-121550000D02*
X96750000Y-120100000D01*
X96750000Y-120100000D02*
X96750000Y-119025000D01*
X96750000Y-119025000D02*
X97050000Y-118725000D01*
X92250000Y-118850000D02*
X93850000Y-118850000D01*
X93850000Y-118850000D02*
X94000000Y-118700000D01*
X94000000Y-118700000D02*
X94000000Y-120100000D01*
X94000000Y-120100000D02*
X94000000Y-121225000D01*
X94000000Y-121225000D02*
X93700000Y-121525000D01*
X88750000Y-118700000D02*
X88750000Y-120100000D01*
X88750000Y-120100000D02*
X88750000Y-120975000D01*
X88750000Y-120975000D02*
X89300000Y-121525000D01*
X94000000Y-99700000D02*
X94000000Y-101200000D01*
X94000000Y-101200000D02*
X94000000Y-102225000D01*
X94000000Y-102225000D02*
X93700000Y-102525000D01*
X92250000Y-109350000D02*
X93850000Y-109350000D01*
X93850000Y-109350000D02*
X94000000Y-109200000D01*
X94000000Y-109200000D02*
X94000000Y-110600000D01*
X94000000Y-110600000D02*
X94000000Y-111725000D01*
X94000000Y-111725000D02*
X93700000Y-112025000D01*
X88750000Y-109200000D02*
X88750000Y-110600000D01*
X88750000Y-110600000D02*
X88750000Y-111475000D01*
X88750000Y-111475000D02*
X89300000Y-112025000D01*
X102000000Y-102550000D02*
X102000000Y-101200000D01*
X102000000Y-101200000D02*
X102000000Y-100275000D01*
X102000000Y-100275000D02*
X101450000Y-99725000D01*
X98500000Y-102400000D02*
X96900000Y-102400000D01*
X96900000Y-102400000D02*
X96750000Y-102550000D01*
X97050000Y-99725000D02*
X97050000Y-101200000D01*
X97050000Y-101200000D02*
X97050000Y-102250000D01*
X97050000Y-102250000D02*
X96750000Y-102550000D01*
X92250000Y-99850000D02*
X93850000Y-99850000D01*
X88750000Y-99700000D02*
X88750000Y-101200000D01*
X88750000Y-101200000D02*
X88750000Y-101975000D01*
X88750000Y-101975000D02*
X89300000Y-102525000D01*
D50*
X126150000Y-66750000D02*
X123250000Y-66750000D01*
X123150000Y-66750000D02*
X123200000Y-66800000D01*
X123150000Y-66750000D02*
X119850000Y-66750000D01*
X123250000Y-66750000D02*
X123200000Y-66800000D01*
X119850000Y-66750000D02*
X119850000Y-70150000D01*
X119850000Y-70150000D02*
X119900000Y-70200000D01*
D47*
X119900000Y-70200000D02*
X119900000Y-71500000D01*
X120530000Y-72130000D02*
X119900000Y-71500000D01*
X120530000Y-72130000D02*
X122500000Y-72130000D01*
D50*
X138250000Y-72500000D02*
X138250000Y-74950000D01*
X138250000Y-74950000D02*
X138900000Y-75600000D01*
X133500000Y-71250000D02*
X132850000Y-71250000D01*
X132850000Y-71250000D02*
X131300000Y-72800000D01*
X128200000Y-67400000D02*
X128200000Y-65900000D01*
X128200000Y-65900000D02*
X128400000Y-65700000D01*
X137000000Y-76550000D02*
X137000000Y-75800000D01*
X138250000Y-74550000D02*
X138250000Y-72500000D01*
X137000000Y-75800000D02*
X138250000Y-74550000D01*
X133500000Y-71250000D02*
X131650000Y-71250000D01*
X131650000Y-71250000D02*
X129850000Y-69450000D01*
X129850000Y-69450000D02*
X130000000Y-69450000D01*
X130000000Y-69450000D02*
X129450000Y-69450000D01*
X127550000Y-66750000D02*
X126150000Y-66750000D01*
X128200000Y-67400000D02*
X127550000Y-66750000D01*
X128200000Y-68200000D02*
X128200000Y-67400000D01*
X129450000Y-69450000D02*
X128200000Y-68200000D01*
D48*
X107470000Y-96300000D02*
X109700000Y-96300000D01*
X109700000Y-96300000D02*
X109750000Y-96250000D01*
X116470000Y-96300000D02*
X118700000Y-96300000D01*
X118700000Y-96300000D02*
X118750000Y-96250000D01*
X125470000Y-96300000D02*
X127700000Y-96300000D01*
X127700000Y-96300000D02*
X127750000Y-96250000D01*
X134470000Y-96300000D02*
X136700000Y-96300000D01*
X136700000Y-96300000D02*
X136750000Y-96250000D01*
X107470000Y-113050000D02*
X109700000Y-113050000D01*
X109700000Y-113050000D02*
X109750000Y-113000000D01*
X134470000Y-129800000D02*
X136700000Y-129800000D01*
X136700000Y-129800000D02*
X136750000Y-129750000D01*
X125470000Y-113050000D02*
X127700000Y-113050000D01*
X127700000Y-113050000D02*
X127750000Y-113000000D01*
X134470000Y-113050000D02*
X136650000Y-113050000D01*
X136650000Y-113050000D02*
X136700000Y-113000000D01*
X116470000Y-129800000D02*
X118700000Y-129800000D01*
X125470000Y-129800000D02*
X127700000Y-129800000D01*
D49*
X107400000Y-93500000D02*
X107400000Y-96230000D01*
X107400000Y-96230000D02*
X107470000Y-96300000D01*
X134400000Y-93500000D02*
X134400000Y-96230000D01*
X134400000Y-96230000D02*
X134470000Y-96300000D01*
X107400000Y-110250000D02*
X107400000Y-112980000D01*
X107400000Y-112980000D02*
X107470000Y-113050000D01*
X134400000Y-127000000D02*
X134400000Y-129730000D01*
X134400000Y-129730000D02*
X134470000Y-129800000D01*
X125400000Y-110250000D02*
X125400000Y-112980000D01*
X125400000Y-112980000D02*
X125470000Y-113050000D01*
X134400000Y-110250000D02*
X134400000Y-112980000D01*
X134400000Y-112980000D02*
X134470000Y-113050000D01*
X116470000Y-129800000D02*
X116470000Y-127070000D01*
X116470000Y-127070000D02*
X116400000Y-127000000D01*
X125400000Y-127000000D02*
X125400000Y-129730000D01*
X125400000Y-129730000D02*
X125470000Y-129800000D01*
D48*
X116470000Y-113050000D02*
X118700000Y-113050000D01*
D49*
X116400000Y-110250000D02*
X116400000Y-112980000D01*
X116400000Y-112980000D02*
X116470000Y-113050000D01*
D47*
X102500000Y-70100000D02*
X102500000Y-70400000D01*
X105336398Y-70000000D02*
X104918199Y-70418199D01*
X105336398Y-70000000D02*
X106636398Y-68700000D01*
X110750000Y-68700000D02*
X106636398Y-68700000D01*
X102500000Y-69400000D02*
X102500000Y-68300000D01*
X102500000Y-70200000D02*
X102500000Y-70100000D01*
X102500000Y-70100000D02*
X102500000Y-69400000D01*
X103150002Y-70850002D02*
X102500000Y-70200000D01*
X104549998Y-70850002D02*
X103150002Y-70850002D01*
X104618199Y-70781801D02*
X104549998Y-70850002D01*
X104618199Y-70718199D02*
X104618199Y-70781801D01*
X104918199Y-70418199D02*
X104618199Y-70718199D01*
X106700000Y-76500000D02*
X110050000Y-76500000D01*
X110050000Y-76500000D02*
X110750000Y-75800000D01*
X91400000Y-67600000D02*
X90600000Y-67600000D01*
X93500000Y-67300000D02*
X93400000Y-67200000D01*
X93400000Y-67200000D02*
X91800000Y-67200000D01*
X91800000Y-67200000D02*
X91400000Y-67600000D01*
X93500000Y-68300000D02*
X93500000Y-67300000D01*
X87700000Y-66600000D02*
X86800000Y-67500000D01*
X89600000Y-66600000D02*
X87700000Y-66600000D01*
X90600000Y-67600000D02*
X89600000Y-66600000D01*
X91300000Y-75000000D02*
X87950000Y-75000000D01*
X87950000Y-75000000D02*
X87250000Y-75700000D01*
X86800000Y-69000000D02*
X86800000Y-67500000D01*
X95450000Y-87250000D02*
X95450000Y-87650000D01*
X95450000Y-87650000D02*
X96200000Y-88400000D01*
X98500000Y-89500000D02*
X98500000Y-90300000D01*
X98500000Y-90300000D02*
X97600000Y-91200000D01*
X96400000Y-88600000D02*
X96200000Y-88400000D01*
X96400000Y-90600000D02*
X96400000Y-88600000D01*
X97000000Y-91200000D02*
X96400000Y-90600000D01*
X97600000Y-91200000D02*
X97000000Y-91200000D01*
X95450000Y-87250000D02*
X95450000Y-87050000D01*
X95450000Y-87050000D02*
X96000000Y-86500000D01*
X96000000Y-86500000D02*
X96000000Y-83700000D01*
D49*
X116400000Y-93500000D02*
X116400000Y-96230000D01*
X116400000Y-96230000D02*
X116420000Y-96250000D01*
D47*
X137000000Y-78450000D02*
X137725000Y-78450000D01*
X129025000Y-60500000D02*
X127750000Y-59225000D01*
X138425000Y-60500000D02*
X129025000Y-60500000D01*
X140075000Y-62150000D02*
X138425000Y-60500000D01*
X140075000Y-76100000D02*
X140075000Y-62150000D01*
X137725000Y-78450000D02*
X140075000Y-76100000D01*
X127750000Y-59225000D02*
X127750000Y-59100000D01*
D51*
X122600000Y-81700000D02*
X122700000Y-81700000D01*
X122700000Y-81700000D02*
X123100000Y-82100000D01*
X133000000Y-81500000D02*
X133000000Y-80700000D01*
X133100000Y-81600000D02*
X133000000Y-81500000D01*
X125600000Y-81000000D02*
X125600000Y-81100000D01*
D47*
X55800000Y-101000000D02*
X55800000Y-100500000D01*
X55800000Y-100500000D02*
X55400000Y-100100000D01*
X93550000Y-87250000D02*
X93550000Y-87050000D01*
X93550000Y-87050000D02*
X94000000Y-86600000D01*
X106700000Y-77000000D02*
X105700000Y-77000000D01*
X104450000Y-77350000D02*
X104200000Y-77100000D01*
X105350000Y-77350000D02*
X104450000Y-77350000D01*
X105700000Y-77000000D02*
X105350000Y-77350000D01*
X87250000Y-73800000D02*
X87950000Y-73800000D01*
X87950000Y-73800000D02*
X88000000Y-73750000D01*
X71950000Y-140100000D02*
X71950000Y-140950000D01*
X71950000Y-141050000D02*
X72000000Y-141000000D01*
X71950000Y-141050000D02*
X71950000Y-141900000D01*
X71950000Y-140950000D02*
X72000000Y-141000000D01*
X79450000Y-136500000D02*
X79450000Y-137250000D01*
X79450000Y-137250000D02*
X79500000Y-137300000D01*
X60550000Y-111500000D02*
X60550000Y-111725000D01*
X60550000Y-111725000D02*
X61100000Y-112275000D01*
X70350000Y-111500000D02*
X70350000Y-111950000D01*
X69900000Y-112400000D02*
X69900000Y-113500000D01*
X70350000Y-111950000D02*
X69900000Y-112400000D01*
D48*
X58650000Y-90800000D02*
X56675000Y-90800000D01*
D47*
X110800000Y-85400000D02*
X110800000Y-85200000D01*
X110800000Y-85200000D02*
X110100000Y-84500000D01*
X122500000Y-59100000D02*
X122500000Y-59175000D01*
X122500000Y-59175000D02*
X123250000Y-59925000D01*
X55800000Y-101000000D02*
X56200000Y-101000000D01*
X56200000Y-101000000D02*
X56925000Y-101725000D01*
X59425000Y-97655000D02*
X61750000Y-95330000D01*
X59425000Y-100800000D02*
X59425000Y-97655000D01*
X58500000Y-101725000D02*
X59425000Y-100800000D01*
X56925000Y-101725000D02*
X58500000Y-101725000D01*
X55800000Y-101000000D02*
X55800000Y-99250000D01*
X57750000Y-82000000D02*
X57100000Y-82000000D01*
X56600000Y-82500000D02*
X55950000Y-81850000D01*
X57100000Y-82000000D02*
X56600000Y-82500000D01*
X55500000Y-81850000D02*
X55950000Y-81850000D01*
X69900000Y-113500000D02*
X70225000Y-113500000D01*
X61100000Y-113500000D02*
X61100000Y-112275000D01*
X70300000Y-121000000D02*
X70300000Y-122750000D01*
X70300000Y-122750000D02*
X67675000Y-122750000D01*
X67675000Y-122750000D02*
X66452500Y-123972500D01*
X66452500Y-123972500D02*
X66452500Y-125404300D01*
X72900000Y-58900000D02*
X72625000Y-58900000D01*
X74150000Y-58900000D02*
X72900000Y-58900000D01*
X72900000Y-58900000D02*
X72100000Y-58900000D01*
X72100000Y-58900000D02*
X69250000Y-58900000D01*
X69250000Y-60050000D02*
X69250000Y-57750000D01*
X84850000Y-58900000D02*
X88200000Y-58900000D01*
X88200000Y-58900000D02*
X89750000Y-58900000D01*
X84850000Y-60050000D02*
X84850000Y-57750000D01*
X103775000Y-58875000D02*
X102250000Y-58875000D01*
D50*
X133500000Y-67250000D02*
X133500000Y-63800000D01*
X138250000Y-67500000D02*
X138250000Y-63750000D01*
X138250000Y-63750000D02*
X138300000Y-63700000D01*
D47*
X103000000Y-69900000D02*
X103200000Y-69900000D01*
X105200000Y-69500000D02*
X104900000Y-69800000D01*
X107900000Y-66800000D02*
X105200000Y-69500000D01*
X103000000Y-68300000D02*
X103000000Y-69200000D01*
X107900000Y-66800000D02*
X110750000Y-66800000D01*
X103000000Y-70000000D02*
X103000000Y-69900000D01*
X103000000Y-69900000D02*
X103000000Y-69200000D01*
X103400000Y-70400000D02*
X103000000Y-70000000D01*
X104300000Y-70400000D02*
X103400000Y-70400000D01*
X104900000Y-69800000D02*
X104300000Y-70400000D01*
X106700000Y-77000000D02*
X110050000Y-77000000D01*
X110050000Y-77000000D02*
X110750000Y-77700000D01*
X93000000Y-68300000D02*
X90800000Y-68300000D01*
X89400000Y-67500000D02*
X88700000Y-67500000D01*
X89400000Y-67500000D02*
X90200000Y-68300000D01*
X90800000Y-68300000D02*
X90200000Y-68300000D01*
X91300000Y-74500000D02*
X87950000Y-74500000D01*
X87950000Y-74500000D02*
X87250000Y-73800000D01*
X93550000Y-87250000D02*
X93850000Y-87250000D01*
X93850000Y-87250000D02*
X95549998Y-85550002D01*
X95549998Y-85550002D02*
X95400000Y-85700000D01*
X95400000Y-85700000D02*
X95500000Y-85600000D01*
X95500000Y-85600000D02*
X95500000Y-83700000D01*
X69900000Y-134250000D02*
X69900000Y-132000000D01*
X70300000Y-136250000D02*
X70300000Y-134650000D01*
X70300000Y-134650000D02*
X69900000Y-134250000D01*
X69300000Y-140775000D02*
X68225000Y-139700000D01*
X68100002Y-133174998D02*
X69275000Y-132000000D01*
X68100002Y-139575000D02*
X68100002Y-133174998D01*
X68225000Y-139699998D02*
X68100002Y-139575000D01*
X68225000Y-139700000D02*
X68225000Y-139699998D01*
X69275000Y-132000000D02*
X69900000Y-132000000D01*
X69300000Y-140775000D02*
X69250000Y-140725000D01*
X70550000Y-134650000D02*
X69900000Y-134000000D01*
X61100000Y-134250000D02*
X61100000Y-132000000D01*
X60700000Y-136250000D02*
X60700000Y-134650000D01*
X60700000Y-134650000D02*
X61100000Y-134250000D01*
X65375000Y-139475000D02*
X65050000Y-139150000D01*
X65050000Y-139150000D02*
X65050000Y-135325000D01*
X65050000Y-135325000D02*
X63975000Y-134250000D01*
X63975000Y-134250000D02*
X61100000Y-134250000D01*
X66790000Y-129250000D02*
X70480000Y-129250000D01*
X70480000Y-129250000D02*
X70480000Y-130630000D01*
X71250000Y-137050000D02*
X70300000Y-138000000D01*
X71250000Y-131400000D02*
X71250000Y-137050000D01*
X70480000Y-130630000D02*
X71250000Y-131400000D01*
X70480000Y-129250000D02*
X70480000Y-127080000D01*
X70480000Y-127080000D02*
X69900000Y-126500000D01*
X70550000Y-137750000D02*
X70250000Y-137750000D01*
X70300000Y-126350000D02*
X69900000Y-126750000D01*
X64250000Y-132750000D02*
X64020000Y-132750000D01*
X64020000Y-132750000D02*
X60520000Y-129250000D01*
X60520000Y-129250000D02*
X60520000Y-130430000D01*
X59750000Y-137050000D02*
X60700000Y-138000000D01*
X59750000Y-131200000D02*
X59750000Y-137050000D01*
X60520000Y-130430000D02*
X59750000Y-131200000D01*
X60520000Y-129250000D02*
X60520000Y-127080000D01*
X60520000Y-127080000D02*
X61100000Y-126500000D01*
X72200000Y-124500000D02*
X72500000Y-124500000D01*
X72500000Y-124500000D02*
X73700000Y-125700000D01*
X73700000Y-133150000D02*
X72600000Y-134250000D01*
X73700000Y-125700000D02*
X73700000Y-133150000D01*
X67087500Y-125404300D02*
X67087500Y-124487500D01*
X71450000Y-123750000D02*
X72200000Y-124500000D01*
X67825000Y-123750000D02*
X71450000Y-123750000D01*
X67087500Y-124487500D02*
X67825000Y-123750000D01*
X72200000Y-124750000D02*
X72200000Y-124700000D01*
X70300000Y-124500000D02*
X67925000Y-124500000D01*
X67925000Y-124500000D02*
X67722500Y-124702500D01*
X67722500Y-124702500D02*
X67722500Y-125404300D01*
X72600000Y-126500000D02*
X72300000Y-126500000D01*
X72300000Y-126500000D02*
X70300000Y-124500000D01*
X72600000Y-126750000D02*
X72300000Y-126750000D01*
X58800000Y-124500000D02*
X58375000Y-124500000D01*
X58375000Y-124500000D02*
X57250000Y-125625000D01*
X57250000Y-133100000D02*
X58400000Y-134250000D01*
X57250000Y-125625000D02*
X57250000Y-133100000D01*
X63912500Y-125404300D02*
X63912500Y-124562500D01*
X59525000Y-123775000D02*
X58800000Y-124500000D01*
X63125000Y-123775000D02*
X59525000Y-123775000D01*
X63912500Y-124562500D02*
X63125000Y-123775000D01*
X60700000Y-124500000D02*
X62975000Y-124500000D01*
X62975000Y-124500000D02*
X63277500Y-124802500D01*
X63277500Y-124802500D02*
X63277500Y-125404300D01*
X58400000Y-126500000D02*
X58700000Y-126500000D01*
X58700000Y-126500000D02*
X60700000Y-124500000D01*
X58400000Y-127000000D02*
X58700000Y-127000000D01*
X57700000Y-95750000D02*
X57400000Y-95750000D01*
X57400000Y-95750000D02*
X55650000Y-94000000D01*
X61750000Y-90250000D02*
X59725000Y-92275000D01*
X56625000Y-93025000D02*
X55650000Y-94000000D01*
X58975000Y-93025000D02*
X56625000Y-93025000D01*
X59725000Y-92275000D02*
X58975000Y-93025000D01*
X57700000Y-97500000D02*
X58100000Y-97500000D01*
X58100000Y-97500000D02*
X58700000Y-96900000D01*
X58700000Y-96900000D02*
X58700000Y-94850000D01*
X58700000Y-94850000D02*
X57850000Y-94000000D01*
X97000000Y-68300000D02*
X97000000Y-70000000D01*
X58775000Y-94000000D02*
X57850000Y-94000000D01*
X61250000Y-91525000D02*
X58775000Y-94000000D01*
X63125000Y-91525000D02*
X61250000Y-91525000D01*
X63475000Y-91175000D02*
X63125000Y-91525000D01*
X83425000Y-87225000D02*
X83600000Y-87400000D01*
X83425000Y-72125000D02*
X83425000Y-87225000D01*
X83600000Y-71950000D02*
X83425000Y-72125000D01*
X97000000Y-70000000D02*
X96800000Y-70200000D01*
X56200000Y-78950000D02*
X54600000Y-78950000D01*
X54600000Y-78950000D02*
X53750000Y-79800000D01*
X58300000Y-78950000D02*
X56200000Y-78950000D01*
X56200000Y-78950000D02*
X55500000Y-79650000D01*
X66175000Y-77400000D02*
X64625000Y-78950000D01*
X58300000Y-78950000D02*
X57750000Y-79500000D01*
X64625000Y-78950000D02*
X58300000Y-78950000D01*
X73000000Y-78550000D02*
X73000000Y-78675000D01*
X73000000Y-78675000D02*
X72300000Y-79375000D01*
X95000000Y-81200000D02*
X95000000Y-83700000D01*
X94550000Y-80750000D02*
X95000000Y-81200000D01*
X73000000Y-78550000D02*
X67325000Y-78550000D01*
X66175000Y-75505000D02*
X64920000Y-74250000D01*
X66175000Y-77400000D02*
X66175000Y-75505000D01*
X67325000Y-78550000D02*
X66175000Y-77400000D01*
X116250000Y-71600000D02*
X116250000Y-73700000D01*
X116250000Y-73700000D02*
X118000000Y-75450000D01*
X119500000Y-77650000D02*
X119500000Y-75600000D01*
X119500000Y-75600000D02*
X119350000Y-75450000D01*
X119350000Y-75450000D02*
X118000000Y-75450000D01*
X116250000Y-69400000D02*
X116250000Y-67075000D01*
X102000000Y-67250000D02*
X102000000Y-68300000D01*
X102325000Y-66925000D02*
X102000000Y-67250000D01*
X102550000Y-66925000D02*
X102325000Y-66925000D01*
X114600000Y-65425000D02*
X105650000Y-65425000D01*
X116250000Y-67075000D02*
X114600000Y-65425000D01*
X117750000Y-69550000D02*
X116400000Y-69550000D01*
X116400000Y-69550000D02*
X116250000Y-69400000D01*
X81750000Y-62100000D02*
X80400000Y-62100000D01*
X80400000Y-62100000D02*
X80250000Y-62250000D01*
X81750000Y-55700000D02*
X80400000Y-55700000D01*
X80400000Y-55700000D02*
X80250000Y-55550000D01*
X80250000Y-55550000D02*
X80250000Y-55675000D01*
X87800000Y-142350000D02*
X87800000Y-139199998D01*
X87800000Y-146625000D02*
X87800000Y-142350000D01*
X86540000Y-147885000D02*
X87800000Y-146625000D01*
X109300000Y-63300000D02*
X109875000Y-62725000D01*
X81550000Y-69700000D02*
X83000000Y-68250000D01*
X81550000Y-130175000D02*
X81550000Y-69700000D01*
X85775000Y-134400000D02*
X81550000Y-130175000D01*
X85775000Y-137174998D02*
X85775000Y-134400000D01*
X87800000Y-139199998D02*
X85775000Y-137174998D01*
X86540000Y-147900000D02*
X86540000Y-147885000D01*
X109875000Y-62225000D02*
X109875000Y-62725000D01*
X111375000Y-62075000D02*
X110025000Y-62075000D01*
X110025000Y-62075000D02*
X109875000Y-62225000D01*
X83300000Y-137100000D02*
X83300000Y-133925000D01*
X83300000Y-139425000D02*
X83300000Y-137100000D01*
X84075000Y-140200000D02*
X83300000Y-139425000D01*
X95425000Y-143525000D02*
X94800000Y-142900000D01*
X95425000Y-146650000D02*
X95425000Y-143525000D01*
X94175000Y-147900000D02*
X95425000Y-146650000D01*
X109075000Y-56625000D02*
X106175000Y-56625000D01*
X105450000Y-57350000D02*
X105350000Y-57450000D01*
X105350000Y-60700000D02*
X105350000Y-57450000D01*
X109075000Y-56625000D02*
X109875000Y-55825000D01*
X106175000Y-56625000D02*
X105450000Y-57350000D01*
X105350000Y-60700000D02*
X105500000Y-60700000D01*
X80125002Y-68399998D02*
X80500000Y-68025000D01*
X80125002Y-130750002D02*
X80125002Y-68399998D01*
X83300000Y-133925000D02*
X80125002Y-130750002D01*
X94160000Y-147900000D02*
X94175000Y-147900000D01*
X109875000Y-55525000D02*
X109875000Y-55825000D01*
X111375000Y-55675000D02*
X110025000Y-55675000D01*
X110025000Y-55675000D02*
X109875000Y-55525000D01*
X93100004Y-65100004D02*
X92400000Y-64400000D01*
X97100004Y-65100004D02*
X97500000Y-65500000D01*
X97500000Y-65500000D02*
X97500000Y-66300004D01*
X97500000Y-68300000D02*
X97500000Y-66300004D01*
X78000000Y-60950000D02*
X78750000Y-60200000D01*
X78000000Y-62800000D02*
X78000000Y-60950000D01*
X78400000Y-63200000D02*
X78000000Y-62800000D01*
X96300000Y-65100004D02*
X93100004Y-65100004D01*
X96300000Y-65100004D02*
X97100004Y-65100004D01*
X79300000Y-64100000D02*
X78400000Y-63200000D01*
X92100000Y-64100000D02*
X79300000Y-64100000D01*
X92400000Y-64400000D02*
X92100000Y-64100000D01*
X76850000Y-59850000D02*
X78400000Y-59850000D01*
X78400000Y-59850000D02*
X78750000Y-60200000D01*
X80250000Y-60050000D02*
X78900000Y-60050000D01*
X78900000Y-60050000D02*
X78750000Y-60200000D01*
X92850006Y-65550006D02*
X92400000Y-65100000D01*
X96500000Y-65936402D02*
X96113604Y-65550006D01*
X96113604Y-65550006D02*
X92850006Y-65550006D01*
X78200000Y-63700000D02*
X77400000Y-62900000D01*
X77400000Y-62900000D02*
X77400000Y-60700000D01*
X78000000Y-57500000D02*
X78300000Y-57500000D01*
X78400000Y-57600000D02*
X78300000Y-57500000D01*
X96500000Y-65936402D02*
X96500000Y-68300000D01*
X79100000Y-64600000D02*
X78200000Y-63700000D01*
X91900000Y-64600000D02*
X79100000Y-64600000D01*
X92400000Y-65100000D02*
X91900000Y-64600000D01*
X78400000Y-57600000D02*
X78750000Y-57600000D01*
X76850000Y-57950000D02*
X78400000Y-57950000D01*
X78400000Y-57950000D02*
X78750000Y-57600000D01*
X80250000Y-57750000D02*
X78900000Y-57750000D01*
X78900000Y-57750000D02*
X78750000Y-57600000D01*
X101500000Y-68300000D02*
X101500000Y-64900000D01*
X107300000Y-61250000D02*
X108375000Y-60175000D01*
X107300000Y-61600000D02*
X107300000Y-61250000D01*
X105600000Y-63300000D02*
X107300000Y-61600000D01*
X104209194Y-63300000D02*
X105600000Y-63300000D01*
X102709194Y-64800000D02*
X104209194Y-63300000D01*
X101600000Y-64800000D02*
X102709194Y-64800000D01*
X101500000Y-64900000D02*
X101600000Y-64800000D01*
X106475000Y-59825000D02*
X108025000Y-59825000D01*
X108025000Y-59825000D02*
X108375000Y-60175000D01*
X109875000Y-60025000D02*
X108525000Y-60025000D01*
X108525000Y-60025000D02*
X108375000Y-60175000D01*
X104100000Y-62772796D02*
X105427204Y-62772796D01*
X101000000Y-64686400D02*
X101386400Y-64300000D01*
X101386400Y-64300000D02*
X102572796Y-64300000D01*
X102572796Y-64300000D02*
X104100000Y-62772796D01*
X107400000Y-57400000D02*
X107800000Y-57400000D01*
X107800000Y-57400000D02*
X107900000Y-57400000D01*
X108075000Y-57575000D02*
X107900000Y-57400000D01*
X101000000Y-64686400D02*
X101000000Y-68300000D01*
X106500000Y-61700000D02*
X106500000Y-60900000D01*
X105427204Y-62772796D02*
X106500000Y-61700000D01*
X108075000Y-57575000D02*
X108375000Y-57575000D01*
X106475000Y-57925000D02*
X108025000Y-57925000D01*
X108025000Y-57925000D02*
X108375000Y-57575000D01*
X109875000Y-57725000D02*
X108525000Y-57725000D01*
X108525000Y-57725000D02*
X108375000Y-57575000D01*
X77650000Y-128675000D02*
X77650000Y-132350000D01*
X74499998Y-56650000D02*
X75274998Y-57425000D01*
X71625000Y-56650000D02*
X74499998Y-56650000D01*
X70750000Y-55775000D02*
X71625000Y-56650000D01*
X75274998Y-60525002D02*
X75100000Y-60700000D01*
X75274998Y-57425000D02*
X75274998Y-60525002D01*
X77650000Y-128675000D02*
X77650000Y-65450000D01*
X77650000Y-132350000D02*
X77500000Y-132500000D01*
X67750000Y-55700000D02*
X69100000Y-55700000D01*
X69100000Y-55700000D02*
X69250000Y-55550000D01*
X69250000Y-55550000D02*
X70750000Y-55550000D01*
X70750000Y-55550000D02*
X70750000Y-55775000D01*
X77100000Y-128575000D02*
X77100000Y-131900000D01*
X71500000Y-63100000D02*
X73975000Y-63100000D01*
X70750000Y-62350000D02*
X71500000Y-63100000D01*
X77100000Y-69725000D02*
X74925000Y-67550000D01*
X74925000Y-67550000D02*
X74925000Y-64050000D01*
X74925000Y-64050000D02*
X73975000Y-63100000D01*
X77100000Y-128575000D02*
X77100000Y-128475000D01*
X77100000Y-128475000D02*
X77100000Y-69725000D01*
X76850000Y-132150000D02*
X76850000Y-132975000D01*
X77100000Y-131900000D02*
X76850000Y-132150000D01*
X70750000Y-62250000D02*
X70750000Y-62350000D01*
X67750000Y-62100000D02*
X69100000Y-62100000D01*
X69100000Y-62100000D02*
X69250000Y-62250000D01*
X69250000Y-62250000D02*
X70750000Y-62250000D01*
X81175000Y-137425000D02*
X81175000Y-134600000D01*
X82775000Y-146675000D02*
X82700000Y-146600000D01*
X82700000Y-146600000D02*
X80950000Y-146600000D01*
X80950000Y-146600000D02*
X80250000Y-145900000D01*
X80250000Y-145900000D02*
X80250000Y-141099998D01*
X80250000Y-141099998D02*
X81175000Y-140174998D01*
X81175000Y-140174998D02*
X81175000Y-137425000D01*
X84000000Y-147900000D02*
X82775000Y-146675000D01*
X79025000Y-67700000D02*
X79625000Y-67100000D01*
X79025000Y-131200000D02*
X79025000Y-67700000D01*
X81425000Y-133600000D02*
X79025000Y-131200000D01*
X81425000Y-134350000D02*
X81425000Y-133600000D01*
X81175000Y-134600000D02*
X81425000Y-134350000D01*
X104899998Y-60500002D02*
X104700000Y-60700000D01*
X104049998Y-56625000D02*
X102575000Y-56625000D01*
X100375000Y-55750000D02*
X101075000Y-56450000D01*
X101075000Y-56450000D02*
X101100000Y-56450000D01*
X101100000Y-56450000D02*
X101275000Y-56625000D01*
X101275000Y-56625000D02*
X102575000Y-56625000D01*
X104049998Y-56625000D02*
X104899998Y-57475000D01*
X104899998Y-57475000D02*
X104899998Y-60500002D01*
X98875000Y-55675000D02*
X100225000Y-55675000D01*
X100225000Y-55675000D02*
X100375000Y-55525000D01*
X100375000Y-55525000D02*
X100375000Y-55750000D01*
X92900000Y-142525000D02*
X92600000Y-142225000D01*
X92900000Y-146625000D02*
X92900000Y-142525000D01*
X91625000Y-147900000D02*
X92900000Y-146625000D01*
X100000000Y-63200000D02*
X100375000Y-62825000D01*
X80600000Y-68825000D02*
X81325000Y-68100000D01*
X80600000Y-130575000D02*
X80600000Y-68825000D01*
X83800000Y-133775000D02*
X80600000Y-130575000D01*
X83800000Y-139000000D02*
X83800000Y-133775000D01*
X84725000Y-139925000D02*
X83800000Y-139000000D01*
X84725000Y-141300000D02*
X84725000Y-139925000D01*
X84500000Y-141525000D02*
X84725000Y-141300000D01*
X91620000Y-147900000D02*
X91625000Y-147900000D01*
X100375000Y-62225000D02*
X100375000Y-62825000D01*
X98875000Y-62075000D02*
X100225000Y-62075000D01*
X100225000Y-62075000D02*
X100375000Y-62225000D01*
X92663610Y-66000008D02*
X92650006Y-66000008D01*
X74700000Y-61500000D02*
X73900000Y-60700000D01*
X95000000Y-66600008D02*
X95000000Y-68300000D01*
X77950002Y-64150002D02*
X75300000Y-61500000D01*
X94400000Y-66000008D02*
X92663610Y-66000008D01*
X95000000Y-66600008D02*
X94400000Y-66000008D01*
X75300000Y-61500000D02*
X74700000Y-61500000D01*
X78900000Y-65100000D02*
X77950002Y-64150002D01*
X91749998Y-65100000D02*
X78900000Y-65100000D01*
X92650006Y-66000008D02*
X91749998Y-65100000D01*
X73000000Y-57500000D02*
X72600000Y-57500000D01*
X72600000Y-57500000D02*
X72500000Y-57600000D01*
X72500000Y-57600000D02*
X72250000Y-57600000D01*
X70750000Y-57750000D02*
X72100000Y-57750000D01*
X72100000Y-57750000D02*
X72250000Y-57600000D01*
X74150000Y-57950000D02*
X72600000Y-57950000D01*
X72600000Y-57950000D02*
X72250000Y-57600000D01*
X92477214Y-66450010D02*
X92400008Y-66450010D01*
X72500000Y-60200000D02*
X74250002Y-61950002D01*
X94500000Y-66750010D02*
X94500000Y-68300000D01*
X77800000Y-64700000D02*
X75100000Y-62000000D01*
X75100000Y-62000000D02*
X75050002Y-61950002D01*
X94200000Y-66450010D02*
X92477214Y-66450010D01*
X94500000Y-66750010D02*
X94200000Y-66450010D01*
X75050002Y-61950002D02*
X74250002Y-61950002D01*
X78650002Y-65550002D02*
X77800000Y-64700000D01*
X91500000Y-65550002D02*
X78650002Y-65550002D01*
X92400008Y-66450010D02*
X91500000Y-65550002D01*
X72500000Y-60200000D02*
X72250000Y-60200000D01*
X70750000Y-60050000D02*
X72100000Y-60050000D01*
X72100000Y-60050000D02*
X72250000Y-60200000D01*
X74150000Y-59850000D02*
X72600000Y-59850000D01*
X72600000Y-59850000D02*
X72250000Y-60200000D01*
X100500000Y-68300000D02*
X100500000Y-64550002D01*
X103300000Y-62936398D02*
X103300000Y-60700000D01*
X102486396Y-63750002D02*
X103300000Y-62936398D01*
X101300000Y-63750002D02*
X102486396Y-63750002D01*
X100500000Y-64550002D02*
X101300000Y-63750002D01*
X102300000Y-57400000D02*
X102125000Y-57575000D01*
X102700000Y-57400000D02*
X102300000Y-57400000D01*
X102125000Y-57575000D02*
X101875000Y-57575000D01*
X101875000Y-57525000D02*
X101875000Y-57575000D01*
X100375000Y-57725000D02*
X101725000Y-57725000D01*
X101725000Y-57725000D02*
X101875000Y-57575000D01*
X103775000Y-57925000D02*
X102225000Y-57925000D01*
X102225000Y-57925000D02*
X101875000Y-57575000D01*
X100000000Y-68300000D02*
X100000000Y-64400000D01*
X102700000Y-61000000D02*
X101875000Y-60175000D01*
X102700000Y-62900000D02*
X102700000Y-61000000D01*
X102300000Y-63300000D02*
X102700000Y-62900000D01*
X101100000Y-63300000D02*
X102300000Y-63300000D01*
X100000000Y-64400000D02*
X101100000Y-63300000D01*
X100375000Y-60025000D02*
X101725000Y-60025000D01*
X101725000Y-60025000D02*
X101875000Y-60175000D01*
X103775000Y-59825000D02*
X102225000Y-59825000D01*
X102225000Y-59825000D02*
X101875000Y-60175000D01*
X85300000Y-137625000D02*
X85300000Y-134625000D01*
X99150000Y-63850000D02*
X99325000Y-63850000D01*
X97400000Y-62100000D02*
X99150000Y-63850000D01*
X81075000Y-69275000D02*
X82175000Y-68175000D01*
X81075000Y-130400000D02*
X81075000Y-69275000D01*
X85300000Y-134625000D02*
X81075000Y-130400000D01*
X97350000Y-62100000D02*
X97400000Y-62100000D01*
X97350000Y-62100000D02*
X96000000Y-62100000D01*
X96000000Y-62100000D02*
X95850000Y-62250000D01*
X78550004Y-131850004D02*
X78550004Y-129049996D01*
X91325000Y-60525000D02*
X91500000Y-60700000D01*
X94850000Y-56650000D02*
X95850000Y-55650000D01*
X94850000Y-56650000D02*
X92100000Y-56650000D01*
X92100000Y-56650000D02*
X91325000Y-57425000D01*
X91325000Y-57425000D02*
X91325000Y-60525000D01*
X78550004Y-67274996D02*
X79575000Y-66250000D01*
X78550004Y-129049996D02*
X78550004Y-71400000D01*
X78550004Y-71400000D02*
X78550004Y-67274996D01*
X98025000Y-146575000D02*
X98025000Y-144550000D01*
X98025000Y-144550000D02*
X93275000Y-139800000D01*
X93275000Y-139800000D02*
X93250000Y-139800000D01*
X96700000Y-147900000D02*
X98025000Y-146575000D01*
X80775000Y-134075000D02*
X78550004Y-131850004D01*
X97350000Y-55700000D02*
X96000000Y-55700000D01*
X96000000Y-55700000D02*
X95850000Y-55550000D01*
X95850000Y-55550000D02*
X95850000Y-55650000D01*
X99500000Y-68300000D02*
X99500000Y-64954408D01*
X94000000Y-63200000D02*
X93600000Y-62800000D01*
X93600000Y-62800000D02*
X93600000Y-60900000D01*
X93600000Y-60900000D02*
X94300000Y-60200000D01*
X97745592Y-63200000D02*
X94000000Y-63200000D01*
X99500000Y-64954408D02*
X97745592Y-63200000D01*
X94300000Y-60200000D02*
X94350000Y-60200000D01*
X92450000Y-59850000D02*
X94000000Y-59850000D01*
X94000000Y-59850000D02*
X94350000Y-60200000D01*
X95850000Y-60050000D02*
X94500000Y-60050000D01*
X94500000Y-60050000D02*
X94350000Y-60200000D01*
X99000000Y-68300000D02*
X99000000Y-65090806D01*
X93750002Y-63650002D02*
X93149998Y-63049998D01*
X93149998Y-63049998D02*
X93149998Y-60849998D01*
X93149998Y-60849998D02*
X93000000Y-60700000D01*
X93500000Y-57400000D02*
X93900000Y-57400000D01*
X93900000Y-57400000D02*
X94100000Y-57600000D01*
X97559196Y-63650002D02*
X93750002Y-63650002D01*
X99000000Y-65090806D02*
X97559196Y-63650002D01*
X94100000Y-57600000D02*
X94350000Y-57600000D01*
X92450000Y-57950000D02*
X94000000Y-57950000D01*
X94000000Y-57950000D02*
X94350000Y-57600000D01*
X95850000Y-57750000D02*
X94500000Y-57750000D01*
X94500000Y-57750000D02*
X94350000Y-57600000D01*
X78100002Y-132300002D02*
X78100002Y-128861396D01*
X90874998Y-60425002D02*
X90600000Y-60700000D01*
X87300000Y-56650000D02*
X86350000Y-55700000D01*
X87300000Y-56650000D02*
X90099998Y-56650000D01*
X90099998Y-56650000D02*
X90874998Y-57425000D01*
X90874998Y-57425000D02*
X90874998Y-60425002D01*
X78100002Y-66799998D02*
X78700000Y-66200000D01*
X78100002Y-128861396D02*
X78100002Y-66799998D01*
X80724998Y-134924998D02*
X78100002Y-132300002D01*
X81460000Y-147746398D02*
X79799998Y-146086396D01*
X79799998Y-146086396D02*
X79799998Y-140900000D01*
X79799998Y-140900000D02*
X80724998Y-139975000D01*
X80724998Y-139975000D02*
X80724998Y-137425000D01*
X80724998Y-137425000D02*
X80724998Y-134924998D01*
X81460000Y-147900000D02*
X81460000Y-147746398D01*
X83350000Y-55700000D02*
X84700000Y-55700000D01*
X84700000Y-55700000D02*
X84850000Y-55550000D01*
X84850000Y-55550000D02*
X86350000Y-55550000D01*
X86350000Y-55550000D02*
X86350000Y-55700000D01*
X81650000Y-137375000D02*
X81650000Y-134775000D01*
X81650000Y-140475000D02*
X81650000Y-137375000D01*
X82200000Y-141025000D02*
X81650000Y-140475000D01*
X90350000Y-146600000D02*
X90350000Y-143275000D01*
X89080000Y-147870000D02*
X90350000Y-146600000D01*
X79675000Y-131213602D02*
X79675000Y-67950000D01*
X81875002Y-133413604D02*
X79675000Y-131213602D01*
X81875002Y-134549998D02*
X81875002Y-133413604D01*
X81650000Y-134775000D02*
X81875002Y-134549998D01*
X83350000Y-62100000D02*
X83350000Y-62825000D01*
X83350000Y-62825000D02*
X82725000Y-63450000D01*
X89080000Y-147900000D02*
X89080000Y-147870000D01*
X83350000Y-62100000D02*
X84700000Y-62100000D01*
X84700000Y-62100000D02*
X84850000Y-62250000D01*
X84850000Y-62250000D02*
X86350000Y-62250000D01*
X93600000Y-64200000D02*
X91300000Y-61900000D01*
X98500000Y-68300000D02*
X98500000Y-65227204D01*
X88600000Y-57600000D02*
X87850000Y-57600000D01*
X97472796Y-64200000D02*
X93600000Y-64200000D01*
X98500000Y-65227204D02*
X97472796Y-64200000D01*
X90200000Y-61500000D02*
X89400000Y-60700000D01*
X90900000Y-61500000D02*
X90200000Y-61500000D01*
X91300000Y-61900000D02*
X90900000Y-61500000D01*
X86350000Y-57750000D02*
X87700000Y-57750000D01*
X87700000Y-57750000D02*
X87850000Y-57600000D01*
X89750000Y-57950000D02*
X88200000Y-57950000D01*
X88200000Y-57950000D02*
X87850000Y-57600000D01*
X93413604Y-64650002D02*
X93350002Y-64650002D01*
X98000000Y-65363602D02*
X97286400Y-64650002D01*
X97286400Y-64650002D02*
X96700000Y-64650002D01*
X96700000Y-64650002D02*
X93413604Y-64650002D01*
X98000000Y-68300000D02*
X98000000Y-65363602D01*
X89600002Y-61950002D02*
X87850000Y-60200000D01*
X90650002Y-61950002D02*
X89600002Y-61950002D01*
X93350002Y-64650002D02*
X90650002Y-61950002D01*
X88000000Y-60200000D02*
X87850000Y-60200000D01*
X88000000Y-60200000D02*
X87850000Y-60200000D01*
X86350000Y-60050000D02*
X87700000Y-60050000D01*
X87700000Y-60050000D02*
X87850000Y-60200000D01*
X89750000Y-59850000D02*
X88200000Y-59850000D01*
X88200000Y-59850000D02*
X87850000Y-60200000D01*
X88700000Y-69000000D02*
X92000000Y-69000000D01*
X94000000Y-69300000D02*
X94000000Y-68300000D01*
X93700000Y-69600000D02*
X94000000Y-69300000D01*
X92600000Y-69600000D02*
X93700000Y-69600000D01*
X92000000Y-69000000D02*
X92600000Y-69600000D01*
D50*
X128750000Y-73500000D02*
X128750000Y-72850000D01*
X128750000Y-72850000D02*
X126150000Y-70250000D01*
X126150000Y-70250000D02*
X126150000Y-69050000D01*
D47*
X127750000Y-56900000D02*
X127750000Y-57350000D01*
X127750000Y-57350000D02*
X129750000Y-59350000D01*
X122500000Y-56900000D02*
X122500000Y-57350000D01*
X122500000Y-57350000D02*
X124500000Y-59350000D01*
X117250000Y-56900000D02*
X117250000Y-57350000D01*
X117250000Y-57350000D02*
X119250000Y-59350000D01*
X113200000Y-71900000D02*
X112500000Y-71900000D01*
X117800000Y-82800000D02*
X116850002Y-81850002D01*
X116850002Y-81850002D02*
X116850002Y-77050002D01*
X116850002Y-77050002D02*
X114000000Y-74200000D01*
X114000000Y-74200000D02*
X114000000Y-72700000D01*
X114000000Y-72700000D02*
X113200000Y-71900000D01*
X117950000Y-87050000D02*
X117800000Y-86900000D01*
X92300000Y-70000000D02*
X91300000Y-70000000D01*
X93400000Y-71100000D02*
X92300000Y-70000000D01*
X93700000Y-71100000D02*
X93400000Y-71100000D01*
X112500000Y-71900000D02*
X112100000Y-71500000D01*
X125400000Y-91750000D02*
X122650000Y-91750000D01*
X122650000Y-91750000D02*
X117950000Y-87050000D01*
X117950000Y-87050000D02*
X117900000Y-87000000D01*
X112750002Y-73300000D02*
X112750002Y-73250002D01*
X112750002Y-73250002D02*
X111300000Y-71800000D01*
X91300000Y-72000000D02*
X92200000Y-72000000D01*
X92200000Y-72000000D02*
X92800000Y-71400000D01*
X113700004Y-78100000D02*
X113700004Y-77999996D01*
X112750002Y-75150002D02*
X112750002Y-73300000D01*
X113800000Y-76200000D02*
X112750002Y-75150002D01*
X113800000Y-77900000D02*
X113800000Y-76200000D01*
X113700004Y-77999996D02*
X113800000Y-77900000D01*
X113700004Y-85600000D02*
X113700004Y-78100000D01*
X113700004Y-78100000D02*
X113700004Y-78099996D01*
X115200002Y-91750000D02*
X113700004Y-90250002D01*
X113700004Y-90250002D02*
X113700004Y-85600000D01*
X116400000Y-91750000D02*
X115200002Y-91750000D01*
X120900000Y-86849998D02*
X116400000Y-82349998D01*
X116400000Y-82349998D02*
X116400000Y-77300000D01*
X116400000Y-77300000D02*
X113300000Y-74200000D01*
X113300000Y-74200000D02*
X113300000Y-72900000D01*
X134350000Y-91750000D02*
X131700000Y-89100000D01*
X131700000Y-89100000D02*
X123100000Y-89100000D01*
X123100000Y-89100000D02*
X120900000Y-86900000D01*
X120900000Y-86900000D02*
X120900000Y-86849998D01*
X92700000Y-72500000D02*
X92800000Y-72400000D01*
X92700000Y-72500000D02*
X91300000Y-72500000D01*
X134400000Y-91750000D02*
X134350000Y-91750000D01*
X112300000Y-73700000D02*
X111800000Y-73200000D01*
X92400000Y-73000000D02*
X91300000Y-73000000D01*
X92500000Y-73100000D02*
X92400000Y-73000000D01*
X93100000Y-73100000D02*
X92500000Y-73100000D01*
X93200000Y-73200000D02*
X93100000Y-73100000D01*
X112300000Y-73900000D02*
X112300000Y-73700000D01*
X111850000Y-86750000D02*
X112100000Y-86500000D01*
X112300000Y-75200000D02*
X112300000Y-73900000D01*
X112300000Y-73900000D02*
X112300000Y-73700000D01*
X112200000Y-75300000D02*
X112300000Y-75200000D01*
X112200000Y-86400000D02*
X112200000Y-75300000D01*
X112100000Y-86500000D02*
X112200000Y-86400000D01*
X107400000Y-91750000D02*
X107400000Y-91200000D01*
X107400000Y-91200000D02*
X111850000Y-86750000D01*
X111700000Y-75200000D02*
X111700000Y-75100000D01*
X111700000Y-86200000D02*
X111700000Y-75200000D01*
X111700000Y-75100000D02*
X111600000Y-75000000D01*
X111575000Y-86325000D02*
X111700000Y-86200000D01*
X107400000Y-108500000D02*
X107400000Y-107000000D01*
X93500000Y-75500000D02*
X91300000Y-75500000D01*
X94000000Y-75000000D02*
X93500000Y-75500000D01*
X107468199Y-90431801D02*
X111575000Y-86325000D01*
X106568199Y-90431801D02*
X107468199Y-90431801D01*
X106200000Y-90800000D02*
X106568199Y-90431801D01*
X106200000Y-92600000D02*
X106200000Y-90800000D01*
X106200000Y-92600000D02*
X106200000Y-92600000D01*
X106200000Y-105800000D02*
X106200000Y-92600000D01*
X107400000Y-107000000D02*
X106200000Y-105800000D01*
X114150006Y-85600000D02*
X114150006Y-78249994D01*
X122200000Y-92836398D02*
X119963602Y-90600000D01*
X119963602Y-90600000D02*
X115500000Y-90600000D01*
X115500000Y-90600000D02*
X114150006Y-89250006D01*
X114150006Y-89250006D02*
X114150006Y-85600000D01*
X125400000Y-108500000D02*
X122200000Y-105300000D01*
X122200000Y-105300000D02*
X122200000Y-92900000D01*
X122200000Y-92900000D02*
X122200000Y-92836398D01*
X94200000Y-76000000D02*
X91300000Y-76000000D01*
X94500000Y-75700000D02*
X94200000Y-76000000D01*
X114500000Y-77000000D02*
X114500000Y-76400000D01*
X114500000Y-77900000D02*
X114500000Y-77000000D01*
X114250002Y-78149998D02*
X114500000Y-77900000D01*
X114150006Y-78249994D02*
X114250002Y-78149998D01*
X93800000Y-77000000D02*
X94000000Y-76800000D01*
X94000000Y-76800000D02*
X95700000Y-76800000D01*
X95700000Y-76800000D02*
X96600000Y-77700000D01*
X91300000Y-77000000D02*
X93800000Y-77000000D01*
X113250002Y-77950002D02*
X113250002Y-78000000D01*
X113100000Y-77800000D02*
X113250002Y-77950002D01*
X113250002Y-86049998D02*
X113250002Y-85600000D01*
X113000000Y-86300000D02*
X113250002Y-86049998D01*
X113000000Y-105400000D02*
X113000000Y-86300000D01*
X113000000Y-105400000D02*
X116100000Y-108500000D01*
X113250002Y-77949998D02*
X113250002Y-78000000D01*
X113250002Y-78000000D02*
X113250002Y-85600000D01*
X116400000Y-108500000D02*
X116100000Y-108500000D01*
X114900000Y-80400000D02*
X114800000Y-80300000D01*
X116400000Y-125250000D02*
X116400000Y-123600000D01*
X116400000Y-84600000D02*
X116400000Y-89800000D01*
X114900000Y-83100000D02*
X116400000Y-84600000D01*
X114900000Y-80700000D02*
X114900000Y-83100000D01*
X114900000Y-80700000D02*
X114900000Y-80400000D01*
X97850000Y-79850000D02*
X95300000Y-77300000D01*
X95300000Y-77300000D02*
X95250000Y-77300000D01*
X94000000Y-77500000D02*
X94200000Y-77300000D01*
X94200000Y-77300000D02*
X95250000Y-77300000D01*
X95250000Y-77300000D02*
X95300000Y-77300000D01*
X94000000Y-77500000D02*
X91300000Y-77500000D01*
X115449998Y-80100000D02*
X115449998Y-79849998D01*
X94200000Y-78000000D02*
X94400000Y-77800000D01*
X94400000Y-77800000D02*
X94800000Y-77800000D01*
X94800000Y-77800000D02*
X96200000Y-79200000D01*
X94200000Y-78000000D02*
X91300000Y-78000000D01*
X115449998Y-79849998D02*
X115200000Y-79600000D01*
X125400000Y-123600000D02*
X125400000Y-125250000D01*
X125000000Y-90100000D02*
X125300000Y-90400000D01*
X122800000Y-90100000D02*
X125000000Y-90100000D01*
X115449998Y-82749998D02*
X122800000Y-90100000D01*
X115449998Y-80049998D02*
X115449998Y-80100000D01*
X115449998Y-80100000D02*
X115449998Y-82749998D01*
X120200000Y-86836398D02*
X120200000Y-86800000D01*
X120200000Y-86836398D02*
X120781801Y-87418199D01*
X91300000Y-78500000D02*
X94600000Y-78500000D01*
X115900000Y-79300000D02*
X115900000Y-82500000D01*
X115100000Y-78500000D02*
X115900000Y-79300000D01*
X134400000Y-124400000D02*
X134900000Y-123900000D01*
X134400000Y-124400000D02*
X134400000Y-125250000D01*
X122913604Y-89550002D02*
X120781801Y-87418199D01*
X129750002Y-89550002D02*
X122913604Y-89550002D01*
X131500000Y-91300000D02*
X129750002Y-89550002D01*
X120200000Y-86800000D02*
X115900000Y-82500000D01*
X95900000Y-89500000D02*
X95900000Y-89000000D01*
X95900000Y-105100000D02*
X95900000Y-89500000D01*
X96400000Y-105600000D02*
X95900000Y-105100000D01*
X99100000Y-105600000D02*
X96400000Y-105600000D01*
X100100000Y-104600000D02*
X99100000Y-105600000D01*
X92200000Y-79000000D02*
X92400000Y-79200000D01*
X92400000Y-79200000D02*
X92400000Y-86200000D01*
X92400000Y-86200000D02*
X91900000Y-86700000D01*
X91900000Y-86700000D02*
X91900000Y-87200000D01*
X92200000Y-79000000D02*
X91300000Y-79000000D01*
X95900000Y-89000000D02*
X95100000Y-88200000D01*
X100250000Y-104600000D02*
X100100000Y-104600000D01*
X88000000Y-78975000D02*
X88650000Y-78975000D01*
X91300000Y-79500000D02*
X90100000Y-79500000D01*
X89175000Y-79500000D02*
X90100000Y-79500000D01*
X88650000Y-78975000D02*
X89175000Y-79500000D01*
X88725000Y-80000000D02*
X91300000Y-80000000D01*
X88575000Y-79850000D02*
X88725000Y-80000000D01*
X88350000Y-80500000D02*
X88325000Y-80500000D01*
X88350000Y-80500000D02*
X90075000Y-80500000D01*
X90075000Y-80500000D02*
X91300000Y-80500000D01*
X87450000Y-79625000D02*
X88100000Y-80275000D01*
X88325000Y-80500000D02*
X88100000Y-80275000D01*
X92100000Y-93900000D02*
X92100000Y-95500000D01*
X87800000Y-102500000D02*
X87800000Y-99700000D01*
X94400000Y-105600000D02*
X94200000Y-105600000D01*
X94949998Y-106149998D02*
X94400000Y-105600000D01*
X94949998Y-114150002D02*
X94949998Y-106149998D01*
X94300000Y-114800000D02*
X94949998Y-114150002D01*
X91900000Y-114800000D02*
X94300000Y-114800000D01*
X90500000Y-116200000D02*
X91900000Y-114800000D01*
X90263602Y-81000000D02*
X89700000Y-81563602D01*
X89700000Y-81563602D02*
X89700000Y-82650002D01*
X89700000Y-82650002D02*
X90100000Y-83050002D01*
X90100000Y-83050002D02*
X90100000Y-88100000D01*
X90100000Y-88100000D02*
X92100000Y-90100000D01*
X92100000Y-90100000D02*
X92100000Y-93900000D01*
X90263602Y-81000000D02*
X91300000Y-81000000D01*
X87800000Y-96900000D02*
X87800000Y-99700000D01*
X88200000Y-96500000D02*
X87800000Y-96900000D01*
X91100000Y-96500000D02*
X88200000Y-96500000D01*
X92100000Y-95500000D02*
X91100000Y-96500000D01*
X90500000Y-116650000D02*
X90500000Y-116200000D01*
X91300000Y-81500000D02*
X90400000Y-81500000D01*
X99100000Y-124600000D02*
X100100000Y-123600000D01*
X99100000Y-124600000D02*
X96400000Y-124600000D01*
X96400000Y-124600000D02*
X95900000Y-124100000D01*
X95900000Y-124100000D02*
X95900000Y-115300000D01*
X95900000Y-115300000D02*
X95400000Y-114800000D01*
X95400000Y-114800000D02*
X95400000Y-105936398D01*
X95400000Y-105936398D02*
X94999996Y-105536394D01*
X94999996Y-105536394D02*
X94999996Y-96600000D01*
X94999996Y-90900000D02*
X94999996Y-96600000D01*
X94999996Y-90399996D02*
X94999996Y-90900000D01*
X94000000Y-89400000D02*
X94999996Y-90399996D01*
X90600000Y-87700000D02*
X91900000Y-89000000D01*
X90600000Y-82850002D02*
X90600000Y-87700000D01*
X90200000Y-82450002D02*
X90600000Y-82850002D01*
X90200000Y-81700000D02*
X90200000Y-82450002D01*
X90400000Y-81500000D02*
X90200000Y-81700000D01*
X100250000Y-123600000D02*
X100100000Y-123600000D01*
X91300000Y-82000000D02*
X91100000Y-82200000D01*
X95449998Y-105349998D02*
X95449998Y-90100000D01*
X95900000Y-105800000D02*
X95449998Y-105349998D01*
X95900000Y-114600000D02*
X95900000Y-105800000D01*
X96400000Y-115100000D02*
X95900000Y-114600000D01*
X99100000Y-115100000D02*
X96400000Y-115100000D01*
X99100000Y-115100000D02*
X100100000Y-114100000D01*
X95449998Y-89749998D02*
X95449998Y-90100000D01*
X94400000Y-88700000D02*
X95449998Y-89749998D01*
X91100000Y-87300000D02*
X91800000Y-88000000D01*
X91100000Y-82200000D02*
X91100000Y-87300000D01*
X100250000Y-114100000D02*
X100100000Y-114100000D01*
X90500000Y-97650000D02*
X90650000Y-97650000D01*
X90650000Y-97650000D02*
X92600000Y-95700000D01*
X92600000Y-95700000D02*
X92600000Y-86700000D01*
X92600000Y-86700000D02*
X93000000Y-86300000D01*
X93000000Y-86300000D02*
X93000000Y-83700000D01*
X97400000Y-87250000D02*
X97400000Y-85900000D01*
X96500000Y-85000000D02*
X96500000Y-83700000D01*
X97400000Y-85900000D02*
X96500000Y-85000000D01*
X97300000Y-89500000D02*
X97300000Y-87350000D01*
X97300000Y-87350000D02*
X97400000Y-87250000D01*
X99600000Y-87250000D02*
X99386398Y-87250000D01*
X99386398Y-87250000D02*
X97000000Y-84863602D01*
X97000000Y-84863602D02*
X97000000Y-83700000D01*
X99700000Y-89500000D02*
X99700000Y-87350000D01*
X99700000Y-87350000D02*
X99600000Y-87250000D01*
X97500000Y-81975000D02*
X97500000Y-83700000D01*
X128150000Y-83750000D02*
X126775000Y-83750000D01*
X98000000Y-83700000D02*
X98000000Y-82575000D01*
X98000000Y-82575000D02*
X98250000Y-82325000D01*
X128150000Y-88250000D02*
X127700000Y-88250000D01*
X127700000Y-88250000D02*
X123875000Y-84425000D01*
X115675000Y-64625000D02*
X117250000Y-63050000D01*
X117250000Y-59100000D02*
X117250000Y-63050000D01*
X99000000Y-82600000D02*
X99000000Y-83700000D01*
X100525000Y-81075000D02*
X99000000Y-82600000D01*
X100525000Y-71450000D02*
X100525000Y-81075000D01*
X101575000Y-70400000D02*
X100525000Y-71450000D01*
X102100000Y-87800000D02*
X101600000Y-87300000D01*
X101600000Y-87300000D02*
X101600000Y-86400000D01*
X101600000Y-86400000D02*
X100800000Y-85600000D01*
X100800000Y-85600000D02*
X99900000Y-85600000D01*
X99900000Y-85600000D02*
X99500000Y-85200000D01*
X99500000Y-83700000D02*
X99500000Y-85200000D01*
X133600000Y-108500000D02*
X134400000Y-108500000D01*
X124500000Y-94500000D02*
X118000000Y-88000000D01*
X124500000Y-106000000D02*
X124500000Y-94500000D01*
X124800000Y-106300000D02*
X124500000Y-106000000D01*
X131400000Y-106300000D02*
X124800000Y-106300000D01*
X133600000Y-108500000D02*
X131400000Y-106300000D01*
X118000000Y-88000000D02*
X117800000Y-87800000D01*
X90500000Y-107150000D02*
X90550000Y-107150000D01*
X90550000Y-107150000D02*
X91300000Y-106400000D01*
X104300000Y-106300000D02*
X104500000Y-106100000D01*
X104500000Y-106100000D02*
X104500000Y-88600000D01*
X104500000Y-88600000D02*
X101049998Y-85149998D01*
X101049998Y-85149998D02*
X100249998Y-85149998D01*
X100249998Y-85149998D02*
X100000000Y-84900000D01*
X100000000Y-84900000D02*
X100000000Y-83700000D01*
X110800000Y-83200000D02*
X106500000Y-83200000D01*
X102000000Y-81600000D02*
X102000000Y-83700000D01*
X102300000Y-81300000D02*
X102000000Y-81600000D01*
X104600000Y-81300000D02*
X102300000Y-81300000D01*
X106500000Y-83200000D02*
X104600000Y-81300000D01*
X61100000Y-115750000D02*
X60950000Y-115750000D01*
X60950000Y-115750000D02*
X59800000Y-114600000D01*
X59800000Y-112450000D02*
X58850000Y-111500000D01*
X59800000Y-114600000D02*
X59800000Y-112450000D01*
X63575000Y-108600000D02*
X63750000Y-108425000D01*
X62225000Y-109950000D02*
X63575000Y-108600000D01*
X62225000Y-114950000D02*
X62225000Y-109950000D01*
X61425000Y-115750000D02*
X62225000Y-114950000D01*
X102500000Y-84925000D02*
X102500000Y-83700000D01*
X102175000Y-85250000D02*
X102500000Y-84925000D01*
X73725000Y-88075000D02*
X74300000Y-87500000D01*
X73725000Y-108249998D02*
X73725000Y-88075000D01*
X73549998Y-108425000D02*
X73725000Y-108249998D01*
X63750000Y-108425000D02*
X73549998Y-108425000D01*
X61100000Y-115750000D02*
X61425000Y-115750000D01*
X69900000Y-115750000D02*
X69950000Y-115750000D01*
X69950000Y-115750000D02*
X71200000Y-114500000D01*
X71200000Y-112350000D02*
X72050000Y-111500000D01*
X71200000Y-114500000D02*
X71200000Y-112350000D01*
X63893199Y-108918199D02*
X73706801Y-108918199D01*
X63900000Y-115750000D02*
X62675002Y-114525002D01*
X62675002Y-114525002D02*
X62675002Y-110136396D01*
X62675002Y-110136396D02*
X63893199Y-108918199D01*
X69900000Y-115750000D02*
X63900000Y-115750000D01*
X103000000Y-85600000D02*
X103000000Y-83700000D01*
X102700000Y-85900000D02*
X103000000Y-85600000D01*
X74375000Y-108250000D02*
X74375000Y-88325000D01*
X73706801Y-108918199D02*
X74375000Y-108250000D01*
X102300000Y-76600000D02*
X102900000Y-76000000D01*
X102300000Y-77075000D02*
X102300000Y-76600000D01*
X102300000Y-78050000D02*
X102300000Y-77075000D01*
X102300000Y-80550000D02*
X102300000Y-78050000D01*
X106700000Y-76000000D02*
X102900000Y-76000000D01*
X102750000Y-75500000D02*
X106700000Y-75500000D01*
X101825000Y-76425000D02*
X102750000Y-75500000D01*
X101825000Y-79925000D02*
X101825000Y-76425000D01*
X101200000Y-80550000D02*
X101825000Y-79925000D01*
X87975000Y-70500000D02*
X91300000Y-70500000D01*
X87700000Y-70225000D02*
X87975000Y-70500000D01*
X74500000Y-78400000D02*
X74500000Y-76450000D01*
X65580000Y-71350000D02*
X64750000Y-70520000D01*
X69400000Y-71350000D02*
X65580000Y-71350000D01*
X74500000Y-76450000D02*
X69400000Y-71350000D01*
X64750000Y-69250000D02*
X61120000Y-69250000D01*
X61120000Y-69250000D02*
X60500000Y-68630000D01*
X87275000Y-71000000D02*
X91300000Y-71000000D01*
X87150000Y-70875000D02*
X87275000Y-71000000D01*
X76250000Y-78400000D02*
X76250000Y-77500000D01*
X69270000Y-70520000D02*
X67750000Y-70520000D01*
X76250000Y-77500000D02*
X69270000Y-70520000D01*
X67750000Y-69250000D02*
X67750000Y-68400000D01*
X67750000Y-68400000D02*
X66350000Y-67000000D01*
X58400000Y-115750000D02*
X58400000Y-113500000D01*
X59230000Y-118500000D02*
X59230000Y-118480000D01*
X59230000Y-118480000D02*
X58400000Y-117650000D01*
X58400000Y-117650000D02*
X58400000Y-115750000D01*
X71750000Y-129250000D02*
X71750000Y-131150000D01*
X71750000Y-131150000D02*
X72600000Y-132000000D01*
X59250000Y-129250000D02*
X59250000Y-131150000D01*
X59250000Y-131150000D02*
X58400000Y-132000000D01*
X65817500Y-120095700D02*
X65817500Y-118957500D01*
X66275000Y-118500000D02*
X70500000Y-118500000D01*
X65817500Y-118957500D02*
X66275000Y-118500000D01*
X65182500Y-120095700D02*
X65182500Y-119132500D01*
X64550000Y-118500000D02*
X60500000Y-118500000D01*
X65182500Y-119132500D02*
X64550000Y-118500000D01*
D49*
X118600000Y-127000000D02*
X118600000Y-126900000D01*
X118600000Y-126900000D02*
X119100000Y-126400000D01*
X119100000Y-126400000D02*
X119100000Y-125250000D01*
X121030000Y-129800000D02*
X121030000Y-127970000D01*
X120060000Y-127000000D02*
X118600000Y-127000000D01*
X121030000Y-127970000D02*
X120060000Y-127000000D01*
D48*
X107520000Y-145360000D02*
X107520000Y-143980000D01*
X115400000Y-136100000D02*
X118750000Y-136100000D01*
X107520000Y-143980000D02*
X115400000Y-136100000D01*
D49*
X127600000Y-127000000D02*
X127600000Y-126900000D01*
X127600000Y-126900000D02*
X128100000Y-126400000D01*
X128100000Y-126400000D02*
X128100000Y-125250000D01*
X130030000Y-129800000D02*
X130030000Y-128130000D01*
X128900000Y-127000000D02*
X127600000Y-127000000D01*
X130030000Y-128130000D02*
X128900000Y-127000000D01*
D48*
X107520000Y-147900000D02*
X107600000Y-147900000D01*
X107600000Y-147900000D02*
X109250000Y-146250000D01*
X109250000Y-146250000D02*
X109250000Y-143947060D01*
X109250000Y-143947060D02*
X112947060Y-140250000D01*
X112947060Y-140250000D02*
X123600000Y-140250000D01*
X123600000Y-140250000D02*
X127750000Y-136100000D01*
D49*
X119100000Y-108500000D02*
X119100000Y-109750000D01*
X119100000Y-109750000D02*
X118600000Y-110250000D01*
X121030000Y-113050000D02*
X121030000Y-112680000D01*
X121030000Y-113050000D02*
X121000000Y-113020000D01*
X121000000Y-113020000D02*
X121000000Y-111550000D01*
X121000000Y-111550000D02*
X119700000Y-110250000D01*
X119700000Y-110250000D02*
X118600000Y-110250000D01*
D48*
X122500000Y-123100000D02*
X118750000Y-119350000D01*
X122750000Y-138750000D02*
X122500000Y-138500000D01*
X122500000Y-138500000D02*
X122500000Y-123100000D01*
D49*
X136600000Y-127000000D02*
X136600000Y-126950000D01*
X136600000Y-126950000D02*
X137100000Y-126450000D01*
X137100000Y-126450000D02*
X137100000Y-125250000D01*
X139030000Y-129800000D02*
X139030000Y-128080000D01*
X137950000Y-127000000D02*
X136600000Y-127000000D01*
X139030000Y-128080000D02*
X137950000Y-127000000D01*
D48*
X107520000Y-152980000D02*
X107980000Y-152980000D01*
X107980000Y-152980000D02*
X109750000Y-154750000D01*
X109750000Y-154750000D02*
X113500000Y-154750000D01*
X113500000Y-154750000D02*
X117250000Y-151000000D01*
X117250000Y-151000000D02*
X127750000Y-151000000D01*
X127750000Y-151000000D02*
X136750000Y-142000000D01*
X136750000Y-142000000D02*
X136750000Y-136100000D01*
D49*
X130350000Y-85250000D02*
X130350000Y-85075000D01*
X130350000Y-85075000D02*
X131330000Y-84095000D01*
X133050000Y-84095000D02*
X131330000Y-84095000D01*
X131330000Y-84095000D02*
X130695000Y-84095000D01*
X130695000Y-84095000D02*
X130350000Y-83750000D01*
X130350000Y-88250000D02*
X130350000Y-87775000D01*
X130350000Y-87775000D02*
X131490000Y-86635000D01*
X133050000Y-86635000D02*
X131490000Y-86635000D01*
X131490000Y-86635000D02*
X130465000Y-86635000D01*
X130465000Y-86635000D02*
X130350000Y-86750000D01*
X136600000Y-110250000D02*
X136600000Y-110200000D01*
X136600000Y-110200000D02*
X137100000Y-109700000D01*
X137100000Y-109700000D02*
X137100000Y-108500000D01*
X139030000Y-113050000D02*
X139030000Y-111730000D01*
X137550000Y-110250000D02*
X136600000Y-110250000D01*
X139030000Y-111730000D02*
X137550000Y-110250000D01*
D48*
X115810000Y-150440000D02*
X115960000Y-150440000D01*
X111020000Y-150440000D02*
X115810000Y-150440000D01*
X115960000Y-150440000D02*
X120150000Y-146250000D01*
X132750000Y-124500000D02*
X136750000Y-120500000D01*
X132750000Y-126250000D02*
X132750000Y-124500000D01*
X133000000Y-126500000D02*
X132750000Y-126250000D01*
X133000000Y-143750000D02*
X133000000Y-126500000D01*
X130500000Y-146250000D02*
X133000000Y-143750000D01*
X120150000Y-146250000D02*
X130500000Y-146250000D01*
X136750000Y-120500000D02*
X136750000Y-119350000D01*
X138850000Y-119350000D02*
X136750000Y-119350000D01*
D49*
X127600000Y-110250000D02*
X127600000Y-109900000D01*
X127600000Y-109900000D02*
X128100000Y-109400000D01*
X128100000Y-109400000D02*
X128100000Y-108500000D01*
X130030000Y-113050000D02*
X130030000Y-111730000D01*
X128550000Y-110250000D02*
X127600000Y-110250000D01*
X130030000Y-111730000D02*
X128550000Y-110250000D01*
D48*
X116600000Y-147900000D02*
X116802940Y-147900000D01*
X111020000Y-147900000D02*
X116600000Y-147900000D01*
X116802940Y-147900000D02*
X119702940Y-145000000D01*
X131500000Y-123100000D02*
X127750000Y-119350000D01*
X131500000Y-127000000D02*
X131500000Y-123100000D01*
X131799998Y-127299998D02*
X131500000Y-127000000D01*
X131799998Y-143250000D02*
X131799998Y-127299998D01*
X130049998Y-145000000D02*
X131799998Y-143250000D01*
X119702940Y-145000000D02*
X130049998Y-145000000D01*
D49*
X110100000Y-92800000D02*
X110100000Y-91750000D01*
X109600000Y-93500000D02*
X109600000Y-93300000D01*
X109600000Y-93300000D02*
X110100000Y-92800000D01*
X112030000Y-96300000D02*
X112030000Y-94730000D01*
X110800000Y-93500000D02*
X109600000Y-93500000D01*
X112030000Y-94730000D02*
X110800000Y-93500000D01*
D48*
X109750000Y-102600000D02*
X109750000Y-105550000D01*
X109750000Y-105550000D02*
X114900000Y-110700000D01*
X89080000Y-157080000D02*
X89080000Y-152980000D01*
X90500000Y-158500000D02*
X89080000Y-157080000D01*
X115300000Y-141675000D02*
X115300000Y-146300000D01*
X114900000Y-110700000D02*
X114900000Y-131500000D01*
X114900000Y-131500000D02*
X115200000Y-131800000D01*
X109750000Y-102600000D02*
X109750000Y-103550000D01*
D49*
X127600000Y-93500000D02*
X128100000Y-93000000D01*
X128100000Y-93000000D02*
X128100000Y-91750000D01*
X130030000Y-96300000D02*
X130030000Y-94630000D01*
X128900000Y-93500000D02*
X127600000Y-93500000D01*
X130030000Y-94630000D02*
X128900000Y-93500000D01*
D48*
X127750000Y-102600000D02*
X129100000Y-102600000D01*
X129100000Y-102600000D02*
X133250000Y-106750000D01*
X133250000Y-106750000D02*
X139799998Y-106750000D01*
X139799998Y-106750000D02*
X141000000Y-107950002D01*
X141000000Y-107950002D02*
X141000000Y-151750000D01*
X141000000Y-151750000D02*
X133950002Y-158799998D01*
X133950002Y-158799998D02*
X93049998Y-158799998D01*
X93049998Y-158799998D02*
X93000000Y-158750000D01*
X93000000Y-158750000D02*
X91750000Y-157500000D01*
X91750000Y-157500000D02*
X91750000Y-153110000D01*
X91750000Y-153110000D02*
X91620000Y-152980000D01*
D49*
X136600000Y-93500000D02*
X136600000Y-93300000D01*
X136600000Y-93300000D02*
X137100000Y-92800000D01*
X137100000Y-92800000D02*
X137100000Y-91750000D01*
X139030000Y-96300000D02*
X139030000Y-94830000D01*
X137700000Y-93500000D02*
X136600000Y-93500000D01*
X139030000Y-94830000D02*
X137700000Y-93500000D01*
D48*
X142250000Y-152250000D02*
X142250000Y-152500000D01*
X81460000Y-158710000D02*
X81460000Y-152980000D01*
X82750000Y-160000000D02*
X81460000Y-158710000D01*
X134750000Y-160000000D02*
X82750000Y-160000000D01*
X135000000Y-159750000D02*
X134750000Y-160000000D01*
X142250000Y-152500000D02*
X135000000Y-159750000D01*
X136750000Y-102600000D02*
X140350000Y-102600000D01*
X142250000Y-152250000D02*
X142250000Y-151500000D01*
X142250000Y-104500000D02*
X142250000Y-152250000D01*
X140350000Y-102600000D02*
X142250000Y-104500000D01*
D49*
X109600000Y-110250000D02*
X109600000Y-110000000D01*
X109600000Y-110000000D02*
X110100000Y-109500000D01*
X110100000Y-109500000D02*
X110100000Y-108500000D01*
X112030000Y-113050000D02*
X112030000Y-111530000D01*
X110750000Y-110250000D02*
X109600000Y-110250000D01*
X112030000Y-111530000D02*
X110750000Y-110250000D01*
D48*
X85000000Y-157000000D02*
X84000000Y-156000000D01*
X84000000Y-152980000D02*
X84000000Y-156000000D01*
X113600000Y-135800000D02*
X113300000Y-136100000D01*
X113600000Y-124500000D02*
X113600000Y-135800000D01*
X113600000Y-124500000D02*
X109750000Y-120650000D01*
X113400000Y-141925000D02*
X113400000Y-146400000D01*
X113650000Y-141675000D02*
X113400000Y-141925000D01*
X109750000Y-119350000D02*
X109750000Y-120650000D01*
D49*
X118600000Y-93500000D02*
X118600000Y-93400000D01*
X118600000Y-93400000D02*
X119100000Y-92900000D01*
X119100000Y-92900000D02*
X119100000Y-91750000D01*
X121030000Y-96300000D02*
X121030000Y-94530000D01*
X120000000Y-93500000D02*
X118600000Y-93500000D01*
X121030000Y-94530000D02*
X120000000Y-93500000D01*
D48*
X123700002Y-137150002D02*
X123925000Y-137375000D01*
X123700002Y-110200002D02*
X123700002Y-137150002D01*
X118750000Y-105250000D02*
X123700002Y-110200002D01*
X86540000Y-157840000D02*
X86540000Y-152980000D01*
X87200000Y-158500000D02*
X86540000Y-157840000D01*
X118750000Y-102600000D02*
X118750000Y-105250000D01*
D47*
X98500000Y-114100000D02*
X98500000Y-114000000D01*
X100250000Y-111900000D02*
X100250000Y-112350000D01*
X100250000Y-112350000D02*
X98500000Y-114100000D01*
X100250000Y-111900000D02*
X100250000Y-109850000D01*
X98325000Y-107925000D02*
X97050000Y-107925000D01*
X100250000Y-109850000D02*
X98325000Y-107925000D01*
D48*
X105250000Y-128300000D02*
X105250000Y-125800000D01*
X102800000Y-108250000D02*
X101550000Y-108250000D01*
X103300000Y-108750000D02*
X102800000Y-108250000D01*
X103300000Y-116550000D02*
X103300000Y-108750000D01*
X104300002Y-117550002D02*
X103300000Y-116550000D01*
X104300002Y-124850002D02*
X104300002Y-117550002D01*
X105250000Y-125800000D02*
X104300002Y-124850002D01*
D47*
X92250000Y-116650000D02*
X92250000Y-117100000D01*
X92250000Y-117100000D02*
X90500000Y-118850000D01*
X90500000Y-118850000D02*
X90500000Y-120700000D01*
X92625000Y-122825000D02*
X93700000Y-122825000D01*
X90500000Y-120700000D02*
X92625000Y-122825000D01*
D48*
X97250000Y-128300000D02*
X97250000Y-127850000D01*
X97250000Y-127850000D02*
X94000000Y-124600000D01*
X94000000Y-124600000D02*
X92700000Y-124600000D01*
X92700000Y-124600000D02*
X90600000Y-122500000D01*
X90600000Y-122500000D02*
X89400000Y-122500000D01*
D47*
X92250000Y-97650000D02*
X92250000Y-98100000D01*
X92250000Y-98100000D02*
X90500000Y-99850000D01*
X90500000Y-99850000D02*
X90500000Y-101900000D01*
X92425000Y-103825000D02*
X93700000Y-103825000D01*
X90500000Y-101900000D02*
X92425000Y-103825000D01*
D48*
X89250000Y-128300000D02*
X89250000Y-127950000D01*
X89250000Y-127950000D02*
X86399998Y-125099998D01*
X86399998Y-125099998D02*
X86399998Y-112700002D01*
X86399998Y-112700002D02*
X87600000Y-111500000D01*
X87600000Y-111500000D02*
X87600000Y-104100000D01*
X87600000Y-104100000D02*
X88200000Y-103500000D01*
X88200000Y-103500000D02*
X89200000Y-103500000D01*
D47*
X100250000Y-102400000D02*
X100250000Y-102850000D01*
X100250000Y-102850000D02*
X98500000Y-104600000D01*
X100250000Y-102400000D02*
X100250000Y-100250000D01*
X98425000Y-98425000D02*
X97050000Y-98425000D01*
X100250000Y-100250000D02*
X98425000Y-98425000D01*
D48*
X109250000Y-128300000D02*
X109250000Y-128000000D01*
X109250000Y-128000000D02*
X105500004Y-124250004D01*
X105500004Y-124250004D02*
X105500004Y-117000002D01*
X105500004Y-117000002D02*
X104500002Y-116000000D01*
X104500002Y-116000000D02*
X104500002Y-108200002D01*
X104500002Y-108200002D02*
X103250000Y-106950000D01*
X103250000Y-106950000D02*
X103250000Y-99350000D01*
X103250000Y-99350000D02*
X102650000Y-98750000D01*
X102650000Y-98750000D02*
X101500000Y-98750000D01*
D47*
X100250000Y-121400000D02*
X100250000Y-121850000D01*
X100250000Y-121850000D02*
X98500000Y-123600000D01*
X100250000Y-121400000D02*
X100250000Y-119350000D01*
X98325000Y-117425000D02*
X97050000Y-117425000D01*
X100250000Y-119350000D02*
X98325000Y-117425000D01*
D48*
X101250000Y-128300000D02*
X101250000Y-126550000D01*
X102550000Y-117750000D02*
X101400000Y-117750000D01*
X103100000Y-118300000D02*
X102550000Y-117750000D01*
X103100000Y-124700000D02*
X103100000Y-118300000D01*
X101250000Y-126550000D02*
X103100000Y-124700000D01*
D47*
X92250000Y-107150000D02*
X92250000Y-107600000D01*
X92250000Y-107600000D02*
X90500000Y-109350000D01*
X90500000Y-109350000D02*
X90500000Y-111200000D01*
X92625000Y-113325000D02*
X93700000Y-113325000D01*
X90500000Y-111200000D02*
X92625000Y-113325000D01*
D48*
X93250000Y-128300000D02*
X93250000Y-127550000D01*
X93250000Y-127550000D02*
X90900000Y-125200000D01*
X90900000Y-125200000D02*
X88200000Y-125200000D01*
X88200000Y-125200000D02*
X87600000Y-124600000D01*
X87600000Y-124600000D02*
X87600000Y-113600000D01*
X87600000Y-113600000D02*
X88200000Y-113000000D01*
X88200000Y-113000000D02*
X89300000Y-113000000D01*
D47*
X64150000Y-65250000D02*
X63730000Y-65250000D01*
X63730000Y-65250000D02*
X62890000Y-66090000D01*
X64150000Y-67000000D02*
X63800000Y-67000000D01*
X63800000Y-67000000D02*
X62890000Y-66090000D01*
X62890000Y-66090000D02*
X60500000Y-66090000D01*
X64150000Y-67000000D02*
X64150000Y-65250000D01*
D48*
X66960000Y-81500000D02*
X66960000Y-81740000D01*
X66960000Y-81740000D02*
X62500000Y-86200000D01*
X62500000Y-86200000D02*
X58650000Y-86200000D01*
D47*
X72600000Y-115750000D02*
X72600000Y-113500000D01*
X71770000Y-118500000D02*
X71770000Y-118480000D01*
X71770000Y-118480000D02*
X72600000Y-117650000D01*
X72600000Y-117650000D02*
X72600000Y-115750000D01*
X96700000Y-145360000D02*
X96700000Y-143875000D01*
X92900000Y-140450000D02*
X92450000Y-140000000D01*
X93275000Y-140450000D02*
X92900000Y-140450000D01*
X96700000Y-143875000D02*
X93275000Y-140450000D01*
X73000000Y-81175000D02*
X73000000Y-80450000D01*
X73575000Y-81750000D02*
X73000000Y-81175000D01*
X74850000Y-81750000D02*
X73575000Y-81750000D01*
X75724996Y-82624996D02*
X74850000Y-81750000D01*
X75724996Y-131288604D02*
X75724996Y-82624996D01*
X75099998Y-131913602D02*
X75724996Y-131288604D01*
X75099998Y-133024998D02*
X75099998Y-131913602D01*
X76625000Y-134550000D02*
X75099998Y-133024998D01*
X78350000Y-134550000D02*
X76625000Y-134550000D01*
X78375000Y-142375000D02*
X78375000Y-148125000D01*
X80950000Y-151700000D02*
X79300000Y-150050000D01*
X87625000Y-151700000D02*
X80950000Y-151700000D01*
X87625000Y-151700000D02*
X88885000Y-150440000D01*
X79300000Y-150050000D02*
X79300000Y-149050000D01*
X79300000Y-149050000D02*
X78375000Y-148125000D01*
X78375000Y-142375000D02*
X77900000Y-141900000D01*
X78375000Y-142375000D02*
X77900000Y-141900000D01*
X89080000Y-150440000D02*
X88885000Y-150440000D01*
X77900000Y-140100000D02*
X78100000Y-140100000D01*
X78100000Y-140100000D02*
X78850000Y-140850000D01*
X79800000Y-148875000D02*
X78850000Y-147925000D01*
X78850000Y-147925000D02*
X78850000Y-140850000D01*
X80100000Y-149150000D02*
X79825000Y-148875000D01*
X79825000Y-148875000D02*
X79800000Y-148875000D01*
X79481800Y-140581800D02*
X79325000Y-140738600D01*
X79700000Y-138300000D02*
X79700000Y-140363600D01*
X79700000Y-140363600D02*
X79481800Y-140581800D01*
X79481800Y-140581800D02*
X79481799Y-140581801D01*
X81000000Y-149150000D02*
X79325000Y-147475000D01*
X79325000Y-147475000D02*
X79325000Y-140738600D01*
X91340000Y-150440000D02*
X90050000Y-149150000D01*
X90050000Y-149150000D02*
X81000000Y-149150000D01*
X91620000Y-150440000D02*
X91340000Y-150440000D01*
X69300000Y-141675000D02*
X67650000Y-140025000D01*
X67650000Y-140025000D02*
X67650000Y-131875000D01*
X67650000Y-131875000D02*
X65520000Y-129745000D01*
X65520000Y-129745000D02*
X65520000Y-129250000D01*
X66950000Y-140125000D02*
X65520000Y-138695000D01*
X65520000Y-138695000D02*
X65520000Y-132750000D01*
D49*
X138450000Y-86635000D02*
X140435000Y-86635000D01*
X140435000Y-86635000D02*
X140450000Y-86650000D01*
X96700000Y-154200000D02*
X96700000Y-152980000D01*
X98275000Y-155775000D02*
X96700000Y-154200000D01*
X131825000Y-155775000D02*
X98275000Y-155775000D01*
X138075000Y-149525000D02*
X131825000Y-155775000D01*
X94160000Y-152980000D02*
X94160000Y-154235000D01*
X140545000Y-84095000D02*
X138450000Y-84095000D01*
X141400000Y-84950000D02*
X140545000Y-84095000D01*
X132925000Y-157125000D02*
X139075000Y-150975000D01*
X97050000Y-157125000D02*
X132925000Y-157125000D01*
X94160000Y-154235000D02*
X97050000Y-157125000D01*
D48*
X104320000Y-145360000D02*
X104320000Y-139380000D01*
X105250000Y-138450000D02*
X105250000Y-136200000D01*
X104320000Y-139380000D02*
X105250000Y-138450000D01*
X101780000Y-145360000D02*
X101780000Y-144380000D01*
X97250000Y-138650000D02*
X97250000Y-136200000D01*
X100875000Y-142275000D02*
X97250000Y-138650000D01*
X100875000Y-143475000D02*
X100875000Y-142275000D01*
X101780000Y-144380000D02*
X100875000Y-143475000D01*
X99240000Y-145360000D02*
X99240000Y-144340000D01*
X89250000Y-137575000D02*
X89250000Y-136200000D01*
X90450000Y-138775000D02*
X89250000Y-137575000D01*
X93675000Y-138775000D02*
X90450000Y-138775000D01*
X99240000Y-144340000D02*
X93675000Y-138775000D01*
X105850000Y-143475000D02*
X105850000Y-139775000D01*
D49*
X105850000Y-146350000D02*
X105850000Y-143475000D01*
X104320000Y-147880000D02*
X105850000Y-146350000D01*
D48*
X105850000Y-139775000D02*
X109250000Y-136375000D01*
X109250000Y-136375000D02*
X109250000Y-136200000D01*
D49*
X104320000Y-147900000D02*
X104320000Y-147880000D01*
D48*
X103075000Y-142150000D02*
X103050000Y-142175000D01*
D52*
X101780000Y-147900000D02*
X101780000Y-147895000D01*
X101780000Y-147895000D02*
X103050000Y-146625000D01*
X103050000Y-146625000D02*
X103050000Y-142175000D01*
X103050000Y-142175000D02*
X103075000Y-142150000D01*
D48*
X101250000Y-137655002D02*
X103075000Y-139480002D01*
X103075000Y-139480002D02*
X103075000Y-142150000D01*
X101250000Y-136200000D02*
X101250000Y-137655002D01*
D52*
X99638970Y-142736030D02*
X99638970Y-143476410D01*
X100525000Y-146615000D02*
X99240000Y-147900000D01*
X100525000Y-144362440D02*
X100525000Y-146615000D01*
X99638970Y-143476410D02*
X100525000Y-144362440D01*
D48*
X93250000Y-136200000D02*
X93250000Y-136347060D01*
X93250000Y-136347060D02*
X99638970Y-142736030D01*
D47*
X76200000Y-132100000D02*
X76200000Y-132425000D01*
X76250000Y-81525000D02*
X76625000Y-81900000D01*
X76625000Y-81900000D02*
X76625000Y-131675000D01*
X76625000Y-131675000D02*
X76200000Y-132100000D01*
X76250000Y-80600000D02*
X76250000Y-81525000D01*
X91620000Y-141470000D02*
X91620000Y-145360000D01*
X91620000Y-141470000D02*
X91075000Y-140925000D01*
X94160000Y-142860000D02*
X91775000Y-140475000D01*
X94160000Y-145360000D02*
X94160000Y-142860000D01*
X76174998Y-82274998D02*
X74500000Y-80600000D01*
X76174998Y-131475000D02*
X76174998Y-82274998D01*
X75550000Y-132099998D02*
X76174998Y-131475000D01*
X75550000Y-132675000D02*
X75550000Y-132099998D01*
X76575000Y-133700000D02*
X75550000Y-132675000D01*
X76675000Y-133700000D02*
X76575000Y-133700000D01*
X76850000Y-133875000D02*
X76675000Y-133700000D01*
X73650000Y-141900000D02*
X73650000Y-141750000D01*
X73650000Y-141750000D02*
X73000000Y-141100000D01*
X105000000Y-68300000D02*
X105000000Y-65725000D01*
X105000000Y-65725000D02*
X104250000Y-64975000D01*
X103475000Y-64975000D02*
X104250000Y-64975000D01*
X82025000Y-70125000D02*
X83075000Y-69075000D01*
X82025000Y-128300000D02*
X82025000Y-70125000D01*
X82200000Y-128475000D02*
X82025000Y-128300000D01*
X74600000Y-137900000D02*
X74600000Y-137300000D01*
X73000000Y-139500000D02*
X74600000Y-137900000D01*
X73000000Y-141100000D02*
X73000000Y-139500000D01*
X75700000Y-141900000D02*
X73650000Y-141900000D01*
X75700000Y-140100000D02*
X73650000Y-140100000D01*
X82200000Y-129500000D02*
X82850000Y-128850000D01*
X82850000Y-128850000D02*
X82850000Y-128175000D01*
X82850000Y-128175000D02*
X82475002Y-127800002D01*
X82475002Y-127800002D02*
X82475002Y-70574998D01*
X82475002Y-70574998D02*
X83900000Y-69150000D01*
X102925000Y-65625000D02*
X103775000Y-65625000D01*
X103775000Y-65625000D02*
X104500000Y-66350000D01*
X104500000Y-68300000D02*
X104500000Y-66350000D01*
X75700000Y-137200000D02*
X75700000Y-140100000D01*
X77500000Y-138300000D02*
X77500000Y-136750000D01*
X77500000Y-136750000D02*
X77750000Y-136500000D01*
X77500000Y-138300000D02*
X77500000Y-138100000D01*
X77500000Y-138100000D02*
X76900000Y-137500000D01*
X104000000Y-66625000D02*
X104000000Y-68300000D01*
X103650000Y-66275000D02*
X104000000Y-66625000D01*
X102425000Y-66275000D02*
X103650000Y-66275000D01*
X102225000Y-66075000D02*
X102425000Y-66275000D01*
X82950000Y-71000000D02*
X84725000Y-69225000D01*
X82950000Y-127575000D02*
X82950000Y-71000000D01*
X83350000Y-127975000D02*
X82950000Y-127575000D01*
X83350000Y-129450000D02*
X83350000Y-127975000D01*
X82575000Y-130225000D02*
X83350000Y-129450000D01*
D53*
G36*
X131615000Y-77702784D02*
X131615000Y-78464250D01*
X131773750Y-78623000D01*
X133373000Y-78623000D01*
X133373000Y-78603000D01*
X133627000Y-78603000D01*
X133627000Y-78623000D01*
X135226250Y-78623000D01*
X135385000Y-78464250D01*
X135385000Y-77959695D01*
X135990000Y-77993307D01*
X135990000Y-78164250D01*
X136148750Y-78323000D01*
X136873000Y-78323000D01*
X136873000Y-78303000D01*
X137127000Y-78303000D01*
X137127000Y-78323000D01*
X137147000Y-78323000D01*
X137147000Y-78577000D01*
X137127000Y-78577000D01*
X137127000Y-79526250D01*
X137273000Y-79672250D01*
X137273000Y-80147394D01*
X135947394Y-81473000D01*
X124500000Y-81473000D01*
X124450590Y-81483006D01*
X124402436Y-81518697D01*
X123940517Y-82073000D01*
X120738452Y-82073000D01*
X119873384Y-81496288D01*
X119261714Y-81037536D01*
X119373000Y-80926250D01*
X119373000Y-79977000D01*
X119627000Y-79977000D01*
X119627000Y-80926250D01*
X119785750Y-81085000D01*
X120076310Y-81085000D01*
X120309699Y-80988327D01*
X120488327Y-80809698D01*
X120585000Y-80576309D01*
X120585000Y-80135750D01*
X120485000Y-80035750D01*
X120765000Y-80035750D01*
X120765000Y-80976309D01*
X120861673Y-81209698D01*
X121040301Y-81388327D01*
X121273690Y-81485000D01*
X122214250Y-81485000D01*
X122373000Y-81326250D01*
X122373000Y-79877000D01*
X122627000Y-79877000D01*
X122627000Y-81326250D01*
X122785750Y-81485000D01*
X123726310Y-81485000D01*
X123959699Y-81388327D01*
X124138327Y-81209698D01*
X124235000Y-80976309D01*
X124235000Y-80035750D01*
X124076250Y-79877000D01*
X122627000Y-79877000D01*
X122373000Y-79877000D01*
X120923750Y-79877000D01*
X120765000Y-80035750D01*
X120485000Y-80035750D01*
X120426250Y-79977000D01*
X119627000Y-79977000D01*
X119373000Y-79977000D01*
X119353000Y-79977000D01*
X119353000Y-79723000D01*
X119373000Y-79723000D01*
X119373000Y-79703000D01*
X119627000Y-79703000D01*
X119627000Y-79723000D01*
X120426250Y-79723000D01*
X120585000Y-79564250D01*
X120585000Y-79169874D01*
X120765000Y-79086797D01*
X120765000Y-79464250D01*
X120923750Y-79623000D01*
X122373000Y-79623000D01*
X122373000Y-79603000D01*
X122627000Y-79603000D01*
X122627000Y-79623000D01*
X124076250Y-79623000D01*
X124235000Y-79464250D01*
X124235000Y-78785750D01*
X127215000Y-78785750D01*
X127215000Y-80376309D01*
X127311673Y-80609698D01*
X127490301Y-80788327D01*
X127723690Y-80885000D01*
X128464250Y-80885000D01*
X128623000Y-80726250D01*
X128623000Y-78627000D01*
X128877000Y-78627000D01*
X128877000Y-80726250D01*
X129035750Y-80885000D01*
X129776310Y-80885000D01*
X130009699Y-80788327D01*
X130188327Y-80609698D01*
X130285000Y-80376309D01*
X130285000Y-79035750D01*
X131615000Y-79035750D01*
X131615000Y-79876309D01*
X131711673Y-80109698D01*
X131890301Y-80288327D01*
X132123690Y-80385000D01*
X133214250Y-80385000D01*
X133373000Y-80226250D01*
X133373000Y-78877000D01*
X133627000Y-78877000D01*
X133627000Y-80226250D01*
X133785750Y-80385000D01*
X134876310Y-80385000D01*
X135109699Y-80288327D01*
X135288327Y-80109698D01*
X135385000Y-79876309D01*
X135385000Y-79035750D01*
X135226250Y-78877000D01*
X133627000Y-78877000D01*
X133373000Y-78877000D01*
X131773750Y-78877000D01*
X131615000Y-79035750D01*
X130285000Y-79035750D01*
X130285000Y-78785750D01*
X130235000Y-78735750D01*
X135990000Y-78735750D01*
X135990000Y-79176309D01*
X136086673Y-79409698D01*
X136265301Y-79588327D01*
X136498690Y-79685000D01*
X136714250Y-79685000D01*
X136873000Y-79526250D01*
X136873000Y-78577000D01*
X136148750Y-78577000D01*
X135990000Y-78735750D01*
X130235000Y-78735750D01*
X130126250Y-78627000D01*
X128877000Y-78627000D01*
X128623000Y-78627000D01*
X127373750Y-78627000D01*
X127215000Y-78785750D01*
X124235000Y-78785750D01*
X124235000Y-78592047D01*
X127215000Y-77211071D01*
X127215000Y-78214250D01*
X127373750Y-78373000D01*
X128623000Y-78373000D01*
X128623000Y-78353000D01*
X128877000Y-78353000D01*
X128877000Y-78373000D01*
X130126250Y-78373000D01*
X130285000Y-78214250D01*
X130285000Y-77170784D01*
X131615000Y-77702784D01*
X131615000Y-77702784D01*
G37*
X131615000Y-77702784D02*
X131615000Y-78464250D01*
X131773750Y-78623000D01*
X133373000Y-78623000D01*
X133373000Y-78603000D01*
X133627000Y-78603000D01*
X133627000Y-78623000D01*
X135226250Y-78623000D01*
X135385000Y-78464250D01*
X135385000Y-77959695D01*
X135990000Y-77993307D01*
X135990000Y-78164250D01*
X136148750Y-78323000D01*
X136873000Y-78323000D01*
X136873000Y-78303000D01*
X137127000Y-78303000D01*
X137127000Y-78323000D01*
X137147000Y-78323000D01*
X137147000Y-78577000D01*
X137127000Y-78577000D01*
X137127000Y-79526250D01*
X137273000Y-79672250D01*
X137273000Y-80147394D01*
X135947394Y-81473000D01*
X124500000Y-81473000D01*
X124450590Y-81483006D01*
X124402436Y-81518697D01*
X123940517Y-82073000D01*
X120738452Y-82073000D01*
X119873384Y-81496288D01*
X119261714Y-81037536D01*
X119373000Y-80926250D01*
X119373000Y-79977000D01*
X119627000Y-79977000D01*
X119627000Y-80926250D01*
X119785750Y-81085000D01*
X120076310Y-81085000D01*
X120309699Y-80988327D01*
X120488327Y-80809698D01*
X120585000Y-80576309D01*
X120585000Y-80135750D01*
X120485000Y-80035750D01*
X120765000Y-80035750D01*
X120765000Y-80976309D01*
X120861673Y-81209698D01*
X121040301Y-81388327D01*
X121273690Y-81485000D01*
X122214250Y-81485000D01*
X122373000Y-81326250D01*
X122373000Y-79877000D01*
X122627000Y-79877000D01*
X122627000Y-81326250D01*
X122785750Y-81485000D01*
X123726310Y-81485000D01*
X123959699Y-81388327D01*
X124138327Y-81209698D01*
X124235000Y-80976309D01*
X124235000Y-80035750D01*
X124076250Y-79877000D01*
X122627000Y-79877000D01*
X122373000Y-79877000D01*
X120923750Y-79877000D01*
X120765000Y-80035750D01*
X120485000Y-80035750D01*
X120426250Y-79977000D01*
X119627000Y-79977000D01*
X119373000Y-79977000D01*
X119353000Y-79977000D01*
X119353000Y-79723000D01*
X119373000Y-79723000D01*
X119373000Y-79703000D01*
X119627000Y-79703000D01*
X119627000Y-79723000D01*
X120426250Y-79723000D01*
X120585000Y-79564250D01*
X120585000Y-79169874D01*
X120765000Y-79086797D01*
X120765000Y-79464250D01*
X120923750Y-79623000D01*
X122373000Y-79623000D01*
X122373000Y-79603000D01*
X122627000Y-79603000D01*
X122627000Y-79623000D01*
X124076250Y-79623000D01*
X124235000Y-79464250D01*
X124235000Y-78785750D01*
X127215000Y-78785750D01*
X127215000Y-80376309D01*
X127311673Y-80609698D01*
X127490301Y-80788327D01*
X127723690Y-80885000D01*
X128464250Y-80885000D01*
X128623000Y-80726250D01*
X128623000Y-78627000D01*
X128877000Y-78627000D01*
X128877000Y-80726250D01*
X129035750Y-80885000D01*
X129776310Y-80885000D01*
X130009699Y-80788327D01*
X130188327Y-80609698D01*
X130285000Y-80376309D01*
X130285000Y-79035750D01*
X131615000Y-79035750D01*
X131615000Y-79876309D01*
X131711673Y-80109698D01*
X131890301Y-80288327D01*
X132123690Y-80385000D01*
X133214250Y-80385000D01*
X133373000Y-80226250D01*
X133373000Y-78877000D01*
X133627000Y-78877000D01*
X133627000Y-80226250D01*
X133785750Y-80385000D01*
X134876310Y-80385000D01*
X135109699Y-80288327D01*
X135288327Y-80109698D01*
X135385000Y-79876309D01*
X135385000Y-79035750D01*
X135226250Y-78877000D01*
X133627000Y-78877000D01*
X133373000Y-78877000D01*
X131773750Y-78877000D01*
X131615000Y-79035750D01*
X130285000Y-79035750D01*
X130285000Y-78785750D01*
X130235000Y-78735750D01*
X135990000Y-78735750D01*
X135990000Y-79176309D01*
X136086673Y-79409698D01*
X136265301Y-79588327D01*
X136498690Y-79685000D01*
X136714250Y-79685000D01*
X136873000Y-79526250D01*
X136873000Y-78577000D01*
X136148750Y-78577000D01*
X135990000Y-78735750D01*
X130235000Y-78735750D01*
X130126250Y-78627000D01*
X128877000Y-78627000D01*
X128623000Y-78627000D01*
X127373750Y-78627000D01*
X127215000Y-78785750D01*
X124235000Y-78785750D01*
X124235000Y-78592047D01*
X127215000Y-77211071D01*
X127215000Y-78214250D01*
X127373750Y-78373000D01*
X128623000Y-78373000D01*
X128623000Y-78353000D01*
X128877000Y-78353000D01*
X128877000Y-78373000D01*
X130126250Y-78373000D01*
X130285000Y-78214250D01*
X130285000Y-77170784D01*
X131615000Y-77702784D01*
G36*
X129065995Y-68453939D02*
X129088329Y-68488646D01*
X129086673Y-68490302D01*
X128990000Y-68723691D01*
X128990000Y-69164250D01*
X129148750Y-69323000D01*
X129873000Y-69323000D01*
X129873000Y-69303000D01*
X130127000Y-69303000D01*
X130127000Y-69323000D01*
X130147000Y-69323000D01*
X130147000Y-69577000D01*
X130127000Y-69577000D01*
X130127000Y-70526250D01*
X130285750Y-70685000D01*
X130501310Y-70685000D01*
X130734699Y-70588327D01*
X130913327Y-70409698D01*
X131010000Y-70176309D01*
X131010000Y-69735750D01*
X130851252Y-69577002D01*
X131010000Y-69577002D01*
X131010000Y-69497214D01*
X131675429Y-69977802D01*
X131615000Y-70123691D01*
X131615000Y-70964250D01*
X131773750Y-71123000D01*
X133373000Y-71123000D01*
X133373000Y-71103000D01*
X133627000Y-71103000D01*
X133627000Y-71123000D01*
X135226250Y-71123000D01*
X135385000Y-70964250D01*
X135385000Y-70482320D01*
X136715000Y-70777876D01*
X136715000Y-72214250D01*
X136873750Y-72373000D01*
X138123000Y-72373000D01*
X138123000Y-72353000D01*
X138377000Y-72353000D01*
X138377000Y-72373000D01*
X138397000Y-72373000D01*
X138397000Y-72627000D01*
X138377000Y-72627000D01*
X138377000Y-72647000D01*
X138123000Y-72647000D01*
X138123000Y-72627000D01*
X136873750Y-72627000D01*
X136715000Y-72785750D01*
X136715000Y-74376309D01*
X136811673Y-74609698D01*
X136990301Y-74788327D01*
X137223690Y-74885000D01*
X137964250Y-74885000D01*
X138122998Y-74726252D01*
X138122998Y-74885000D01*
X138235394Y-74885000D01*
X137716330Y-75404064D01*
X137501310Y-75315000D01*
X137285750Y-75315000D01*
X137127000Y-75473750D01*
X137127000Y-76423000D01*
X137147000Y-76423000D01*
X137147000Y-76677000D01*
X137127000Y-76677000D01*
X137127000Y-76697000D01*
X136873000Y-76697000D01*
X136873000Y-76677000D01*
X136853000Y-76677000D01*
X136853000Y-76423000D01*
X136873000Y-76423000D01*
X136873000Y-75473750D01*
X136714250Y-75315000D01*
X136498690Y-75315000D01*
X136265301Y-75411673D01*
X136086673Y-75590302D01*
X135990000Y-75823691D01*
X135990000Y-76264250D01*
X136148748Y-76422998D01*
X135990000Y-76422998D01*
X135990000Y-76542442D01*
X135323729Y-76024231D01*
X135385000Y-75876309D01*
X135385000Y-75035750D01*
X135226250Y-74877000D01*
X133627000Y-74877000D01*
X133627000Y-74897000D01*
X133373000Y-74897000D01*
X133373000Y-74877000D01*
X131773750Y-74877000D01*
X131615000Y-75035750D01*
X131615000Y-75573000D01*
X130727000Y-75573000D01*
X130727000Y-73623691D01*
X131615000Y-73623691D01*
X131615000Y-74464250D01*
X131773750Y-74623000D01*
X133373000Y-74623000D01*
X133373000Y-73273750D01*
X133627000Y-73273750D01*
X133627000Y-74623000D01*
X135226250Y-74623000D01*
X135385000Y-74464250D01*
X135385000Y-73623691D01*
X135288327Y-73390302D01*
X135109699Y-73211673D01*
X134876310Y-73115000D01*
X133785750Y-73115000D01*
X133627000Y-73273750D01*
X133373000Y-73273750D01*
X133214250Y-73115000D01*
X132123690Y-73115000D01*
X131890301Y-73211673D01*
X131711673Y-73390302D01*
X131615000Y-73623691D01*
X130727000Y-73623691D01*
X130727000Y-71535750D01*
X131615000Y-71535750D01*
X131615000Y-72376309D01*
X131711673Y-72609698D01*
X131890301Y-72788327D01*
X132123690Y-72885000D01*
X133214250Y-72885000D01*
X133373000Y-72726250D01*
X133373000Y-71377000D01*
X133627000Y-71377000D01*
X133627000Y-72726250D01*
X133785750Y-72885000D01*
X134876310Y-72885000D01*
X135109699Y-72788327D01*
X135288327Y-72609698D01*
X135385000Y-72376309D01*
X135385000Y-71535750D01*
X135226250Y-71377000D01*
X133627000Y-71377000D01*
X133373000Y-71377000D01*
X131773750Y-71377000D01*
X131615000Y-71535750D01*
X130727000Y-71535750D01*
X130727000Y-71500000D01*
X130716994Y-71450590D01*
X130681303Y-71402436D01*
X129762491Y-70636759D01*
X129873000Y-70526250D01*
X129873000Y-69577000D01*
X129148750Y-69577000D01*
X128990000Y-69735750D01*
X128990000Y-69750636D01*
X127767800Y-68142480D01*
X127753162Y-68064683D01*
X127647518Y-67900508D01*
X127688327Y-67859699D01*
X127785000Y-67626310D01*
X127785000Y-67035750D01*
X127626252Y-66877002D01*
X127760944Y-66877002D01*
X129065995Y-68453939D01*
X129065995Y-68453939D01*
G37*
X129065995Y-68453939D02*
X129088329Y-68488646D01*
X129086673Y-68490302D01*
X128990000Y-68723691D01*
X128990000Y-69164250D01*
X129148750Y-69323000D01*
X129873000Y-69323000D01*
X129873000Y-69303000D01*
X130127000Y-69303000D01*
X130127000Y-69323000D01*
X130147000Y-69323000D01*
X130147000Y-69577000D01*
X130127000Y-69577000D01*
X130127000Y-70526250D01*
X130285750Y-70685000D01*
X130501310Y-70685000D01*
X130734699Y-70588327D01*
X130913327Y-70409698D01*
X131010000Y-70176309D01*
X131010000Y-69735750D01*
X130851252Y-69577002D01*
X131010000Y-69577002D01*
X131010000Y-69497214D01*
X131675429Y-69977802D01*
X131615000Y-70123691D01*
X131615000Y-70964250D01*
X131773750Y-71123000D01*
X133373000Y-71123000D01*
X133373000Y-71103000D01*
X133627000Y-71103000D01*
X133627000Y-71123000D01*
X135226250Y-71123000D01*
X135385000Y-70964250D01*
X135385000Y-70482320D01*
X136715000Y-70777876D01*
X136715000Y-72214250D01*
X136873750Y-72373000D01*
X138123000Y-72373000D01*
X138123000Y-72353000D01*
X138377000Y-72353000D01*
X138377000Y-72373000D01*
X138397000Y-72373000D01*
X138397000Y-72627000D01*
X138377000Y-72627000D01*
X138377000Y-72647000D01*
X138123000Y-72647000D01*
X138123000Y-72627000D01*
X136873750Y-72627000D01*
X136715000Y-72785750D01*
X136715000Y-74376309D01*
X136811673Y-74609698D01*
X136990301Y-74788327D01*
X137223690Y-74885000D01*
X137964250Y-74885000D01*
X138122998Y-74726252D01*
X138122998Y-74885000D01*
X138235394Y-74885000D01*
X137716330Y-75404064D01*
X137501310Y-75315000D01*
X137285750Y-75315000D01*
X137127000Y-75473750D01*
X137127000Y-76423000D01*
X137147000Y-76423000D01*
X137147000Y-76677000D01*
X137127000Y-76677000D01*
X137127000Y-76697000D01*
X136873000Y-76697000D01*
X136873000Y-76677000D01*
X136853000Y-76677000D01*
X136853000Y-76423000D01*
X136873000Y-76423000D01*
X136873000Y-75473750D01*
X136714250Y-75315000D01*
X136498690Y-75315000D01*
X136265301Y-75411673D01*
X136086673Y-75590302D01*
X135990000Y-75823691D01*
X135990000Y-76264250D01*
X136148748Y-76422998D01*
X135990000Y-76422998D01*
X135990000Y-76542442D01*
X135323729Y-76024231D01*
X135385000Y-75876309D01*
X135385000Y-75035750D01*
X135226250Y-74877000D01*
X133627000Y-74877000D01*
X133627000Y-74897000D01*
X133373000Y-74897000D01*
X133373000Y-74877000D01*
X131773750Y-74877000D01*
X131615000Y-75035750D01*
X131615000Y-75573000D01*
X130727000Y-75573000D01*
X130727000Y-73623691D01*
X131615000Y-73623691D01*
X131615000Y-74464250D01*
X131773750Y-74623000D01*
X133373000Y-74623000D01*
X133373000Y-73273750D01*
X133627000Y-73273750D01*
X133627000Y-74623000D01*
X135226250Y-74623000D01*
X135385000Y-74464250D01*
X135385000Y-73623691D01*
X135288327Y-73390302D01*
X135109699Y-73211673D01*
X134876310Y-73115000D01*
X133785750Y-73115000D01*
X133627000Y-73273750D01*
X133373000Y-73273750D01*
X133214250Y-73115000D01*
X132123690Y-73115000D01*
X131890301Y-73211673D01*
X131711673Y-73390302D01*
X131615000Y-73623691D01*
X130727000Y-73623691D01*
X130727000Y-71535750D01*
X131615000Y-71535750D01*
X131615000Y-72376309D01*
X131711673Y-72609698D01*
X131890301Y-72788327D01*
X132123690Y-72885000D01*
X133214250Y-72885000D01*
X133373000Y-72726250D01*
X133373000Y-71377000D01*
X133627000Y-71377000D01*
X133627000Y-72726250D01*
X133785750Y-72885000D01*
X134876310Y-72885000D01*
X135109699Y-72788327D01*
X135288327Y-72609698D01*
X135385000Y-72376309D01*
X135385000Y-71535750D01*
X135226250Y-71377000D01*
X133627000Y-71377000D01*
X133373000Y-71377000D01*
X131773750Y-71377000D01*
X131615000Y-71535750D01*
X130727000Y-71535750D01*
X130727000Y-71500000D01*
X130716994Y-71450590D01*
X130681303Y-71402436D01*
X129762491Y-70636759D01*
X129873000Y-70526250D01*
X129873000Y-69577000D01*
X129148750Y-69577000D01*
X128990000Y-69735750D01*
X128990000Y-69750636D01*
X127767800Y-68142480D01*
X127753162Y-68064683D01*
X127647518Y-67900508D01*
X127688327Y-67859699D01*
X127785000Y-67626310D01*
X127785000Y-67035750D01*
X127626252Y-66877002D01*
X127760944Y-66877002D01*
X129065995Y-68453939D01*
G36*
X124515000Y-65952876D02*
X124515000Y-66464250D01*
X124673750Y-66623000D01*
X126023000Y-66623000D01*
X126023000Y-66603000D01*
X126277000Y-66603000D01*
X126277000Y-66623000D01*
X126297000Y-66623000D01*
X126297000Y-66877000D01*
X126277000Y-66877000D01*
X126277000Y-66897000D01*
X126023000Y-66897000D01*
X126023000Y-66877000D01*
X124673750Y-66877000D01*
X124515000Y-67035750D01*
X124515000Y-67626310D01*
X124611673Y-67859699D01*
X124653634Y-67901660D01*
X124553569Y-68048110D01*
X124502560Y-68300000D01*
X124502560Y-68632433D01*
X123797758Y-69588950D01*
X123776503Y-69634663D01*
X123773000Y-69664286D01*
X123773000Y-70990542D01*
X123414332Y-70655466D01*
X122896122Y-70440825D01*
X122627000Y-70558875D01*
X122627000Y-72003000D01*
X122647000Y-72003000D01*
X122647000Y-72257000D01*
X122627000Y-72257000D01*
X122627000Y-73701125D01*
X122896122Y-73819175D01*
X123414332Y-73604534D01*
X123773000Y-73269458D01*
X123773000Y-74473000D01*
X120375025Y-74473000D01*
X120488327Y-74359698D01*
X120585000Y-74126309D01*
X120585000Y-73685750D01*
X120426250Y-73527000D01*
X119627000Y-73527000D01*
X119627000Y-73547000D01*
X119373000Y-73547000D01*
X119373000Y-73527000D01*
X119353000Y-73527000D01*
X119353000Y-73273000D01*
X119373000Y-73273000D01*
X119373000Y-72323750D01*
X119627000Y-72323750D01*
X119627000Y-73273000D01*
X120426250Y-73273000D01*
X120585000Y-73114250D01*
X120585000Y-72673691D01*
X120523876Y-72526123D01*
X120810817Y-72526123D01*
X121090988Y-73142392D01*
X121585668Y-73604534D01*
X122103878Y-73819175D01*
X122373000Y-73701125D01*
X122373000Y-72257000D01*
X120928396Y-72257000D01*
X120810817Y-72526123D01*
X120523876Y-72526123D01*
X120488327Y-72440302D01*
X120309699Y-72261673D01*
X120076310Y-72165000D01*
X119785750Y-72165000D01*
X119627000Y-72323750D01*
X119373000Y-72323750D01*
X119214250Y-72165000D01*
X118923690Y-72165000D01*
X118731753Y-72244503D01*
X118760000Y-72176309D01*
X118760000Y-71735750D01*
X118758127Y-71733877D01*
X120810817Y-71733877D01*
X120928396Y-72003000D01*
X122373000Y-72003000D01*
X122373000Y-70558875D01*
X122103878Y-70440825D01*
X121585668Y-70655466D01*
X121090988Y-71117608D01*
X120810817Y-71733877D01*
X118758127Y-71733877D01*
X118601250Y-71577000D01*
X117877000Y-71577000D01*
X117877000Y-71597000D01*
X117627000Y-71597000D01*
X117627000Y-71303000D01*
X117877000Y-71303000D01*
X117877000Y-71323000D01*
X118601250Y-71323000D01*
X118760000Y-71164250D01*
X118760000Y-70723691D01*
X118667266Y-70499812D01*
X118679404Y-70463397D01*
X118721431Y-70401890D01*
X118754748Y-70237368D01*
X118887150Y-69840161D01*
X118893282Y-69790122D01*
X118879464Y-69741640D01*
X118847872Y-69702354D01*
X118824825Y-69689945D01*
X118816726Y-69285000D01*
X119564250Y-69285000D01*
X119723000Y-69126250D01*
X119723000Y-66877000D01*
X119977000Y-66877000D01*
X119977000Y-69126250D01*
X120135750Y-69285000D01*
X120976309Y-69285000D01*
X121209698Y-69188327D01*
X121388327Y-69009699D01*
X121485000Y-68776310D01*
X121485000Y-67035750D01*
X121326250Y-66877000D01*
X119977000Y-66877000D01*
X119723000Y-66877000D01*
X119703000Y-66877000D01*
X119703000Y-66623000D01*
X119723000Y-66623000D01*
X119723000Y-66603000D01*
X119977000Y-66603000D01*
X119977000Y-66623000D01*
X121326250Y-66623000D01*
X121485000Y-66464250D01*
X121485000Y-65020568D01*
X124515000Y-65952876D01*
X124515000Y-65952876D01*
G37*
X124515000Y-65952876D02*
X124515000Y-66464250D01*
X124673750Y-66623000D01*
X126023000Y-66623000D01*
X126023000Y-66603000D01*
X126277000Y-66603000D01*
X126277000Y-66623000D01*
X126297000Y-66623000D01*
X126297000Y-66877000D01*
X126277000Y-66877000D01*
X126277000Y-66897000D01*
X126023000Y-66897000D01*
X126023000Y-66877000D01*
X124673750Y-66877000D01*
X124515000Y-67035750D01*
X124515000Y-67626310D01*
X124611673Y-67859699D01*
X124653634Y-67901660D01*
X124553569Y-68048110D01*
X124502560Y-68300000D01*
X124502560Y-68632433D01*
X123797758Y-69588950D01*
X123776503Y-69634663D01*
X123773000Y-69664286D01*
X123773000Y-70990542D01*
X123414332Y-70655466D01*
X122896122Y-70440825D01*
X122627000Y-70558875D01*
X122627000Y-72003000D01*
X122647000Y-72003000D01*
X122647000Y-72257000D01*
X122627000Y-72257000D01*
X122627000Y-73701125D01*
X122896122Y-73819175D01*
X123414332Y-73604534D01*
X123773000Y-73269458D01*
X123773000Y-74473000D01*
X120375025Y-74473000D01*
X120488327Y-74359698D01*
X120585000Y-74126309D01*
X120585000Y-73685750D01*
X120426250Y-73527000D01*
X119627000Y-73527000D01*
X119627000Y-73547000D01*
X119373000Y-73547000D01*
X119373000Y-73527000D01*
X119353000Y-73527000D01*
X119353000Y-73273000D01*
X119373000Y-73273000D01*
X119373000Y-72323750D01*
X119627000Y-72323750D01*
X119627000Y-73273000D01*
X120426250Y-73273000D01*
X120585000Y-73114250D01*
X120585000Y-72673691D01*
X120523876Y-72526123D01*
X120810817Y-72526123D01*
X121090988Y-73142392D01*
X121585668Y-73604534D01*
X122103878Y-73819175D01*
X122373000Y-73701125D01*
X122373000Y-72257000D01*
X120928396Y-72257000D01*
X120810817Y-72526123D01*
X120523876Y-72526123D01*
X120488327Y-72440302D01*
X120309699Y-72261673D01*
X120076310Y-72165000D01*
X119785750Y-72165000D01*
X119627000Y-72323750D01*
X119373000Y-72323750D01*
X119214250Y-72165000D01*
X118923690Y-72165000D01*
X118731753Y-72244503D01*
X118760000Y-72176309D01*
X118760000Y-71735750D01*
X118758127Y-71733877D01*
X120810817Y-71733877D01*
X120928396Y-72003000D01*
X122373000Y-72003000D01*
X122373000Y-70558875D01*
X122103878Y-70440825D01*
X121585668Y-70655466D01*
X121090988Y-71117608D01*
X120810817Y-71733877D01*
X118758127Y-71733877D01*
X118601250Y-71577000D01*
X117877000Y-71577000D01*
X117877000Y-71597000D01*
X117627000Y-71597000D01*
X117627000Y-71303000D01*
X117877000Y-71303000D01*
X117877000Y-71323000D01*
X118601250Y-71323000D01*
X118760000Y-71164250D01*
X118760000Y-70723691D01*
X118667266Y-70499812D01*
X118679404Y-70463397D01*
X118721431Y-70401890D01*
X118754748Y-70237368D01*
X118887150Y-69840161D01*
X118893282Y-69790122D01*
X118879464Y-69741640D01*
X118847872Y-69702354D01*
X118824825Y-69689945D01*
X118816726Y-69285000D01*
X119564250Y-69285000D01*
X119723000Y-69126250D01*
X119723000Y-66877000D01*
X119977000Y-66877000D01*
X119977000Y-69126250D01*
X120135750Y-69285000D01*
X120976309Y-69285000D01*
X121209698Y-69188327D01*
X121388327Y-69009699D01*
X121485000Y-68776310D01*
X121485000Y-67035750D01*
X121326250Y-66877000D01*
X119977000Y-66877000D01*
X119723000Y-66877000D01*
X119703000Y-66877000D01*
X119703000Y-66623000D01*
X119723000Y-66623000D01*
X119723000Y-66603000D01*
X119977000Y-66603000D01*
X119977000Y-66623000D01*
X121326250Y-66623000D01*
X121485000Y-66464250D01*
X121485000Y-65020568D01*
X124515000Y-65952876D01*
G36*
X118127000Y-73423000D02*
X118147000Y-73423000D01*
X118147000Y-73677000D01*
X118127000Y-73677000D01*
X118127000Y-73697000D01*
X117873000Y-73697000D01*
X117873000Y-73677000D01*
X117853000Y-73677000D01*
X117853000Y-73423000D01*
X117873000Y-73423000D01*
X117873000Y-73403000D01*
X118127000Y-73403000D01*
X118127000Y-73423000D01*
X118127000Y-73423000D01*
G37*
X118127000Y-73423000D02*
X118147000Y-73423000D01*
X118147000Y-73677000D01*
X118127000Y-73677000D01*
X118127000Y-73697000D01*
X117873000Y-73697000D01*
X117873000Y-73677000D01*
X117853000Y-73677000D01*
X117853000Y-73423000D01*
X117873000Y-73423000D01*
X117873000Y-73403000D01*
X118127000Y-73403000D01*
X118127000Y-73423000D01*
G36*
X139315000Y-62464802D02*
X139315000Y-65131026D01*
X139276310Y-65115000D01*
X138535750Y-65115000D01*
X138377000Y-65273750D01*
X138377000Y-67373000D01*
X138397000Y-67373000D01*
X138397000Y-67627000D01*
X138377000Y-67627000D01*
X138377000Y-67647000D01*
X138123000Y-67647000D01*
X138123000Y-67627000D01*
X136873750Y-67627000D01*
X136715000Y-67785750D01*
X136715000Y-69376309D01*
X136731705Y-69416638D01*
X132899085Y-69473000D01*
X132440033Y-69473000D01*
X130947169Y-68427995D01*
X131010000Y-68276309D01*
X131010000Y-67835750D01*
X130851250Y-67677000D01*
X130127000Y-67677000D01*
X130127000Y-67697000D01*
X129873000Y-67697000D01*
X129873000Y-67677000D01*
X129853000Y-67677000D01*
X129853000Y-67535750D01*
X131615000Y-67535750D01*
X131615000Y-68376309D01*
X131711673Y-68609698D01*
X131890301Y-68788327D01*
X132123690Y-68885000D01*
X133214250Y-68885000D01*
X133373000Y-68726250D01*
X133373000Y-67377000D01*
X133627000Y-67377000D01*
X133627000Y-68726250D01*
X133785750Y-68885000D01*
X134876310Y-68885000D01*
X135109699Y-68788327D01*
X135288327Y-68609698D01*
X135385000Y-68376309D01*
X135385000Y-67535750D01*
X135226250Y-67377000D01*
X133627000Y-67377000D01*
X133373000Y-67377000D01*
X131773750Y-67377000D01*
X131615000Y-67535750D01*
X129853000Y-67535750D01*
X129853000Y-67423000D01*
X129873000Y-67423000D01*
X129873000Y-66473750D01*
X130127000Y-66473750D01*
X130127000Y-67423000D01*
X130851250Y-67423000D01*
X131010000Y-67264250D01*
X131010000Y-66823691D01*
X130913327Y-66590302D01*
X130734699Y-66411673D01*
X130501310Y-66315000D01*
X130285750Y-66315000D01*
X130127000Y-66473750D01*
X129873000Y-66473750D01*
X129763784Y-66364534D01*
X129755479Y-66123691D01*
X131615000Y-66123691D01*
X131615000Y-66964250D01*
X131773750Y-67123000D01*
X133373000Y-67123000D01*
X133373000Y-65773750D01*
X133627000Y-65773750D01*
X133627000Y-67123000D01*
X135226250Y-67123000D01*
X135385000Y-66964250D01*
X135385000Y-66123691D01*
X135288327Y-65890302D01*
X135109699Y-65711673D01*
X134897292Y-65623691D01*
X136715000Y-65623691D01*
X136715000Y-67214250D01*
X136873750Y-67373000D01*
X138123000Y-67373000D01*
X138123000Y-65273750D01*
X137964250Y-65115000D01*
X137223690Y-65115000D01*
X136990301Y-65211673D01*
X136811673Y-65390302D01*
X136715000Y-65623691D01*
X134897292Y-65623691D01*
X134876310Y-65615000D01*
X133785750Y-65615000D01*
X133627000Y-65773750D01*
X133373000Y-65773750D01*
X133214250Y-65615000D01*
X132123690Y-65615000D01*
X131890301Y-65711673D01*
X131711673Y-65890302D01*
X131615000Y-66123691D01*
X129755479Y-66123691D01*
X129747389Y-65889083D01*
X129785000Y-65700000D01*
X129731614Y-65431610D01*
X129727000Y-65297798D01*
X129727000Y-64900000D01*
X129716994Y-64850590D01*
X129695825Y-64819608D01*
X129973244Y-64934803D01*
X130424775Y-64935197D01*
X130842086Y-64762767D01*
X131161645Y-64443765D01*
X131334803Y-64026756D01*
X131335197Y-63575225D01*
X131162767Y-63157914D01*
X130843765Y-62838355D01*
X130426756Y-62665197D01*
X129975225Y-62664803D01*
X129557914Y-62837233D01*
X129238355Y-63156235D01*
X129065197Y-63573244D01*
X129064803Y-64024775D01*
X129237233Y-64442086D01*
X129556235Y-64761645D01*
X129583581Y-64773000D01*
X129414318Y-64773000D01*
X129379343Y-64720657D01*
X128930016Y-64420426D01*
X128400000Y-64315000D01*
X127869984Y-64420426D01*
X127630017Y-64580767D01*
X127626250Y-64577000D01*
X126277000Y-64577000D01*
X126277000Y-64597000D01*
X126023000Y-64597000D01*
X126023000Y-64577000D01*
X126003000Y-64577000D01*
X126003000Y-64323000D01*
X126023000Y-64323000D01*
X126023000Y-63223750D01*
X126277000Y-63223750D01*
X126277000Y-64323000D01*
X127626250Y-64323000D01*
X127785000Y-64164250D01*
X127785000Y-63573690D01*
X127688327Y-63340301D01*
X127509698Y-63161673D01*
X127276309Y-63065000D01*
X126435750Y-63065000D01*
X126277000Y-63223750D01*
X126023000Y-63223750D01*
X125864250Y-63065000D01*
X125127000Y-63065000D01*
X125127000Y-62427000D01*
X139277198Y-62427000D01*
X139315000Y-62464802D01*
X139315000Y-62464802D01*
G37*
X139315000Y-62464802D02*
X139315000Y-65131026D01*
X139276310Y-65115000D01*
X138535750Y-65115000D01*
X138377000Y-65273750D01*
X138377000Y-67373000D01*
X138397000Y-67373000D01*
X138397000Y-67627000D01*
X138377000Y-67627000D01*
X138377000Y-67647000D01*
X138123000Y-67647000D01*
X138123000Y-67627000D01*
X136873750Y-67627000D01*
X136715000Y-67785750D01*
X136715000Y-69376309D01*
X136731705Y-69416638D01*
X132899085Y-69473000D01*
X132440033Y-69473000D01*
X130947169Y-68427995D01*
X131010000Y-68276309D01*
X131010000Y-67835750D01*
X130851250Y-67677000D01*
X130127000Y-67677000D01*
X130127000Y-67697000D01*
X129873000Y-67697000D01*
X129873000Y-67677000D01*
X129853000Y-67677000D01*
X129853000Y-67535750D01*
X131615000Y-67535750D01*
X131615000Y-68376309D01*
X131711673Y-68609698D01*
X131890301Y-68788327D01*
X132123690Y-68885000D01*
X133214250Y-68885000D01*
X133373000Y-68726250D01*
X133373000Y-67377000D01*
X133627000Y-67377000D01*
X133627000Y-68726250D01*
X133785750Y-68885000D01*
X134876310Y-68885000D01*
X135109699Y-68788327D01*
X135288327Y-68609698D01*
X135385000Y-68376309D01*
X135385000Y-67535750D01*
X135226250Y-67377000D01*
X133627000Y-67377000D01*
X133373000Y-67377000D01*
X131773750Y-67377000D01*
X131615000Y-67535750D01*
X129853000Y-67535750D01*
X129853000Y-67423000D01*
X129873000Y-67423000D01*
X129873000Y-66473750D01*
X130127000Y-66473750D01*
X130127000Y-67423000D01*
X130851250Y-67423000D01*
X131010000Y-67264250D01*
X131010000Y-66823691D01*
X130913327Y-66590302D01*
X130734699Y-66411673D01*
X130501310Y-66315000D01*
X130285750Y-66315000D01*
X130127000Y-66473750D01*
X129873000Y-66473750D01*
X129763784Y-66364534D01*
X129755479Y-66123691D01*
X131615000Y-66123691D01*
X131615000Y-66964250D01*
X131773750Y-67123000D01*
X133373000Y-67123000D01*
X133373000Y-65773750D01*
X133627000Y-65773750D01*
X133627000Y-67123000D01*
X135226250Y-67123000D01*
X135385000Y-66964250D01*
X135385000Y-66123691D01*
X135288327Y-65890302D01*
X135109699Y-65711673D01*
X134897292Y-65623691D01*
X136715000Y-65623691D01*
X136715000Y-67214250D01*
X136873750Y-67373000D01*
X138123000Y-67373000D01*
X138123000Y-65273750D01*
X137964250Y-65115000D01*
X137223690Y-65115000D01*
X136990301Y-65211673D01*
X136811673Y-65390302D01*
X136715000Y-65623691D01*
X134897292Y-65623691D01*
X134876310Y-65615000D01*
X133785750Y-65615000D01*
X133627000Y-65773750D01*
X133373000Y-65773750D01*
X133214250Y-65615000D01*
X132123690Y-65615000D01*
X131890301Y-65711673D01*
X131711673Y-65890302D01*
X131615000Y-66123691D01*
X129755479Y-66123691D01*
X129747389Y-65889083D01*
X129785000Y-65700000D01*
X129731614Y-65431610D01*
X129727000Y-65297798D01*
X129727000Y-64900000D01*
X129716994Y-64850590D01*
X129695825Y-64819608D01*
X129973244Y-64934803D01*
X130424775Y-64935197D01*
X130842086Y-64762767D01*
X131161645Y-64443765D01*
X131334803Y-64026756D01*
X131335197Y-63575225D01*
X131162767Y-63157914D01*
X130843765Y-62838355D01*
X130426756Y-62665197D01*
X129975225Y-62664803D01*
X129557914Y-62837233D01*
X129238355Y-63156235D01*
X129065197Y-63573244D01*
X129064803Y-64024775D01*
X129237233Y-64442086D01*
X129556235Y-64761645D01*
X129583581Y-64773000D01*
X129414318Y-64773000D01*
X129379343Y-64720657D01*
X128930016Y-64420426D01*
X128400000Y-64315000D01*
X127869984Y-64420426D01*
X127630017Y-64580767D01*
X127626250Y-64577000D01*
X126277000Y-64577000D01*
X126277000Y-64597000D01*
X126023000Y-64597000D01*
X126023000Y-64577000D01*
X126003000Y-64577000D01*
X126003000Y-64323000D01*
X126023000Y-64323000D01*
X126023000Y-63223750D01*
X126277000Y-63223750D01*
X126277000Y-64323000D01*
X127626250Y-64323000D01*
X127785000Y-64164250D01*
X127785000Y-63573690D01*
X127688327Y-63340301D01*
X127509698Y-63161673D01*
X127276309Y-63065000D01*
X126435750Y-63065000D01*
X126277000Y-63223750D01*
X126023000Y-63223750D01*
X125864250Y-63065000D01*
X125127000Y-63065000D01*
X125127000Y-62427000D01*
X139277198Y-62427000D01*
X139315000Y-62464802D01*
M02*
